M48
METRIC,TZ
T1C0.700
T2C0.762
T3C0.800
T4C0.900
T5C0.950
T6C1.000
T7C1.100
T8C2.000
%
G90
G05
T1
X59804Y-144361
X59830Y-158788
X66650Y-90653
X72161Y-130696
X72212Y-137287
X72225Y-132753
X72276Y-139459
X72377Y-134722
X72390Y-128727
X72771Y-47104
X78105Y-47104
X78549Y-90615
X80086Y-156489
X80150Y-151435
X82753Y-149212
X82753Y-155892
X86792Y-130708
X86843Y-132740
X86893Y-128651
X87071Y-134760
X87147Y-137376
X87262Y-139548
X87846Y-149974
X92405Y-52603
X92431Y-40386
X97714Y-154470
X103823Y-150000
X105486Y-154419
X201460Y-144551
X201486Y-158979
X208305Y-90843
X213817Y-130886
X213868Y-137477
X213881Y-132944
X213932Y-139649
X214033Y-134912
X214046Y-128918
X214427Y-47295
X219761Y-47295
X220205Y-90805
X221742Y-156680
X221806Y-151625
X224409Y-149403
X224409Y-156083
X228448Y-130899
X228498Y-132931
X228549Y-128842
X228727Y-134950
X228803Y-137566
X228917Y-139738
X229502Y-150165
X234061Y-52794
X234086Y-40577
X239370Y-154661
X245478Y-150190
X247142Y-154610
T2
X200431Y-94303
X200431Y-96843
X200431Y-99383
X200431Y-101923
X200431Y-104463
X200431Y-107003
X200431Y-109543
X200431Y-112083
X200431Y-114623
X200431Y-117163
X200431Y-119703
X200431Y-122243
X200431Y-124783
X200431Y-127323
X200431Y-129863
X200431Y-132403
X58776Y-94112
X58776Y-96652
X58776Y-99192
X58776Y-101732
X58776Y-104272
X58776Y-106812
X58776Y-109352
X58776Y-111892
X58776Y-114432
X58776Y-116972
X58776Y-119512
X58776Y-122052
X58776Y-124592
X58776Y-127132
X58776Y-129672
X58776Y-132212
X204505Y-94288
X204505Y-96828
X204505Y-99368
X204505Y-101908
X204505Y-104448
X204505Y-106988
X204505Y-109528
X204505Y-112068
X204505Y-114608
X204505Y-117148
X204505Y-119688
X204505Y-122228
X204505Y-124768
X204505Y-127308
X204505Y-129848
X204505Y-132388
X62849Y-94098
X62849Y-96638
X62849Y-99178
X62849Y-101718
X62849Y-104258
X62849Y-106798
X62849Y-109338
X62849Y-111878
X62849Y-114418
X62849Y-116958
X62849Y-119498
X62849Y-122038
X62849Y-124578
X62849Y-127118
X62849Y-129658
X62849Y-132198
T3
X84265Y-87630
X91885Y-87630
X84252Y-99657
X91872Y-99657
X221973Y-44031
X224473Y-44031
X225920Y-87821
X233540Y-87821
X80444Y-50482
X82944Y-50482
X225920Y-90792
X233540Y-90792
X84265Y-102629
X91885Y-102629
X80317Y-43840
X82817Y-43840
X48438Y-149860
X48438Y-153360
X62103Y-143548
X62103Y-158788
X64643Y-143548
X64643Y-158788
X67183Y-143548
X67183Y-158788
X69723Y-143548
X69723Y-158788
X72263Y-143548
X72263Y-158788
X74803Y-143548
X74803Y-158788
X77343Y-143548
X77343Y-158788
X79883Y-143548
X79883Y-158788
X82423Y-143548
X82423Y-158788
X84963Y-143548
X84963Y-158788
X87503Y-143548
X87503Y-158788
X90043Y-143548
X90043Y-158788
X92583Y-143548
X92583Y-158788
X95123Y-143548
X95123Y-158788
X97663Y-143548
X97663Y-158788
X84265Y-105639
X91885Y-105639
X203759Y-143739
X203759Y-158979
X206299Y-143739
X206299Y-158979
X208839Y-143739
X208839Y-158979
X211379Y-143739
X211379Y-158979
X213919Y-143739
X213919Y-158979
X216459Y-143739
X216459Y-158979
X218999Y-143739
X218999Y-158979
X221539Y-143739
X221539Y-158979
X224079Y-143739
X224079Y-158979
X226619Y-143739
X226619Y-158979
X229159Y-143739
X229159Y-158979
X231699Y-143739
X231699Y-158979
X234239Y-143739
X234239Y-158979
X236779Y-143739
X236779Y-158979
X239319Y-143739
X239319Y-158979
X222099Y-50673
X224599Y-50673
X190094Y-150051
X190094Y-153551
X55245Y-78969
X55245Y-86589
X84252Y-96622
X91872Y-96622
X225920Y-102819
X233540Y-102819
X84252Y-93599
X91872Y-93599
X225908Y-99847
X233528Y-99847
X225908Y-96812
X233528Y-96812
X225920Y-105829
X233540Y-105829
X84265Y-90602
X91885Y-90602
X225908Y-93789
X233528Y-93789
X196901Y-79159
X196901Y-86779
T4
X235496Y-54597
X245656Y-54597
X93840Y-54407
X104000Y-54407
X229540Y-55700
X229540Y-58240
X45987Y-69304
X45987Y-71844
X45987Y-74384
X45987Y-76924
X45987Y-79464
X45987Y-82004
X45987Y-84544
X45987Y-87084
X58687Y-69304
X58687Y-71844
X58687Y-74384
X58687Y-76924
X58687Y-79464
X58687Y-82004
X58687Y-84544
X58687Y-87084
X187642Y-69494
X187642Y-72034
X187642Y-74574
X187642Y-77114
X187642Y-79654
X187642Y-82194
X187642Y-84734
X187642Y-87274
X200343Y-69494
X200343Y-72034
X200343Y-74574
X200343Y-77114
X200343Y-79654
X200343Y-82194
X200343Y-84734
X200343Y-87274
X87884Y-55509
X87884Y-58049
T5
X186881Y-165710
X189381Y-165710
X191881Y-165710
X194381Y-165710
X49797Y-63259
X52297Y-63259
X54797Y-63259
X57297Y-63259
X45225Y-165519
X47725Y-165519
X50225Y-165519
X52725Y-165519
X191453Y-63449
X193953Y-63449
X196453Y-63449
X198953Y-63449
T6
X101943Y-110111
X101943Y-116611
X106443Y-110111
X106443Y-116611
X211366Y-165976
X213906Y-165976
X216446Y-165976
X218986Y-165976
X243662Y-122227
X243662Y-128727
X248162Y-122227
X248162Y-128727
X69710Y-165786
X72250Y-165786
X74790Y-165786
X77330Y-165786
X101956Y-81028
X101956Y-87528
X106456Y-81028
X106456Y-87528
X87655Y-165671
X90195Y-165671
X92735Y-165671
X95275Y-165671
X97815Y-165671
X100355Y-165671
X101956Y-69471
X101956Y-75971
X106456Y-69471
X106456Y-75971
X102006Y-122037
X102006Y-128537
X106506Y-122037
X106506Y-128537
X243611Y-81219
X243611Y-87719
X248111Y-81219
X248111Y-87719
X223177Y-166014
X225717Y-166014
X229311Y-165862
X231851Y-165862
X234391Y-165862
X236931Y-165862
X239471Y-165862
X242011Y-165862
X81521Y-165824
X84061Y-165824
X243599Y-110302
X243599Y-116802
X248099Y-110302
X248099Y-116802
X243611Y-69662
X243611Y-76162
X248111Y-69662
X248111Y-76162
T7
X89624Y-44818
X89624Y-47358
X89624Y-49898
X231280Y-45009
X231280Y-47549
X231280Y-50089
T8
X104115Y-94242
X104115Y-98742
X104115Y-103242
X245770Y-94433
X245770Y-98933
X245770Y-103433
X204251Y-62665
X204251Y-138103
X235747Y-62665
X235747Y-138103
X62595Y-62475
X62595Y-137913
X94091Y-62475
X94091Y-137913
T6
G00X95783Y-47596
M15
G01X95783Y-45596
M16
G05
G00X99783Y-41896
M15
G01X97783Y-41896
M16
G05
G00X101783Y-47596
M15
G01X101783Y-45596
M16
G05
G00X237439Y-47787
M15
G01X237439Y-45787
M16
G05
G00X241439Y-42087
M15
G01X239439Y-42087
M16
G05
G00X243439Y-47787
M15
G01X243439Y-45787
M16
G05
T0
M30
