G04 #@! TF.GenerationSoftware,KiCad,Pcbnew,(5.1.5)-3*
G04 #@! TF.CreationDate,2020-07-18T18:41:22+07:00*
G04 #@! TF.ProjectId,control_step_motor,636f6e74-726f-46c5-9f73-7465705f6d6f,rev?*
G04 #@! TF.SameCoordinates,Original*
G04 #@! TF.FileFunction,Copper,L1,Top*
G04 #@! TF.FilePolarity,Positive*
%FSLAX46Y46*%
G04 Gerber Fmt 4.6, Leading zero omitted, Abs format (unit mm)*
G04 Created by KiCad (PCBNEW (5.1.5)-3) date 2020-07-18 18:41:22*
%MOMM*%
%LPD*%
G04 APERTURE LIST*
%ADD10C,1.524000*%
%ADD11C,1.530000*%
%ADD12R,1.530000X1.530000*%
%ADD13C,3.000000*%
%ADD14R,3.500000X3.500000*%
%ADD15C,0.100000*%
%ADD16C,1.600000*%
%ADD17O,1.600000X1.600000*%
%ADD18C,1.700000*%
%ADD19R,1.600000X1.600000*%
%ADD20R,1.905000X2.000000*%
%ADD21O,1.905000X2.000000*%
%ADD22R,3.000000X3.000000*%
%ADD23R,1.700000X1.700000*%
%ADD24O,1.700000X1.700000*%
%ADD25O,1.950000X1.700000*%
%ADD26R,1.800000X1.800000*%
%ADD27O,1.800000X1.800000*%
%ADD28C,1.800000*%
%ADD29C,1.000000*%
%ADD30C,1.000000*%
%ADD31C,0.800000*%
G04 APERTURE END LIST*
D10*
X127934720Y-74498200D03*
X130474720Y-74498200D03*
X133014720Y-74498200D03*
X135554720Y-74498200D03*
X138094720Y-74498200D03*
X140634720Y-74498200D03*
X143174720Y-74498200D03*
X145714720Y-74498200D03*
X148254720Y-74498200D03*
X150794720Y-74498200D03*
X153334720Y-74498200D03*
X155874720Y-74498200D03*
X158414720Y-74498200D03*
X160954720Y-74498200D03*
X163494720Y-74498200D03*
X166034720Y-74498200D03*
D11*
X173062900Y-61709300D03*
X175602900Y-61709300D03*
X178142900Y-61709300D03*
X180682900Y-61709300D03*
X183222900Y-61709300D03*
X185762900Y-61709300D03*
X188302900Y-61709300D03*
X190842900Y-61709300D03*
X190842900Y-74409300D03*
X188302900Y-74409300D03*
X185762900Y-74409300D03*
X183222900Y-74409300D03*
X180682900Y-74409300D03*
X178142900Y-74409300D03*
X175602900Y-74409300D03*
D12*
X173062900Y-74409300D03*
D10*
X127949001Y-78571401D03*
X130489001Y-78571401D03*
X133029001Y-78571401D03*
X135569001Y-78571401D03*
X138109001Y-78571401D03*
X140649001Y-78571401D03*
X143189001Y-78571401D03*
X145729001Y-78571401D03*
X148269001Y-78571401D03*
X150809001Y-78571401D03*
X153349001Y-78571401D03*
X155889001Y-78571401D03*
X158429001Y-78571401D03*
X160969001Y-78571401D03*
X163509001Y-78571401D03*
X166049001Y-78571401D03*
D13*
X122234001Y-78317401D03*
X197672001Y-78317401D03*
X197672001Y-109813401D03*
X122234001Y-109813401D03*
D14*
X213550500Y-111506000D03*
G04 #@! TA.AperFunction,ComponentPad*
D15*
G36*
X214624013Y-116009611D02*
G01*
X214696818Y-116020411D01*
X214768214Y-116038295D01*
X214837513Y-116063090D01*
X214904048Y-116094559D01*
X214967178Y-116132398D01*
X215026295Y-116176242D01*
X215080830Y-116225670D01*
X215130258Y-116280205D01*
X215174102Y-116339322D01*
X215211941Y-116402452D01*
X215243410Y-116468987D01*
X215268205Y-116538286D01*
X215286089Y-116609682D01*
X215296889Y-116682487D01*
X215300500Y-116756000D01*
X215300500Y-118256000D01*
X215296889Y-118329513D01*
X215286089Y-118402318D01*
X215268205Y-118473714D01*
X215243410Y-118543013D01*
X215211941Y-118609548D01*
X215174102Y-118672678D01*
X215130258Y-118731795D01*
X215080830Y-118786330D01*
X215026295Y-118835758D01*
X214967178Y-118879602D01*
X214904048Y-118917441D01*
X214837513Y-118948910D01*
X214768214Y-118973705D01*
X214696818Y-118991589D01*
X214624013Y-119002389D01*
X214550500Y-119006000D01*
X212550500Y-119006000D01*
X212476987Y-119002389D01*
X212404182Y-118991589D01*
X212332786Y-118973705D01*
X212263487Y-118948910D01*
X212196952Y-118917441D01*
X212133822Y-118879602D01*
X212074705Y-118835758D01*
X212020170Y-118786330D01*
X211970742Y-118731795D01*
X211926898Y-118672678D01*
X211889059Y-118609548D01*
X211857590Y-118543013D01*
X211832795Y-118473714D01*
X211814911Y-118402318D01*
X211804111Y-118329513D01*
X211800500Y-118256000D01*
X211800500Y-116756000D01*
X211804111Y-116682487D01*
X211814911Y-116609682D01*
X211832795Y-116538286D01*
X211857590Y-116468987D01*
X211889059Y-116402452D01*
X211926898Y-116339322D01*
X211970742Y-116280205D01*
X212020170Y-116225670D01*
X212074705Y-116176242D01*
X212133822Y-116132398D01*
X212196952Y-116094559D01*
X212263487Y-116063090D01*
X212332786Y-116038295D01*
X212404182Y-116020411D01*
X212476987Y-116009611D01*
X212550500Y-116006000D01*
X214550500Y-116006000D01*
X214624013Y-116009611D01*
G37*
G04 #@! TD.AperFunction*
G04 #@! TA.AperFunction,ComponentPad*
G36*
X219211265Y-112760213D02*
G01*
X219296204Y-112772813D01*
X219379499Y-112793677D01*
X219460348Y-112822605D01*
X219537972Y-112859319D01*
X219611624Y-112903464D01*
X219680594Y-112954616D01*
X219744218Y-113012282D01*
X219801884Y-113075906D01*
X219853036Y-113144876D01*
X219897181Y-113218528D01*
X219933895Y-113296152D01*
X219962823Y-113377001D01*
X219983687Y-113460296D01*
X219996287Y-113545235D01*
X220000500Y-113631000D01*
X220000500Y-115381000D01*
X219996287Y-115466765D01*
X219983687Y-115551704D01*
X219962823Y-115634999D01*
X219933895Y-115715848D01*
X219897181Y-115793472D01*
X219853036Y-115867124D01*
X219801884Y-115936094D01*
X219744218Y-115999718D01*
X219680594Y-116057384D01*
X219611624Y-116108536D01*
X219537972Y-116152681D01*
X219460348Y-116189395D01*
X219379499Y-116218323D01*
X219296204Y-116239187D01*
X219211265Y-116251787D01*
X219125500Y-116256000D01*
X217375500Y-116256000D01*
X217289735Y-116251787D01*
X217204796Y-116239187D01*
X217121501Y-116218323D01*
X217040652Y-116189395D01*
X216963028Y-116152681D01*
X216889376Y-116108536D01*
X216820406Y-116057384D01*
X216756782Y-115999718D01*
X216699116Y-115936094D01*
X216647964Y-115867124D01*
X216603819Y-115793472D01*
X216567105Y-115715848D01*
X216538177Y-115634999D01*
X216517313Y-115551704D01*
X216504713Y-115466765D01*
X216500500Y-115381000D01*
X216500500Y-113631000D01*
X216504713Y-113545235D01*
X216517313Y-113460296D01*
X216538177Y-113377001D01*
X216567105Y-113296152D01*
X216603819Y-113218528D01*
X216647964Y-113144876D01*
X216699116Y-113075906D01*
X216756782Y-113012282D01*
X216820406Y-112954616D01*
X216889376Y-112903464D01*
X216963028Y-112859319D01*
X217040652Y-112822605D01*
X217121501Y-112793677D01*
X217204796Y-112772813D01*
X217289735Y-112760213D01*
X217375500Y-112756000D01*
X219125500Y-112756000D01*
X219211265Y-112760213D01*
G37*
G04 #@! TD.AperFunction*
D16*
X160489900Y-99974400D03*
D17*
X160489900Y-107594400D03*
D16*
X163525200Y-99974400D03*
D17*
X163525200Y-107594400D03*
D18*
X179118400Y-122178200D03*
X172618400Y-122178200D03*
X179118400Y-117678200D03*
X172618400Y-117678200D03*
D19*
X116598700Y-113385600D03*
D17*
X101358700Y-80365600D03*
X116598700Y-110845600D03*
X101358700Y-82905600D03*
X116598700Y-108305600D03*
X101358700Y-85445600D03*
X116598700Y-105765600D03*
X101358700Y-87985600D03*
X116598700Y-103225600D03*
X101358700Y-90525600D03*
X116598700Y-100685600D03*
X101358700Y-93065600D03*
X116598700Y-98145600D03*
X101358700Y-95605600D03*
X116598700Y-95605600D03*
X101358700Y-98145600D03*
X116598700Y-93065600D03*
X101358700Y-100685600D03*
X116598700Y-90525600D03*
X101358700Y-103225600D03*
X116598700Y-87985600D03*
X101358700Y-105765600D03*
X116598700Y-85445600D03*
X101358700Y-108305600D03*
X116598700Y-82905600D03*
X101358700Y-110845600D03*
X116598700Y-80365600D03*
X101358700Y-113385600D03*
X116598700Y-77825600D03*
X101358700Y-77825600D03*
D20*
X210248500Y-105346500D03*
D21*
X212788500Y-105346500D03*
X215328500Y-105346500D03*
D22*
X165904400Y-119837200D03*
D13*
X161404400Y-119837200D03*
X156904400Y-119837200D03*
D18*
X150035400Y-122165500D03*
X143535400Y-122165500D03*
X150035400Y-117665500D03*
X143535400Y-117665500D03*
X184175400Y-117678200D03*
X190675400Y-117678200D03*
X184175400Y-122178200D03*
X190675400Y-122178200D03*
X131610100Y-117729000D03*
X138110100Y-117729000D03*
X131610100Y-122229000D03*
X138110100Y-122229000D03*
D23*
X94322900Y-99783900D03*
D24*
X94322900Y-97243900D03*
D23*
X94475300Y-116078000D03*
D24*
X94475300Y-113538000D03*
X94475300Y-110998000D03*
X94475300Y-108458000D03*
X94475300Y-105918000D03*
X94475300Y-103378000D03*
D23*
X94361000Y-93052900D03*
D24*
X94361000Y-90512900D03*
X94361000Y-87972900D03*
X94361000Y-85432900D03*
G04 #@! TA.AperFunction,ComponentPad*
D15*
G36*
X197637604Y-64670504D02*
G01*
X197661873Y-64674104D01*
X197685671Y-64680065D01*
X197708771Y-64688330D01*
X197730949Y-64698820D01*
X197751993Y-64711433D01*
X197771698Y-64726047D01*
X197789877Y-64742523D01*
X197806353Y-64760702D01*
X197820967Y-64780407D01*
X197833580Y-64801451D01*
X197844070Y-64823629D01*
X197852335Y-64846729D01*
X197858296Y-64870527D01*
X197861896Y-64894796D01*
X197863100Y-64919300D01*
X197863100Y-66119300D01*
X197861896Y-66143804D01*
X197858296Y-66168073D01*
X197852335Y-66191871D01*
X197844070Y-66214971D01*
X197833580Y-66237149D01*
X197820967Y-66258193D01*
X197806353Y-66277898D01*
X197789877Y-66296077D01*
X197771698Y-66312553D01*
X197751993Y-66327167D01*
X197730949Y-66339780D01*
X197708771Y-66350270D01*
X197685671Y-66358535D01*
X197661873Y-66364496D01*
X197637604Y-66368096D01*
X197613100Y-66369300D01*
X196163100Y-66369300D01*
X196138596Y-66368096D01*
X196114327Y-66364496D01*
X196090529Y-66358535D01*
X196067429Y-66350270D01*
X196045251Y-66339780D01*
X196024207Y-66327167D01*
X196004502Y-66312553D01*
X195986323Y-66296077D01*
X195969847Y-66277898D01*
X195955233Y-66258193D01*
X195942620Y-66237149D01*
X195932130Y-66214971D01*
X195923865Y-66191871D01*
X195917904Y-66168073D01*
X195914304Y-66143804D01*
X195913100Y-66119300D01*
X195913100Y-64919300D01*
X195914304Y-64894796D01*
X195917904Y-64870527D01*
X195923865Y-64846729D01*
X195932130Y-64823629D01*
X195942620Y-64801451D01*
X195955233Y-64780407D01*
X195969847Y-64760702D01*
X195986323Y-64742523D01*
X196004502Y-64726047D01*
X196024207Y-64711433D01*
X196045251Y-64698820D01*
X196067429Y-64688330D01*
X196090529Y-64680065D01*
X196114327Y-64674104D01*
X196138596Y-64670504D01*
X196163100Y-64669300D01*
X197613100Y-64669300D01*
X197637604Y-64670504D01*
G37*
G04 #@! TD.AperFunction*
D25*
X196888100Y-68019300D03*
X196888100Y-70519300D03*
X196888100Y-73019300D03*
D17*
X154508200Y-99987100D03*
D16*
X154508200Y-107607100D03*
D17*
X169545000Y-99987100D03*
D16*
X169545000Y-107607100D03*
D17*
X157518100Y-99987100D03*
D16*
X157518100Y-107607100D03*
D17*
X166547800Y-99974400D03*
D16*
X166547800Y-107594400D03*
X172516800Y-107607100D03*
D17*
X172516800Y-99987100D03*
D16*
X181178200Y-70967600D03*
D17*
X173558200Y-70967600D03*
D16*
X209664300Y-96166300D03*
D19*
X209664300Y-98666300D03*
X216306400Y-98539300D03*
D16*
X216306400Y-96039300D03*
D19*
X110286800Y-64160400D03*
D16*
X106786800Y-64160400D03*
D26*
X205740000Y-119722900D03*
D27*
X205740000Y-109562900D03*
D26*
X204637640Y-103606600D03*
D28*
X202097640Y-103606600D03*
G04 #@! TA.AperFunction,ComponentPad*
D15*
G36*
X95377204Y-60098504D02*
G01*
X95401473Y-60102104D01*
X95425271Y-60108065D01*
X95448371Y-60116330D01*
X95470549Y-60126820D01*
X95491593Y-60139433D01*
X95511298Y-60154047D01*
X95529477Y-60170523D01*
X95545953Y-60188702D01*
X95560567Y-60208407D01*
X95573180Y-60229451D01*
X95583670Y-60251629D01*
X95591935Y-60274729D01*
X95597896Y-60298527D01*
X95601496Y-60322796D01*
X95602700Y-60347300D01*
X95602700Y-61547300D01*
X95601496Y-61571804D01*
X95597896Y-61596073D01*
X95591935Y-61619871D01*
X95583670Y-61642971D01*
X95573180Y-61665149D01*
X95560567Y-61686193D01*
X95545953Y-61705898D01*
X95529477Y-61724077D01*
X95511298Y-61740553D01*
X95491593Y-61755167D01*
X95470549Y-61767780D01*
X95448371Y-61778270D01*
X95425271Y-61786535D01*
X95401473Y-61792496D01*
X95377204Y-61796096D01*
X95352700Y-61797300D01*
X93902700Y-61797300D01*
X93878196Y-61796096D01*
X93853927Y-61792496D01*
X93830129Y-61786535D01*
X93807029Y-61778270D01*
X93784851Y-61767780D01*
X93763807Y-61755167D01*
X93744102Y-61740553D01*
X93725923Y-61724077D01*
X93709447Y-61705898D01*
X93694833Y-61686193D01*
X93682220Y-61665149D01*
X93671730Y-61642971D01*
X93663465Y-61619871D01*
X93657504Y-61596073D01*
X93653904Y-61571804D01*
X93652700Y-61547300D01*
X93652700Y-60347300D01*
X93653904Y-60322796D01*
X93657504Y-60298527D01*
X93663465Y-60274729D01*
X93671730Y-60251629D01*
X93682220Y-60229451D01*
X93694833Y-60208407D01*
X93709447Y-60188702D01*
X93725923Y-60170523D01*
X93744102Y-60154047D01*
X93763807Y-60139433D01*
X93784851Y-60126820D01*
X93807029Y-60116330D01*
X93830129Y-60108065D01*
X93853927Y-60102104D01*
X93878196Y-60098504D01*
X93902700Y-60097300D01*
X95352700Y-60097300D01*
X95377204Y-60098504D01*
G37*
G04 #@! TD.AperFunction*
D25*
X94627700Y-63447300D03*
X94627700Y-65947300D03*
X94627700Y-68447300D03*
D29*
X213042500Y-88493600D03*
X213042500Y-93827600D03*
X110172500Y-103568500D03*
X110147102Y-119545100D03*
X108712000Y-95872300D03*
X103657400Y-95808800D03*
X110934500Y-98475800D03*
X104254300Y-98475800D03*
X120688100Y-87998300D03*
X120599200Y-102984300D03*
X122770899Y-102870001D03*
X122859800Y-87934800D03*
X129451100Y-87884000D03*
X129438400Y-102514400D03*
X131419600Y-88112600D03*
X115785900Y-75526900D03*
X101358700Y-75552300D03*
X131495800Y-102616000D03*
X105676700Y-113436400D03*
X105727500Y-121208800D03*
X169532300Y-94272100D03*
X169494200Y-82372200D03*
X127393700Y-87947500D03*
X127406398Y-102565200D03*
X125425200Y-88099900D03*
X125387100Y-102793800D03*
X219760800Y-108153200D03*
X207543400Y-108127800D03*
D30*
X213042500Y-88493600D02*
X213042500Y-93827600D01*
X110172500Y-103568500D02*
X110172500Y-119519702D01*
X110172500Y-119519702D02*
X110147102Y-119545100D01*
X108712000Y-95872300D02*
X103720900Y-95872300D01*
X103720900Y-95872300D02*
X103657400Y-95808800D01*
X110934500Y-98475800D02*
X104254300Y-98475800D01*
X120688100Y-102895400D02*
X120599200Y-102984300D01*
X120688100Y-87998300D02*
X120688100Y-102895400D01*
X122770899Y-102870001D02*
X122770899Y-88023701D01*
X122770899Y-88023701D02*
X122859800Y-87934800D01*
D31*
X129451100Y-102501700D02*
X129438400Y-102514400D01*
X129451100Y-87884000D02*
X129451100Y-102501700D01*
D30*
X115785900Y-75526900D02*
X101384100Y-75526900D01*
X101384100Y-75526900D02*
X101358700Y-75552300D01*
X131419600Y-88112600D02*
X131419600Y-102539800D01*
X131419600Y-102539800D02*
X131495800Y-102616000D01*
D31*
X105676700Y-121158000D02*
X105727500Y-121208800D01*
X105676700Y-113436400D02*
X105676700Y-121158000D01*
D30*
X169532300Y-82410300D02*
X169494200Y-82372200D01*
X169532300Y-94272100D02*
X169532300Y-82410300D01*
X127393700Y-102552502D02*
X127406398Y-102565200D01*
X127393700Y-87947500D02*
X127393700Y-102552502D01*
X125425200Y-102755700D02*
X125387100Y-102793800D01*
X125425200Y-88099900D02*
X125425200Y-102755700D01*
X207568800Y-108153200D02*
X207543400Y-108127800D01*
X219760800Y-108153200D02*
X207568800Y-108153200D01*
M02*
