G04 #@! TF.GenerationSoftware,KiCad,Pcbnew,(5.1.5)-3*
G04 #@! TF.CreationDate,2020-07-18T18:41:23+07:00*
G04 #@! TF.ProjectId,control_step_motor,636f6e74-726f-46c5-9f73-7465705f6d6f,rev?*
G04 #@! TF.SameCoordinates,Original*
G04 #@! TF.FileFunction,Copper,L2,Bot*
G04 #@! TF.FilePolarity,Positive*
%FSLAX46Y46*%
G04 Gerber Fmt 4.6, Leading zero omitted, Abs format (unit mm)*
G04 Created by KiCad (PCBNEW (5.1.5)-3) date 2020-07-18 18:41:23*
%MOMM*%
%LPD*%
G04 APERTURE LIST*
%ADD10C,0.250000*%
%ADD11C,0.750000*%
%ADD12C,1.524000*%
%ADD13C,1.530000*%
%ADD14R,1.530000X1.530000*%
%ADD15C,3.000000*%
%ADD16R,3.500000X3.500000*%
%ADD17C,0.100000*%
%ADD18C,1.600000*%
%ADD19O,1.600000X1.600000*%
%ADD20C,1.700000*%
%ADD21R,1.600000X1.600000*%
%ADD22R,1.905000X2.000000*%
%ADD23O,1.905000X2.000000*%
%ADD24R,3.000000X3.000000*%
%ADD25R,1.700000X1.700000*%
%ADD26O,1.700000X1.700000*%
%ADD27O,1.950000X1.700000*%
%ADD28R,1.800000X1.800000*%
%ADD29O,1.800000X1.800000*%
%ADD30C,1.800000*%
%ADD31C,1.000000*%
%ADD32C,0.200000*%
%ADD33C,1.000000*%
%ADD34C,1.500000*%
%ADD35C,0.800000*%
%ADD36C,0.254000*%
G04 APERTURE END LIST*
D10*
X219576138Y-64765180D02*
X220147566Y-64765180D01*
X219861852Y-64765180D02*
X219861852Y-63765180D01*
X219957090Y-63908038D01*
X220052328Y-64003276D01*
X220147566Y-64050895D01*
X218957090Y-63765180D02*
X218861852Y-63765180D01*
X218766614Y-63812800D01*
X218718995Y-63860419D01*
X218671376Y-63955657D01*
X218623757Y-64146133D01*
X218623757Y-64384228D01*
X218671376Y-64574704D01*
X218718995Y-64669942D01*
X218766614Y-64717561D01*
X218861852Y-64765180D01*
X218957090Y-64765180D01*
X219052328Y-64717561D01*
X219099947Y-64669942D01*
X219147566Y-64574704D01*
X219195185Y-64384228D01*
X219195185Y-64146133D01*
X219147566Y-63955657D01*
X219099947Y-63860419D01*
X219052328Y-63812800D01*
X218957090Y-63765180D01*
X217480900Y-63717561D02*
X218338042Y-65003276D01*
X216957090Y-63765180D02*
X216861852Y-63765180D01*
X216766614Y-63812800D01*
X216718995Y-63860419D01*
X216671376Y-63955657D01*
X216623757Y-64146133D01*
X216623757Y-64384228D01*
X216671376Y-64574704D01*
X216718995Y-64669942D01*
X216766614Y-64717561D01*
X216861852Y-64765180D01*
X216957090Y-64765180D01*
X217052328Y-64717561D01*
X217099947Y-64669942D01*
X217147566Y-64574704D01*
X217195185Y-64384228D01*
X217195185Y-64146133D01*
X217147566Y-63955657D01*
X217099947Y-63860419D01*
X217052328Y-63812800D01*
X216957090Y-63765180D01*
X216290423Y-63765180D02*
X215623757Y-63765180D01*
X216052328Y-64765180D01*
X214528519Y-63717561D02*
X215385661Y-65003276D01*
X214242804Y-63860419D02*
X214195185Y-63812800D01*
X214099947Y-63765180D01*
X213861852Y-63765180D01*
X213766614Y-63812800D01*
X213718995Y-63860419D01*
X213671376Y-63955657D01*
X213671376Y-64050895D01*
X213718995Y-64193752D01*
X214290423Y-64765180D01*
X213671376Y-64765180D01*
X213052328Y-63765180D02*
X212957090Y-63765180D01*
X212861852Y-63812800D01*
X212814233Y-63860419D01*
X212766614Y-63955657D01*
X212718995Y-64146133D01*
X212718995Y-64384228D01*
X212766614Y-64574704D01*
X212814233Y-64669942D01*
X212861852Y-64717561D01*
X212957090Y-64765180D01*
X213052328Y-64765180D01*
X213147566Y-64717561D01*
X213195185Y-64669942D01*
X213242804Y-64574704D01*
X213290423Y-64384228D01*
X213290423Y-64146133D01*
X213242804Y-63955657D01*
X213195185Y-63860419D01*
X213147566Y-63812800D01*
X213052328Y-63765180D01*
X212338042Y-63860419D02*
X212290423Y-63812800D01*
X212195185Y-63765180D01*
X211957090Y-63765180D01*
X211861852Y-63812800D01*
X211814233Y-63860419D01*
X211766614Y-63955657D01*
X211766614Y-64050895D01*
X211814233Y-64193752D01*
X212385661Y-64765180D01*
X211766614Y-64765180D01*
X211147566Y-63765180D02*
X211052328Y-63765180D01*
X210957090Y-63812800D01*
X210909471Y-63860419D01*
X210861852Y-63955657D01*
X210814233Y-64146133D01*
X210814233Y-64384228D01*
X210861852Y-64574704D01*
X210909471Y-64669942D01*
X210957090Y-64717561D01*
X211052328Y-64765180D01*
X211147566Y-64765180D01*
X211242804Y-64717561D01*
X211290423Y-64669942D01*
X211338042Y-64574704D01*
X211385661Y-64384228D01*
X211385661Y-64146133D01*
X211338042Y-63955657D01*
X211290423Y-63860419D01*
X211242804Y-63812800D01*
X211147566Y-63765180D01*
D11*
X219925185Y-61707542D02*
X219925185Y-58707542D01*
X218782328Y-58707542D01*
X218496614Y-58850400D01*
X218353757Y-58993257D01*
X218210900Y-59278971D01*
X218210900Y-59707542D01*
X218353757Y-59993257D01*
X218496614Y-60136114D01*
X218782328Y-60278971D01*
X219925185Y-60278971D01*
X215068042Y-58707542D02*
X213353757Y-58707542D01*
X214210900Y-61707542D02*
X214210900Y-58707542D01*
X210068042Y-61707542D02*
X210068042Y-58707542D01*
X208353757Y-61707542D02*
X209639471Y-59993257D01*
X208353757Y-58707542D02*
X210068042Y-60421828D01*
D12*
X127934720Y-74498200D03*
X130474720Y-74498200D03*
X133014720Y-74498200D03*
X135554720Y-74498200D03*
X138094720Y-74498200D03*
X140634720Y-74498200D03*
X143174720Y-74498200D03*
X145714720Y-74498200D03*
X148254720Y-74498200D03*
X150794720Y-74498200D03*
X153334720Y-74498200D03*
X155874720Y-74498200D03*
X158414720Y-74498200D03*
X160954720Y-74498200D03*
X163494720Y-74498200D03*
X166034720Y-74498200D03*
D13*
X173062900Y-61709300D03*
X175602900Y-61709300D03*
X178142900Y-61709300D03*
X180682900Y-61709300D03*
X183222900Y-61709300D03*
X185762900Y-61709300D03*
X188302900Y-61709300D03*
X190842900Y-61709300D03*
X190842900Y-74409300D03*
X188302900Y-74409300D03*
X185762900Y-74409300D03*
X183222900Y-74409300D03*
X180682900Y-74409300D03*
X178142900Y-74409300D03*
X175602900Y-74409300D03*
D14*
X173062900Y-74409300D03*
D12*
X127949001Y-78571401D03*
X130489001Y-78571401D03*
X133029001Y-78571401D03*
X135569001Y-78571401D03*
X138109001Y-78571401D03*
X140649001Y-78571401D03*
X143189001Y-78571401D03*
X145729001Y-78571401D03*
X148269001Y-78571401D03*
X150809001Y-78571401D03*
X153349001Y-78571401D03*
X155889001Y-78571401D03*
X158429001Y-78571401D03*
X160969001Y-78571401D03*
X163509001Y-78571401D03*
X166049001Y-78571401D03*
D15*
X122234001Y-78317401D03*
X197672001Y-78317401D03*
X197672001Y-109813401D03*
X122234001Y-109813401D03*
D16*
X213550500Y-111506000D03*
G04 #@! TA.AperFunction,ComponentPad*
D17*
G36*
X214624013Y-116009611D02*
G01*
X214696818Y-116020411D01*
X214768214Y-116038295D01*
X214837513Y-116063090D01*
X214904048Y-116094559D01*
X214967178Y-116132398D01*
X215026295Y-116176242D01*
X215080830Y-116225670D01*
X215130258Y-116280205D01*
X215174102Y-116339322D01*
X215211941Y-116402452D01*
X215243410Y-116468987D01*
X215268205Y-116538286D01*
X215286089Y-116609682D01*
X215296889Y-116682487D01*
X215300500Y-116756000D01*
X215300500Y-118256000D01*
X215296889Y-118329513D01*
X215286089Y-118402318D01*
X215268205Y-118473714D01*
X215243410Y-118543013D01*
X215211941Y-118609548D01*
X215174102Y-118672678D01*
X215130258Y-118731795D01*
X215080830Y-118786330D01*
X215026295Y-118835758D01*
X214967178Y-118879602D01*
X214904048Y-118917441D01*
X214837513Y-118948910D01*
X214768214Y-118973705D01*
X214696818Y-118991589D01*
X214624013Y-119002389D01*
X214550500Y-119006000D01*
X212550500Y-119006000D01*
X212476987Y-119002389D01*
X212404182Y-118991589D01*
X212332786Y-118973705D01*
X212263487Y-118948910D01*
X212196952Y-118917441D01*
X212133822Y-118879602D01*
X212074705Y-118835758D01*
X212020170Y-118786330D01*
X211970742Y-118731795D01*
X211926898Y-118672678D01*
X211889059Y-118609548D01*
X211857590Y-118543013D01*
X211832795Y-118473714D01*
X211814911Y-118402318D01*
X211804111Y-118329513D01*
X211800500Y-118256000D01*
X211800500Y-116756000D01*
X211804111Y-116682487D01*
X211814911Y-116609682D01*
X211832795Y-116538286D01*
X211857590Y-116468987D01*
X211889059Y-116402452D01*
X211926898Y-116339322D01*
X211970742Y-116280205D01*
X212020170Y-116225670D01*
X212074705Y-116176242D01*
X212133822Y-116132398D01*
X212196952Y-116094559D01*
X212263487Y-116063090D01*
X212332786Y-116038295D01*
X212404182Y-116020411D01*
X212476987Y-116009611D01*
X212550500Y-116006000D01*
X214550500Y-116006000D01*
X214624013Y-116009611D01*
G37*
G04 #@! TD.AperFunction*
G04 #@! TA.AperFunction,ComponentPad*
G36*
X219211265Y-112760213D02*
G01*
X219296204Y-112772813D01*
X219379499Y-112793677D01*
X219460348Y-112822605D01*
X219537972Y-112859319D01*
X219611624Y-112903464D01*
X219680594Y-112954616D01*
X219744218Y-113012282D01*
X219801884Y-113075906D01*
X219853036Y-113144876D01*
X219897181Y-113218528D01*
X219933895Y-113296152D01*
X219962823Y-113377001D01*
X219983687Y-113460296D01*
X219996287Y-113545235D01*
X220000500Y-113631000D01*
X220000500Y-115381000D01*
X219996287Y-115466765D01*
X219983687Y-115551704D01*
X219962823Y-115634999D01*
X219933895Y-115715848D01*
X219897181Y-115793472D01*
X219853036Y-115867124D01*
X219801884Y-115936094D01*
X219744218Y-115999718D01*
X219680594Y-116057384D01*
X219611624Y-116108536D01*
X219537972Y-116152681D01*
X219460348Y-116189395D01*
X219379499Y-116218323D01*
X219296204Y-116239187D01*
X219211265Y-116251787D01*
X219125500Y-116256000D01*
X217375500Y-116256000D01*
X217289735Y-116251787D01*
X217204796Y-116239187D01*
X217121501Y-116218323D01*
X217040652Y-116189395D01*
X216963028Y-116152681D01*
X216889376Y-116108536D01*
X216820406Y-116057384D01*
X216756782Y-115999718D01*
X216699116Y-115936094D01*
X216647964Y-115867124D01*
X216603819Y-115793472D01*
X216567105Y-115715848D01*
X216538177Y-115634999D01*
X216517313Y-115551704D01*
X216504713Y-115466765D01*
X216500500Y-115381000D01*
X216500500Y-113631000D01*
X216504713Y-113545235D01*
X216517313Y-113460296D01*
X216538177Y-113377001D01*
X216567105Y-113296152D01*
X216603819Y-113218528D01*
X216647964Y-113144876D01*
X216699116Y-113075906D01*
X216756782Y-113012282D01*
X216820406Y-112954616D01*
X216889376Y-112903464D01*
X216963028Y-112859319D01*
X217040652Y-112822605D01*
X217121501Y-112793677D01*
X217204796Y-112772813D01*
X217289735Y-112760213D01*
X217375500Y-112756000D01*
X219125500Y-112756000D01*
X219211265Y-112760213D01*
G37*
G04 #@! TD.AperFunction*
D18*
X160489900Y-99974400D03*
D19*
X160489900Y-107594400D03*
D18*
X163525200Y-99974400D03*
D19*
X163525200Y-107594400D03*
D20*
X179118400Y-122178200D03*
X172618400Y-122178200D03*
X179118400Y-117678200D03*
X172618400Y-117678200D03*
D21*
X116598700Y-113385600D03*
D19*
X101358700Y-80365600D03*
X116598700Y-110845600D03*
X101358700Y-82905600D03*
X116598700Y-108305600D03*
X101358700Y-85445600D03*
X116598700Y-105765600D03*
X101358700Y-87985600D03*
X116598700Y-103225600D03*
X101358700Y-90525600D03*
X116598700Y-100685600D03*
X101358700Y-93065600D03*
X116598700Y-98145600D03*
X101358700Y-95605600D03*
X116598700Y-95605600D03*
X101358700Y-98145600D03*
X116598700Y-93065600D03*
X101358700Y-100685600D03*
X116598700Y-90525600D03*
X101358700Y-103225600D03*
X116598700Y-87985600D03*
X101358700Y-105765600D03*
X116598700Y-85445600D03*
X101358700Y-108305600D03*
X116598700Y-82905600D03*
X101358700Y-110845600D03*
X116598700Y-80365600D03*
X101358700Y-113385600D03*
X116598700Y-77825600D03*
X101358700Y-77825600D03*
D22*
X210248500Y-105346500D03*
D23*
X212788500Y-105346500D03*
X215328500Y-105346500D03*
D24*
X165904400Y-119837200D03*
D15*
X161404400Y-119837200D03*
X156904400Y-119837200D03*
D20*
X150035400Y-122165500D03*
X143535400Y-122165500D03*
X150035400Y-117665500D03*
X143535400Y-117665500D03*
X184175400Y-117678200D03*
X190675400Y-117678200D03*
X184175400Y-122178200D03*
X190675400Y-122178200D03*
X131610100Y-117729000D03*
X138110100Y-117729000D03*
X131610100Y-122229000D03*
X138110100Y-122229000D03*
D25*
X94322900Y-99783900D03*
D26*
X94322900Y-97243900D03*
D25*
X94475300Y-116078000D03*
D26*
X94475300Y-113538000D03*
X94475300Y-110998000D03*
X94475300Y-108458000D03*
X94475300Y-105918000D03*
X94475300Y-103378000D03*
D25*
X94361000Y-93052900D03*
D26*
X94361000Y-90512900D03*
X94361000Y-87972900D03*
X94361000Y-85432900D03*
G04 #@! TA.AperFunction,ComponentPad*
D17*
G36*
X197637604Y-64670504D02*
G01*
X197661873Y-64674104D01*
X197685671Y-64680065D01*
X197708771Y-64688330D01*
X197730949Y-64698820D01*
X197751993Y-64711433D01*
X197771698Y-64726047D01*
X197789877Y-64742523D01*
X197806353Y-64760702D01*
X197820967Y-64780407D01*
X197833580Y-64801451D01*
X197844070Y-64823629D01*
X197852335Y-64846729D01*
X197858296Y-64870527D01*
X197861896Y-64894796D01*
X197863100Y-64919300D01*
X197863100Y-66119300D01*
X197861896Y-66143804D01*
X197858296Y-66168073D01*
X197852335Y-66191871D01*
X197844070Y-66214971D01*
X197833580Y-66237149D01*
X197820967Y-66258193D01*
X197806353Y-66277898D01*
X197789877Y-66296077D01*
X197771698Y-66312553D01*
X197751993Y-66327167D01*
X197730949Y-66339780D01*
X197708771Y-66350270D01*
X197685671Y-66358535D01*
X197661873Y-66364496D01*
X197637604Y-66368096D01*
X197613100Y-66369300D01*
X196163100Y-66369300D01*
X196138596Y-66368096D01*
X196114327Y-66364496D01*
X196090529Y-66358535D01*
X196067429Y-66350270D01*
X196045251Y-66339780D01*
X196024207Y-66327167D01*
X196004502Y-66312553D01*
X195986323Y-66296077D01*
X195969847Y-66277898D01*
X195955233Y-66258193D01*
X195942620Y-66237149D01*
X195932130Y-66214971D01*
X195923865Y-66191871D01*
X195917904Y-66168073D01*
X195914304Y-66143804D01*
X195913100Y-66119300D01*
X195913100Y-64919300D01*
X195914304Y-64894796D01*
X195917904Y-64870527D01*
X195923865Y-64846729D01*
X195932130Y-64823629D01*
X195942620Y-64801451D01*
X195955233Y-64780407D01*
X195969847Y-64760702D01*
X195986323Y-64742523D01*
X196004502Y-64726047D01*
X196024207Y-64711433D01*
X196045251Y-64698820D01*
X196067429Y-64688330D01*
X196090529Y-64680065D01*
X196114327Y-64674104D01*
X196138596Y-64670504D01*
X196163100Y-64669300D01*
X197613100Y-64669300D01*
X197637604Y-64670504D01*
G37*
G04 #@! TD.AperFunction*
D27*
X196888100Y-68019300D03*
X196888100Y-70519300D03*
X196888100Y-73019300D03*
D19*
X154508200Y-99987100D03*
D18*
X154508200Y-107607100D03*
D19*
X169545000Y-99987100D03*
D18*
X169545000Y-107607100D03*
D19*
X157518100Y-99987100D03*
D18*
X157518100Y-107607100D03*
D19*
X166547800Y-99974400D03*
D18*
X166547800Y-107594400D03*
X172516800Y-107607100D03*
D19*
X172516800Y-99987100D03*
D18*
X181178200Y-70967600D03*
D19*
X173558200Y-70967600D03*
D18*
X209664300Y-96166300D03*
D21*
X209664300Y-98666300D03*
X216306400Y-98539300D03*
D18*
X216306400Y-96039300D03*
D21*
X110286800Y-64160400D03*
D18*
X106786800Y-64160400D03*
D28*
X205740000Y-119722900D03*
D29*
X205740000Y-109562900D03*
D28*
X204637640Y-103606600D03*
D30*
X202097640Y-103606600D03*
G04 #@! TA.AperFunction,ComponentPad*
D17*
G36*
X95377204Y-60098504D02*
G01*
X95401473Y-60102104D01*
X95425271Y-60108065D01*
X95448371Y-60116330D01*
X95470549Y-60126820D01*
X95491593Y-60139433D01*
X95511298Y-60154047D01*
X95529477Y-60170523D01*
X95545953Y-60188702D01*
X95560567Y-60208407D01*
X95573180Y-60229451D01*
X95583670Y-60251629D01*
X95591935Y-60274729D01*
X95597896Y-60298527D01*
X95601496Y-60322796D01*
X95602700Y-60347300D01*
X95602700Y-61547300D01*
X95601496Y-61571804D01*
X95597896Y-61596073D01*
X95591935Y-61619871D01*
X95583670Y-61642971D01*
X95573180Y-61665149D01*
X95560567Y-61686193D01*
X95545953Y-61705898D01*
X95529477Y-61724077D01*
X95511298Y-61740553D01*
X95491593Y-61755167D01*
X95470549Y-61767780D01*
X95448371Y-61778270D01*
X95425271Y-61786535D01*
X95401473Y-61792496D01*
X95377204Y-61796096D01*
X95352700Y-61797300D01*
X93902700Y-61797300D01*
X93878196Y-61796096D01*
X93853927Y-61792496D01*
X93830129Y-61786535D01*
X93807029Y-61778270D01*
X93784851Y-61767780D01*
X93763807Y-61755167D01*
X93744102Y-61740553D01*
X93725923Y-61724077D01*
X93709447Y-61705898D01*
X93694833Y-61686193D01*
X93682220Y-61665149D01*
X93671730Y-61642971D01*
X93663465Y-61619871D01*
X93657504Y-61596073D01*
X93653904Y-61571804D01*
X93652700Y-61547300D01*
X93652700Y-60347300D01*
X93653904Y-60322796D01*
X93657504Y-60298527D01*
X93663465Y-60274729D01*
X93671730Y-60251629D01*
X93682220Y-60229451D01*
X93694833Y-60208407D01*
X93709447Y-60188702D01*
X93725923Y-60170523D01*
X93744102Y-60154047D01*
X93763807Y-60139433D01*
X93784851Y-60126820D01*
X93807029Y-60116330D01*
X93830129Y-60108065D01*
X93853927Y-60102104D01*
X93878196Y-60098504D01*
X93902700Y-60097300D01*
X95352700Y-60097300D01*
X95377204Y-60098504D01*
G37*
G04 #@! TD.AperFunction*
D27*
X94627700Y-63447300D03*
X94627700Y-65947300D03*
X94627700Y-68447300D03*
D31*
X213042500Y-88493600D03*
X213042500Y-93827600D03*
X110172500Y-103568500D03*
X110147102Y-119545100D03*
X108712000Y-95872300D03*
X103657400Y-95808800D03*
X110934500Y-98475800D03*
X104254300Y-98475800D03*
X120688100Y-87998300D03*
X120599200Y-102984300D03*
X122770899Y-102870001D03*
X122859800Y-87934800D03*
X129451100Y-87884000D03*
X129438400Y-102514400D03*
X131419600Y-88112600D03*
X115785900Y-75526900D03*
X101358700Y-75552300D03*
X131495800Y-102616000D03*
X105676700Y-113436400D03*
X105727500Y-121208800D03*
X169532300Y-94272100D03*
X169494200Y-82372200D03*
X127393700Y-87947500D03*
X127406398Y-102565200D03*
X125425200Y-88099900D03*
X125387100Y-102793800D03*
X219760800Y-108153200D03*
X207543400Y-108127800D03*
D32*
X222770700Y-127749300D02*
X222770700Y-55303310D01*
X222796100Y-55227110D02*
X88272510Y-55227110D01*
X88272510Y-55227110D02*
X88272510Y-127792590D01*
X88272510Y-127792590D02*
X89662000Y-127792590D01*
X222758000Y-127787400D02*
X222783400Y-127762000D01*
X89649300Y-127787400D02*
X222758000Y-127787400D01*
D33*
X116598700Y-115185600D02*
X116598700Y-113385600D01*
X113902900Y-117881400D02*
X116598700Y-115185600D01*
X94475300Y-113538000D02*
X96024700Y-113538000D01*
X100368100Y-117881400D02*
X113902900Y-117881400D01*
X96024700Y-113538000D02*
X100368100Y-117881400D01*
X100838000Y-116128800D02*
X107429300Y-116128800D01*
X94475300Y-110998000D02*
X95707200Y-110998000D01*
X112712500Y-110845600D02*
X116598700Y-110845600D01*
X107429300Y-116128800D02*
X112712500Y-110845600D01*
X95707200Y-110998000D02*
X100838000Y-116128800D01*
D34*
X94373700Y-85445600D02*
X94361000Y-85432900D01*
X101358700Y-85445600D02*
X94373700Y-85445600D01*
X150035400Y-122165500D02*
X143535400Y-122165500D01*
X159904401Y-121337199D02*
X161404400Y-119837200D01*
X158226101Y-123015499D02*
X159904401Y-121337199D01*
X150885399Y-123015499D02*
X158226101Y-123015499D01*
X150035400Y-122165500D02*
X150885399Y-123015499D01*
X161404400Y-119837200D02*
X164595399Y-123028199D01*
X171768401Y-123028199D02*
X172618400Y-122178200D01*
X164595399Y-123028199D02*
X171768401Y-123028199D01*
X172618400Y-122178200D02*
X179118400Y-122178200D01*
X179118400Y-122178200D02*
X184175400Y-122178200D01*
X184175400Y-122178200D02*
X190675400Y-122178200D01*
D33*
X131610100Y-122229000D02*
X138110100Y-122229000D01*
X143471900Y-122229000D02*
X143535400Y-122165500D01*
X138110100Y-122229000D02*
X143471900Y-122229000D01*
X216179400Y-96166300D02*
X216306400Y-96039300D01*
D34*
X209791300Y-96039300D02*
X209664300Y-96166300D01*
X216306400Y-96039300D02*
X209791300Y-96039300D01*
X210703800Y-96166300D02*
X213042500Y-93827600D01*
X209664300Y-96166300D02*
X210703800Y-96166300D01*
X208532930Y-96166300D02*
X209664300Y-96166300D01*
X204637640Y-100061590D02*
X208532930Y-96166300D01*
X204637640Y-103606600D02*
X204637640Y-100061590D01*
X213550500Y-121412000D02*
X213550500Y-117506000D01*
X190675400Y-122178200D02*
X192652400Y-124155200D01*
X192652400Y-124155200D02*
X213042500Y-124155200D01*
X213042500Y-124155200D02*
X213563200Y-123634500D01*
X213563200Y-123634500D02*
X213563200Y-121424700D01*
X213563200Y-121424700D02*
X213550500Y-121412000D01*
X203276200Y-116611400D02*
X203276200Y-121500900D01*
X204038200Y-122262900D02*
X210293600Y-122262900D01*
X210293600Y-122262900D02*
X213550500Y-119006000D01*
X213550500Y-119006000D02*
X213550500Y-117506000D01*
X203276200Y-121500900D02*
X204038200Y-122262900D01*
X204637640Y-105750360D02*
X204637640Y-103606600D01*
X203263500Y-116582998D02*
X203263500Y-107124500D01*
X203263500Y-107124500D02*
X204637640Y-105750360D01*
D33*
X93237700Y-68447300D02*
X94627700Y-68447300D01*
X100906700Y-58280300D02*
X93433900Y-58280300D01*
X106786800Y-64160400D02*
X100906700Y-58280300D01*
X93433900Y-58280300D02*
X92189300Y-59524900D01*
X92189300Y-59524900D02*
X92189300Y-67398900D01*
X92189300Y-67398900D02*
X93237700Y-68447300D01*
X118313200Y-105765600D02*
X119037100Y-106489500D01*
X116598700Y-105765600D02*
X118313200Y-105765600D01*
X119037100Y-106489500D02*
X119037100Y-110858081D01*
X130408019Y-122229000D02*
X131610100Y-122229000D01*
X119037100Y-110858081D02*
X130408019Y-122229000D01*
X189687200Y-59055000D02*
X190842900Y-60210700D01*
X190842900Y-60210700D02*
X190842900Y-61709300D01*
X175602900Y-61709300D02*
X175602900Y-59715400D01*
X176263300Y-59055000D02*
X189687200Y-59055000D01*
X175602900Y-59715400D02*
X176263300Y-59055000D01*
D34*
X101358700Y-110845600D02*
X101155500Y-110642400D01*
X110629700Y-105765600D02*
X116598700Y-105765600D01*
X101358700Y-110845600D02*
X105549700Y-110845600D01*
X105549700Y-110845600D02*
X110629700Y-105765600D01*
D33*
X213042500Y-75222100D02*
X213042500Y-88493600D01*
X190842900Y-61709300D02*
X199529700Y-61709300D01*
X199529700Y-61709300D02*
X213042500Y-75222100D01*
X91427300Y-71647700D02*
X94627700Y-68447300D01*
X94322900Y-97243900D02*
X91427300Y-94348300D01*
X91427300Y-94348300D02*
X91427300Y-71647700D01*
D34*
X97053400Y-108458000D02*
X94475300Y-108458000D01*
X101358700Y-110845600D02*
X99441000Y-110845600D01*
X99441000Y-110845600D02*
X97053400Y-108458000D01*
D35*
X93332300Y-108458000D02*
X94475300Y-108458000D01*
X92240100Y-102057200D02*
X92240100Y-107365800D01*
X92646500Y-101650800D02*
X92240100Y-102057200D01*
X96659700Y-101650800D02*
X92646500Y-101650800D01*
X92240100Y-107365800D02*
X93332300Y-108458000D01*
X94322900Y-97243900D02*
X96405700Y-97243900D01*
X97320100Y-98158300D02*
X97320100Y-100990400D01*
X96405700Y-97243900D02*
X97320100Y-98158300D01*
X97320100Y-100990400D02*
X96659700Y-101650800D01*
D34*
X212788500Y-105346500D02*
X212788500Y-107057998D01*
X204279500Y-115608100D02*
X203276200Y-116611400D01*
X212788500Y-107057998D02*
X203263500Y-116582998D01*
X94373700Y-87985600D02*
X94361000Y-87972900D01*
X101358700Y-87985600D02*
X94373700Y-87985600D01*
D33*
X110515400Y-103225600D02*
X110172500Y-103568500D01*
X116598700Y-103225600D02*
X110515400Y-103225600D01*
X109581417Y-119545100D02*
X110147102Y-119545100D01*
X91274900Y-99783900D02*
X90271600Y-100787200D01*
X92163900Y-119545100D02*
X109581417Y-119545100D01*
X94322900Y-99783900D02*
X91274900Y-99783900D01*
X90271600Y-100787200D02*
X90271600Y-117652800D01*
X90271600Y-117652800D02*
X92163900Y-119545100D01*
D34*
X94373700Y-90525600D02*
X94361000Y-90512900D01*
X101358700Y-90525600D02*
X94373700Y-90525600D01*
D33*
X117730070Y-98145600D02*
X116598700Y-98145600D01*
X188302900Y-77889100D02*
X175996600Y-90195400D01*
X175996600Y-90195400D02*
X148196300Y-90195400D01*
X188302900Y-74409300D02*
X188302900Y-77889100D01*
X140246100Y-98145600D02*
X117730070Y-98145600D01*
X148196300Y-90195400D02*
X140246100Y-98145600D01*
D35*
X100812600Y-93065600D02*
X101358700Y-93065600D01*
D34*
X94373700Y-93065600D02*
X94361000Y-93052900D01*
X101358700Y-93065600D02*
X94373700Y-93065600D01*
D33*
X190077901Y-75174299D02*
X190842900Y-74409300D01*
X190077901Y-79543099D02*
X190077901Y-75174299D01*
X116611400Y-100672900D02*
X141325600Y-100672900D01*
X116598700Y-100685600D02*
X116611400Y-100672900D01*
X141325600Y-100672900D02*
X149682200Y-92316300D01*
X149682200Y-92316300D02*
X177304700Y-92316300D01*
X177304700Y-92316300D02*
X190077901Y-79543099D01*
X108712000Y-75556600D02*
X108712000Y-95872300D01*
X94627700Y-63447300D02*
X96602700Y-63447300D01*
X96602700Y-63447300D02*
X108712000Y-75556600D01*
X101561900Y-95808800D02*
X101358700Y-95605600D01*
D34*
X103454200Y-95605600D02*
X103657400Y-95808800D01*
X101358700Y-95605600D02*
X103454200Y-95605600D01*
D33*
X175602900Y-81915000D02*
X173050200Y-84467700D01*
X143230600Y-84467700D02*
X137198100Y-90500200D01*
X116624100Y-90500200D02*
X116598700Y-90525600D01*
X173050200Y-84467700D02*
X143230600Y-84467700D01*
X175602900Y-74409300D02*
X175602900Y-81915000D01*
X137198100Y-90500200D02*
X116624100Y-90500200D01*
X110934500Y-75120500D02*
X110934500Y-98475800D01*
X94627700Y-60947300D02*
X96761300Y-60947300D01*
X96761300Y-60947300D02*
X110934500Y-75120500D01*
D34*
X103924100Y-98145600D02*
X104254300Y-98475800D01*
X101358700Y-98145600D02*
X103924100Y-98145600D01*
D33*
X116687600Y-92976700D02*
X116598700Y-93065600D01*
X173609000Y-86410800D02*
X144665700Y-86410800D01*
X178142900Y-74409300D02*
X178142900Y-81876900D01*
X138099800Y-92976700D02*
X116687600Y-92976700D01*
X178142900Y-81876900D02*
X173609000Y-86410800D01*
X144665700Y-86410800D02*
X138099800Y-92976700D01*
X116789200Y-95415100D02*
X116598700Y-95605600D01*
X180682900Y-82092800D02*
X174713900Y-88061800D01*
X180682900Y-74409300D02*
X180682900Y-82092800D01*
X174713900Y-88061800D02*
X146494500Y-88061800D01*
X146494500Y-88061800D02*
X139141200Y-95415100D01*
X139141200Y-95415100D02*
X116789200Y-95415100D01*
D34*
X131610100Y-117729000D02*
X138110100Y-117729000D01*
X157480000Y-114185700D02*
X157480000Y-107645200D01*
X138110100Y-117729000D02*
X140269100Y-119888000D01*
X157480000Y-107645200D02*
X157518100Y-107607100D01*
X151777700Y-119888000D02*
X157480000Y-114185700D01*
X140269100Y-119888000D02*
X151777700Y-119888000D01*
D33*
X116598700Y-87985600D02*
X120675400Y-87985600D01*
X120675400Y-87985600D02*
X120688100Y-87998300D01*
X120599200Y-103119271D02*
X120599200Y-102984300D01*
X131610100Y-117729000D02*
X131610100Y-114130171D01*
X131610100Y-114130171D02*
X120599200Y-103119271D01*
D34*
X101320600Y-105803700D02*
X101358700Y-105765600D01*
D33*
X170027600Y-71843900D02*
X168859200Y-71843900D01*
X199402700Y-73621900D02*
X198145400Y-74879200D01*
X198577200Y-63500000D02*
X199402700Y-64325500D01*
X188302900Y-61709300D02*
X188302900Y-61772800D01*
X173570900Y-68300600D02*
X170027600Y-71843900D01*
X199402700Y-64325500D02*
X199402700Y-73621900D01*
X190030100Y-63500000D02*
X198577200Y-63500000D01*
X181686200Y-68300600D02*
X173570900Y-68300600D01*
X188302900Y-61772800D02*
X190030100Y-63500000D01*
X194691000Y-74879200D02*
X192417700Y-72605900D01*
X192417700Y-72605900D02*
X185991500Y-72605900D01*
X198145400Y-74879200D02*
X194691000Y-74879200D01*
X185991500Y-72605900D02*
X181686200Y-68300600D01*
D35*
X126542800Y-71843900D02*
X168859200Y-71843900D01*
X124701300Y-73621900D02*
X124764800Y-73621900D01*
X124764800Y-73621900D02*
X126542800Y-71843900D01*
D33*
X106616500Y-101904800D02*
X102755700Y-105765600D01*
X102755700Y-105765600D02*
X101358700Y-105765600D01*
X94627700Y-65947300D02*
X96602700Y-65947300D01*
X106616500Y-75961100D02*
X106616500Y-101904800D01*
X96602700Y-65947300D02*
X106616500Y-75961100D01*
X108534200Y-102374700D02*
X108483400Y-102374700D01*
X109829600Y-101079300D02*
X108534200Y-102374700D01*
X108483400Y-102374700D02*
X105092500Y-105765600D01*
X111861600Y-101079300D02*
X109829600Y-101079300D01*
X105092500Y-105765600D02*
X101358700Y-105765600D01*
X124675900Y-73647300D02*
X113792000Y-73647300D01*
X124701300Y-73621900D02*
X124675900Y-73647300D01*
X113792000Y-73647300D02*
X112928400Y-74510900D01*
X112928400Y-74510900D02*
X112928400Y-100012500D01*
X112928400Y-100012500D02*
X111861600Y-101079300D01*
D34*
X94627700Y-105765600D02*
X94475300Y-105918000D01*
X101358700Y-105765600D02*
X94627700Y-105765600D01*
X143535400Y-117665500D02*
X150035400Y-117665500D01*
X154546300Y-113792000D02*
X150672800Y-117665500D01*
X150672800Y-117665500D02*
X150035400Y-117665500D01*
X154508200Y-107607100D02*
X154546300Y-107645200D01*
X154546300Y-107645200D02*
X154546300Y-113792000D01*
D33*
X122459801Y-87534801D02*
X122859800Y-87934800D01*
X116598700Y-85445600D02*
X120370600Y-85445600D01*
X120370600Y-85445600D02*
X122459801Y-87534801D01*
X134620000Y-108750100D02*
X128650998Y-108750100D01*
X143535400Y-117665500D02*
X134620000Y-108750100D01*
X123170898Y-103270000D02*
X122770899Y-102870001D01*
X128650998Y-108750100D02*
X123170898Y-103270000D01*
D34*
X172618400Y-117678200D02*
X179118400Y-117678200D01*
X166433500Y-109169200D02*
X166433500Y-107683300D01*
X172618400Y-117678200D02*
X172618400Y-115354100D01*
X172618400Y-115354100D02*
X166433500Y-109169200D01*
D35*
X122555000Y-80518000D02*
X129451100Y-87414100D01*
X118554500Y-77825600D02*
X120611900Y-79883000D01*
X116598700Y-77825600D02*
X118554500Y-77825600D01*
X129451100Y-87414100D02*
X129451100Y-87884000D01*
X120611900Y-79883000D02*
X120637300Y-79883000D01*
X120637300Y-79883000D02*
X121272300Y-80518000D01*
X121272300Y-80518000D02*
X122555000Y-80518000D01*
X129838399Y-102914399D02*
X129438400Y-102514400D01*
X162039300Y-103085900D02*
X150952200Y-103085900D01*
X166547800Y-107594400D02*
X162039300Y-103085900D01*
X149999700Y-104038400D02*
X130962400Y-104038400D01*
X150952200Y-103085900D02*
X149999700Y-104038400D01*
X130962400Y-104038400D02*
X129838399Y-102914399D01*
D34*
X184111900Y-117614700D02*
X184175400Y-117678200D01*
X184175400Y-117678200D02*
X190675400Y-117678200D01*
X176123600Y-114185700D02*
X169545000Y-107607100D01*
X182194200Y-114185700D02*
X176123600Y-114185700D01*
X184175400Y-117678200D02*
X184175400Y-116166900D01*
X184175400Y-116166900D02*
X182194200Y-114185700D01*
D33*
X101358700Y-75552300D02*
X101358700Y-77825600D01*
X123685300Y-75526900D02*
X115785900Y-75526900D01*
X125577600Y-80378300D02*
X125577600Y-77419200D01*
X131419600Y-88112600D02*
X131419600Y-86220300D01*
X125577600Y-77419200D02*
X123685300Y-75526900D01*
X131419600Y-86220300D02*
X125577600Y-80378300D01*
X131610100Y-102501700D02*
X131495800Y-102616000D01*
X148869400Y-102501700D02*
X131610100Y-102501700D01*
X149542500Y-101828600D02*
X148869400Y-102501700D01*
X169545000Y-107607100D02*
X163766500Y-101828600D01*
D35*
X149542500Y-101828600D02*
X163766500Y-101828600D01*
D34*
X169468800Y-100063300D02*
X169545000Y-99987100D01*
X169545000Y-99987100D02*
X172516800Y-99987100D01*
X154508200Y-99987100D02*
X157518100Y-99987100D01*
X160477200Y-99987100D02*
X160489900Y-99974400D01*
X157518100Y-99987100D02*
X160477200Y-99987100D01*
X160489900Y-99974400D02*
X163525200Y-99974400D01*
X163525200Y-99974400D02*
X166547800Y-99974400D01*
X169532300Y-99974400D02*
X169545000Y-99987100D01*
X166547800Y-99974400D02*
X169532300Y-99974400D01*
D33*
X217220800Y-98539300D02*
X216306400Y-98539300D01*
X218338400Y-97421700D02*
X217220800Y-98539300D01*
X201104500Y-99987100D02*
X210083400Y-91008200D01*
X172516800Y-99987100D02*
X201104500Y-99987100D01*
X210083400Y-91008200D02*
X214541100Y-91008200D01*
X218338400Y-94805500D02*
X218338400Y-97421700D01*
X214541100Y-91008200D02*
X218338400Y-94805500D01*
D34*
X169545000Y-94284800D02*
X169532300Y-94272100D01*
X169545000Y-99987100D02*
X169545000Y-94284800D01*
D33*
X169545000Y-97917000D02*
X169557700Y-97904300D01*
X169557700Y-94297500D02*
X169532300Y-94272100D01*
X169494200Y-81806515D02*
X169494200Y-82372200D01*
X169494200Y-75031600D02*
X169494200Y-81806515D01*
X173558200Y-70967600D02*
X169494200Y-75031600D01*
D34*
X101409500Y-113436400D02*
X101358700Y-113385600D01*
X105676700Y-113436400D02*
X101409500Y-113436400D01*
D33*
X220700510Y-112978610D02*
X220700510Y-120751690D01*
X220700510Y-120751690D02*
X215569800Y-125882400D01*
X110401100Y-125882400D02*
X105727500Y-121208800D01*
X215328500Y-105346500D02*
X215328500Y-107606600D01*
X215328500Y-107606600D02*
X220700510Y-112978610D01*
X215569800Y-125882400D02*
X110401100Y-125882400D01*
D34*
X215328500Y-99517200D02*
X216306400Y-98539300D01*
X215328500Y-105346500D02*
X215328500Y-99517200D01*
X165836600Y-119769400D02*
X165904400Y-119837200D01*
X163322000Y-107797600D02*
X163525200Y-107594400D01*
X165904400Y-119837200D02*
X165904400Y-119270000D01*
X163322000Y-116687600D02*
X163322000Y-107797600D01*
X165904400Y-119270000D02*
X163322000Y-116687600D01*
D33*
X121335800Y-81889600D02*
X126993701Y-87547501D01*
X126993701Y-87547501D02*
X127393700Y-87947500D01*
X116598700Y-80365600D02*
X118325900Y-80365600D01*
X119849900Y-81889600D02*
X121335800Y-81889600D01*
X118325900Y-80365600D02*
X119849900Y-81889600D01*
X151650700Y-104330500D02*
X150355300Y-105625900D01*
X150355300Y-105625900D02*
X130467098Y-105625900D01*
X163525200Y-107594400D02*
X160261300Y-104330500D01*
X130467098Y-105625900D02*
X127906397Y-103065199D01*
X127906397Y-103065199D02*
X127406398Y-102565200D01*
D35*
X151650700Y-104330500D02*
X160261300Y-104330500D01*
D34*
X156997400Y-119744200D02*
X156904400Y-119837200D01*
X160578800Y-107683300D02*
X160489900Y-107594400D01*
X156904400Y-119837200D02*
X160578800Y-116162800D01*
X160578800Y-116162800D02*
X160578800Y-107683300D01*
D33*
X125336300Y-88099900D02*
X125425200Y-88099900D01*
X120764300Y-83527900D02*
X125336300Y-88099900D01*
X116598700Y-82905600D02*
X117221000Y-83527900D01*
X117221000Y-83527900D02*
X120764300Y-83527900D01*
D35*
X160489900Y-107594400D02*
X160489900Y-107543600D01*
X150894949Y-107162600D02*
X129755900Y-107162600D01*
X152355449Y-105702100D02*
X150894949Y-107162600D01*
X158648400Y-105702100D02*
X152355449Y-105702100D01*
X160489900Y-107543600D02*
X158648400Y-105702100D01*
X129755900Y-107162600D02*
X125787099Y-103193799D01*
X125787099Y-103193799D02*
X125387100Y-102793800D01*
D33*
X170510200Y-59156600D02*
X172297901Y-60944301D01*
X117090600Y-59156600D02*
X170510200Y-59156600D01*
X172297901Y-60944301D02*
X173062900Y-61709300D01*
X110286800Y-64160400D02*
X112086800Y-64160400D01*
X112086800Y-64160400D02*
X117090600Y-59156600D01*
X205740000Y-109562900D02*
X206032100Y-109562900D01*
X209626200Y-98704400D02*
X209664300Y-98666300D01*
D34*
X206108300Y-109562900D02*
X207543400Y-108127800D01*
X205740000Y-109562900D02*
X206108300Y-109562900D01*
X207543400Y-108051600D02*
X210248500Y-105346500D01*
X207543400Y-108127800D02*
X207543400Y-108051600D01*
X209664300Y-104762300D02*
X209664300Y-98666300D01*
X210248500Y-105346500D02*
X209664300Y-104762300D01*
X220160799Y-78530399D02*
X220160799Y-107753201D01*
X198882000Y-57251600D02*
X220160799Y-78530399D01*
X173062900Y-61709300D02*
X173062900Y-59385200D01*
X175196500Y-57251600D02*
X198882000Y-57251600D01*
X220160799Y-107753201D02*
X219760800Y-108153200D01*
X173062900Y-59385200D02*
X175196500Y-57251600D01*
D33*
X196728700Y-72859900D02*
X196888100Y-73019300D01*
X194348100Y-71094600D02*
X196113400Y-72859900D01*
X196113400Y-72859900D02*
X196728700Y-72859900D01*
X178142900Y-61709300D02*
X187528200Y-71094600D01*
X187528200Y-71094600D02*
X194348100Y-71094600D01*
X195596500Y-69227700D02*
X196888100Y-70519300D01*
X180682900Y-61709300D02*
X188201300Y-69227700D01*
X188201300Y-69227700D02*
X195596500Y-69227700D01*
X196331200Y-67462400D02*
X196888100Y-68019300D01*
X183222900Y-61709300D02*
X188976000Y-67462400D01*
X188976000Y-67462400D02*
X196331200Y-67462400D01*
X195913100Y-65519300D02*
X196888100Y-65519300D01*
X185762900Y-61709300D02*
X189572900Y-65519300D01*
X189572900Y-65519300D02*
X195913100Y-65519300D01*
X183222900Y-74409300D02*
X185762900Y-74409300D01*
X176504600Y-70967600D02*
X173062900Y-74409300D01*
X181178200Y-70967600D02*
X176504600Y-70967600D01*
X183222900Y-72885300D02*
X183222900Y-74409300D01*
X181178200Y-70967600D02*
X181305200Y-70967600D01*
X181305200Y-70967600D02*
X183222900Y-72885300D01*
D34*
X127934720Y-78557120D02*
X127949001Y-78571401D01*
X127934720Y-74498200D02*
X127934720Y-78557120D01*
X130474720Y-78557120D02*
X130489001Y-78571401D01*
X130474720Y-74498200D02*
X130474720Y-78557120D01*
X133014720Y-78557120D02*
X133029001Y-78571401D01*
X133014720Y-74498200D02*
X133014720Y-78557120D01*
X135554720Y-78557120D02*
X135569001Y-78571401D01*
X135554720Y-74498200D02*
X135554720Y-78557120D01*
X138094720Y-78557120D02*
X138109001Y-78571401D01*
X138094720Y-74498200D02*
X138094720Y-78557120D01*
X140634720Y-78557120D02*
X140649001Y-78571401D01*
X140634720Y-74498200D02*
X140634720Y-78557120D01*
X143174720Y-78557120D02*
X143189001Y-78571401D01*
X143174720Y-74498200D02*
X143174720Y-78557120D01*
X145714720Y-78557120D02*
X145729001Y-78571401D01*
X145714720Y-74498200D02*
X145714720Y-78557120D01*
X148254720Y-78557120D02*
X148269001Y-78571401D01*
X148254720Y-74498200D02*
X148254720Y-78557120D01*
X150794720Y-78557120D02*
X150809001Y-78571401D01*
X150794720Y-74498200D02*
X150794720Y-78557120D01*
X153334720Y-78557120D02*
X153349001Y-78571401D01*
X153334720Y-74498200D02*
X153334720Y-78557120D01*
X155874720Y-78557120D02*
X155889001Y-78571401D01*
X155874720Y-74498200D02*
X155874720Y-78557120D01*
X158414720Y-78557120D02*
X158429001Y-78571401D01*
X158414720Y-74498200D02*
X158414720Y-78557120D01*
X160954720Y-78557120D02*
X160969001Y-78571401D01*
X160954720Y-74498200D02*
X160954720Y-78557120D01*
X163494720Y-78557120D02*
X163509001Y-78571401D01*
X163494720Y-74498200D02*
X163494720Y-78557120D01*
X166034720Y-78557120D02*
X166049001Y-78571401D01*
X166034720Y-74498200D02*
X166034720Y-78557120D01*
X191846200Y-107607100D02*
X195846700Y-103606600D01*
X172516800Y-107607100D02*
X191846200Y-107607100D01*
X195846700Y-103606600D02*
X202097640Y-103606600D01*
D33*
X213550500Y-111506000D02*
X212445600Y-111506000D01*
D34*
X213550500Y-111912400D02*
X205740000Y-119722900D01*
X213550500Y-111506000D02*
X213550500Y-111912400D01*
D36*
G36*
X215894557Y-94662583D02*
G01*
X215690108Y-94735697D01*
X215564886Y-94802629D01*
X215493303Y-95046598D01*
X216306400Y-95859695D01*
X216320543Y-95845553D01*
X216500148Y-96025158D01*
X216486005Y-96039300D01*
X216500148Y-96053443D01*
X216320543Y-96233048D01*
X216306400Y-96218905D01*
X216292258Y-96233048D01*
X216112653Y-96053443D01*
X216126795Y-96039300D01*
X215313698Y-95226203D01*
X215069729Y-95297786D01*
X214948829Y-95553296D01*
X214880100Y-95827484D01*
X214866183Y-96109812D01*
X214907613Y-96389430D01*
X215002797Y-96655592D01*
X215033976Y-96713924D01*
X214877243Y-96797700D01*
X214705635Y-96938535D01*
X214564800Y-97110143D01*
X214460150Y-97305929D01*
X214395707Y-97518369D01*
X214373947Y-97739300D01*
X214373947Y-97817275D01*
X214066461Y-98124761D01*
X213994840Y-98183539D01*
X213936062Y-98255160D01*
X213936059Y-98255163D01*
X213895370Y-98304743D01*
X213760281Y-98469349D01*
X213634644Y-98704400D01*
X213585988Y-98795428D01*
X213478659Y-99149244D01*
X213442419Y-99517200D01*
X213451501Y-99609412D01*
X213451500Y-103864365D01*
X213379594Y-103826929D01*
X213161480Y-103755937D01*
X212915500Y-103875906D01*
X212915500Y-105219500D01*
X212935500Y-105219500D01*
X212935500Y-105473500D01*
X212915500Y-105473500D01*
X212915500Y-106817094D01*
X213161480Y-106937063D01*
X213379594Y-106866071D01*
X213655423Y-106722469D01*
X213699549Y-106687051D01*
X213701501Y-106689429D01*
X213701501Y-107526676D01*
X213693629Y-107606600D01*
X213701501Y-107686525D01*
X213725043Y-107925548D01*
X213817166Y-108229239D01*
X213818076Y-108232238D01*
X213969154Y-108514885D01*
X214058330Y-108623547D01*
X211800500Y-108623547D01*
X211579569Y-108645307D01*
X211367129Y-108709750D01*
X211171343Y-108814400D01*
X210999735Y-108955235D01*
X210858900Y-109126843D01*
X210754250Y-109322629D01*
X210689807Y-109535069D01*
X210668047Y-109756000D01*
X210668047Y-112140374D01*
X205117975Y-117690447D01*
X204840000Y-117690447D01*
X204619069Y-117712207D01*
X204406629Y-117776650D01*
X204210843Y-117881300D01*
X204039235Y-118022135D01*
X203898400Y-118193743D01*
X203793750Y-118389529D01*
X203729307Y-118601969D01*
X203707547Y-118822900D01*
X203707547Y-120622900D01*
X203729307Y-120843831D01*
X203793750Y-121056271D01*
X203898400Y-121252057D01*
X204039235Y-121423665D01*
X204210843Y-121564500D01*
X204406629Y-121669150D01*
X204619069Y-121733593D01*
X204840000Y-121755353D01*
X206640000Y-121755353D01*
X206860931Y-121733593D01*
X207073371Y-121669150D01*
X207269157Y-121564500D01*
X207440765Y-121423665D01*
X207581600Y-121252057D01*
X207686250Y-121056271D01*
X207750693Y-120843831D01*
X207772453Y-120622900D01*
X207772453Y-120344925D01*
X209111378Y-119006000D01*
X211162428Y-119006000D01*
X211174688Y-119130482D01*
X211210998Y-119250180D01*
X211269963Y-119360494D01*
X211349315Y-119457185D01*
X211446006Y-119536537D01*
X211556320Y-119595502D01*
X211676018Y-119631812D01*
X211800500Y-119644072D01*
X213264750Y-119641000D01*
X213423500Y-119482250D01*
X213423500Y-117633000D01*
X213677500Y-117633000D01*
X213677500Y-119482250D01*
X213836250Y-119641000D01*
X215300500Y-119644072D01*
X215424982Y-119631812D01*
X215544680Y-119595502D01*
X215654994Y-119536537D01*
X215751685Y-119457185D01*
X215831037Y-119360494D01*
X215890002Y-119250180D01*
X215926312Y-119130482D01*
X215938572Y-119006000D01*
X215935500Y-117791750D01*
X215776750Y-117633000D01*
X213677500Y-117633000D01*
X213423500Y-117633000D01*
X211324250Y-117633000D01*
X211165500Y-117791750D01*
X211162428Y-119006000D01*
X209111378Y-119006000D01*
X211164823Y-116952556D01*
X211165500Y-117220250D01*
X211324250Y-117379000D01*
X213423500Y-117379000D01*
X213423500Y-115529750D01*
X213264750Y-115371000D01*
X212747464Y-115369915D01*
X213728926Y-114388453D01*
X215300500Y-114388453D01*
X215368047Y-114381800D01*
X215368047Y-115374581D01*
X215300500Y-115367928D01*
X213836250Y-115371000D01*
X213677500Y-115529750D01*
X213677500Y-117379000D01*
X215776750Y-117379000D01*
X215935500Y-117220250D01*
X215936622Y-116776852D01*
X215956016Y-116800484D01*
X216260219Y-117050136D01*
X216607281Y-117235645D01*
X216983865Y-117349880D01*
X217375500Y-117388453D01*
X219073511Y-117388453D01*
X219073511Y-120077764D01*
X214895875Y-124255400D01*
X111075025Y-124255400D01*
X110077022Y-123257397D01*
X130761308Y-123257397D01*
X130838943Y-123506472D01*
X131102983Y-123632371D01*
X131386511Y-123704339D01*
X131678631Y-123719611D01*
X131968119Y-123677599D01*
X132243847Y-123579919D01*
X132381257Y-123506472D01*
X132458892Y-123257397D01*
X137261308Y-123257397D01*
X137338943Y-123506472D01*
X137602983Y-123632371D01*
X137886511Y-123704339D01*
X138178631Y-123719611D01*
X138468119Y-123677599D01*
X138743847Y-123579919D01*
X138881257Y-123506472D01*
X138958892Y-123257397D01*
X138895392Y-123193897D01*
X142686608Y-123193897D01*
X142764243Y-123442972D01*
X143028283Y-123568871D01*
X143311811Y-123640839D01*
X143603931Y-123656111D01*
X143893419Y-123614099D01*
X144169147Y-123516419D01*
X144306557Y-123442972D01*
X144384192Y-123193897D01*
X149186608Y-123193897D01*
X149264243Y-123442972D01*
X149528283Y-123568871D01*
X149811811Y-123640839D01*
X150103931Y-123656111D01*
X150393419Y-123614099D01*
X150669147Y-123516419D01*
X150806557Y-123442972D01*
X150880233Y-123206597D01*
X171769608Y-123206597D01*
X171847243Y-123455672D01*
X172111283Y-123581571D01*
X172394811Y-123653539D01*
X172686931Y-123668811D01*
X172976419Y-123626799D01*
X173252147Y-123529119D01*
X173389557Y-123455672D01*
X173467192Y-123206597D01*
X178269608Y-123206597D01*
X178347243Y-123455672D01*
X178611283Y-123581571D01*
X178894811Y-123653539D01*
X179186931Y-123668811D01*
X179476419Y-123626799D01*
X179752147Y-123529119D01*
X179889557Y-123455672D01*
X179967192Y-123206597D01*
X183326608Y-123206597D01*
X183404243Y-123455672D01*
X183668283Y-123581571D01*
X183951811Y-123653539D01*
X184243931Y-123668811D01*
X184533419Y-123626799D01*
X184809147Y-123529119D01*
X184946557Y-123455672D01*
X185024192Y-123206597D01*
X189826608Y-123206597D01*
X189904243Y-123455672D01*
X190168283Y-123581571D01*
X190451811Y-123653539D01*
X190743931Y-123668811D01*
X191033419Y-123626799D01*
X191309147Y-123529119D01*
X191446557Y-123455672D01*
X191524192Y-123206597D01*
X190675400Y-122357805D01*
X189826608Y-123206597D01*
X185024192Y-123206597D01*
X184175400Y-122357805D01*
X183326608Y-123206597D01*
X179967192Y-123206597D01*
X179118400Y-122357805D01*
X178269608Y-123206597D01*
X173467192Y-123206597D01*
X172618400Y-122357805D01*
X171769608Y-123206597D01*
X150880233Y-123206597D01*
X150884192Y-123193897D01*
X150035400Y-122345105D01*
X149186608Y-123193897D01*
X144384192Y-123193897D01*
X143535400Y-122345105D01*
X142686608Y-123193897D01*
X138895392Y-123193897D01*
X138110100Y-122408605D01*
X137261308Y-123257397D01*
X132458892Y-123257397D01*
X131610100Y-122408605D01*
X130761308Y-123257397D01*
X110077022Y-123257397D01*
X109117156Y-122297531D01*
X130119489Y-122297531D01*
X130161501Y-122587019D01*
X130259181Y-122862747D01*
X130332628Y-123000157D01*
X130581703Y-123077792D01*
X131430495Y-122229000D01*
X131789705Y-122229000D01*
X132638497Y-123077792D01*
X132887572Y-123000157D01*
X133013471Y-122736117D01*
X133085439Y-122452589D01*
X133093545Y-122297531D01*
X136619489Y-122297531D01*
X136661501Y-122587019D01*
X136759181Y-122862747D01*
X136832628Y-123000157D01*
X137081703Y-123077792D01*
X137930495Y-122229000D01*
X137081703Y-121380208D01*
X136832628Y-121457843D01*
X136706729Y-121721883D01*
X136634761Y-122005411D01*
X136619489Y-122297531D01*
X133093545Y-122297531D01*
X133100711Y-122160469D01*
X133058699Y-121870981D01*
X132961019Y-121595253D01*
X132887572Y-121457843D01*
X132638497Y-121380208D01*
X131789705Y-122229000D01*
X131430495Y-122229000D01*
X130581703Y-121380208D01*
X130332628Y-121457843D01*
X130206729Y-121721883D01*
X130134761Y-122005411D01*
X130119489Y-122297531D01*
X109117156Y-122297531D01*
X108020228Y-121200603D01*
X130761308Y-121200603D01*
X131610100Y-122049395D01*
X132458892Y-121200603D01*
X132381257Y-120951528D01*
X132117217Y-120825629D01*
X131833689Y-120753661D01*
X131541569Y-120738389D01*
X131252081Y-120780401D01*
X130976353Y-120878081D01*
X130838943Y-120951528D01*
X130761308Y-121200603D01*
X108020228Y-121200603D01*
X107991725Y-121172100D01*
X110307347Y-121172100D01*
X110386125Y-121156430D01*
X110466050Y-121148558D01*
X110542905Y-121125244D01*
X110621680Y-121109575D01*
X110695881Y-121078840D01*
X110772740Y-121055525D01*
X110843575Y-121017663D01*
X110917775Y-120986928D01*
X110984555Y-120942307D01*
X111055388Y-120904446D01*
X111117471Y-120853495D01*
X111184254Y-120808873D01*
X111241049Y-120752078D01*
X111303131Y-120701129D01*
X111354082Y-120639045D01*
X111410875Y-120582252D01*
X111455497Y-120515469D01*
X111506448Y-120453386D01*
X111544309Y-120382553D01*
X111588930Y-120315773D01*
X111619665Y-120241573D01*
X111657527Y-120170738D01*
X111680842Y-120093879D01*
X111711577Y-120019678D01*
X111727246Y-119940903D01*
X111750560Y-119864048D01*
X111758432Y-119784123D01*
X111774102Y-119705345D01*
X111774102Y-119625025D01*
X111781974Y-119545100D01*
X111778359Y-119508400D01*
X113822986Y-119508400D01*
X113902900Y-119516271D01*
X113982814Y-119508400D01*
X113982825Y-119508400D01*
X114221848Y-119484858D01*
X114528538Y-119391825D01*
X114811186Y-119240746D01*
X115058929Y-119037429D01*
X115109879Y-118975346D01*
X117692652Y-116392574D01*
X117754729Y-116341629D01*
X117805675Y-116279551D01*
X117805678Y-116279548D01*
X117958046Y-116093886D01*
X117967675Y-116075872D01*
X118109125Y-115811238D01*
X118202158Y-115504548D01*
X118225700Y-115265525D01*
X118225700Y-115265517D01*
X118233571Y-115185600D01*
X118225700Y-115105683D01*
X118225700Y-114954398D01*
X118340300Y-114814757D01*
X118444950Y-114618971D01*
X118509393Y-114406531D01*
X118531153Y-114185600D01*
X118531153Y-112585600D01*
X118509393Y-112364669D01*
X118444950Y-112152229D01*
X118340300Y-111956443D01*
X118248656Y-111844775D01*
X118306385Y-111758377D01*
X118451647Y-111407685D01*
X118525700Y-111035393D01*
X118525700Y-110655807D01*
X118451647Y-110283515D01*
X118306385Y-109932823D01*
X118095499Y-109617209D01*
X118053890Y-109575600D01*
X118095499Y-109533991D01*
X118306385Y-109218377D01*
X118451647Y-108867685D01*
X118525700Y-108495393D01*
X118525700Y-108115807D01*
X118451647Y-107743515D01*
X118306385Y-107392823D01*
X118095499Y-107077209D01*
X117827091Y-106808801D01*
X117677277Y-106708699D01*
X117829737Y-106503020D01*
X117949946Y-106248687D01*
X117990604Y-106114639D01*
X117868615Y-105892600D01*
X116725700Y-105892600D01*
X116725700Y-105912600D01*
X116471700Y-105912600D01*
X116471700Y-105892600D01*
X115328785Y-105892600D01*
X115206796Y-106114639D01*
X115247454Y-106248687D01*
X115367663Y-106503020D01*
X115520123Y-106708699D01*
X115370309Y-106808801D01*
X115101901Y-107077209D01*
X114891015Y-107392823D01*
X114745753Y-107743515D01*
X114671700Y-108115807D01*
X114671700Y-108495393D01*
X114745753Y-108867685D01*
X114891015Y-109218377D01*
X114891164Y-109218600D01*
X112792414Y-109218600D01*
X112712499Y-109210729D01*
X112632585Y-109218600D01*
X112632575Y-109218600D01*
X112393552Y-109242142D01*
X112086862Y-109335175D01*
X111917293Y-109425812D01*
X111804214Y-109486254D01*
X111618552Y-109638622D01*
X111618549Y-109638625D01*
X111556471Y-109689571D01*
X111505525Y-109751649D01*
X107534595Y-113722579D01*
X107562782Y-113436400D01*
X107526541Y-113068444D01*
X107419213Y-112714628D01*
X107244920Y-112388549D01*
X107010361Y-112102739D01*
X106724551Y-111868180D01*
X106398472Y-111693887D01*
X106044656Y-111586559D01*
X105768910Y-111559400D01*
X102600901Y-111559400D01*
X102709946Y-111328687D01*
X102750604Y-111194639D01*
X102628615Y-110972600D01*
X101485700Y-110972600D01*
X101485700Y-110992600D01*
X101231700Y-110992600D01*
X101231700Y-110972600D01*
X100088785Y-110972600D01*
X99966796Y-111194639D01*
X100007454Y-111328687D01*
X100127663Y-111583020D01*
X100280123Y-111788699D01*
X100130309Y-111888801D01*
X99861901Y-112157209D01*
X99651015Y-112472823D01*
X99601789Y-112591664D01*
X96914179Y-109904054D01*
X96863229Y-109841971D01*
X96615486Y-109638654D01*
X96332838Y-109487575D01*
X96026148Y-109394542D01*
X95787125Y-109371000D01*
X95787114Y-109371000D01*
X95707200Y-109363129D01*
X95638829Y-109369863D01*
X95746941Y-109224920D01*
X95872125Y-108962099D01*
X95916776Y-108814890D01*
X95795455Y-108585000D01*
X94602300Y-108585000D01*
X94602300Y-108605000D01*
X94348300Y-108605000D01*
X94348300Y-108585000D01*
X93155145Y-108585000D01*
X93033824Y-108814890D01*
X93078475Y-108962099D01*
X93203659Y-109224920D01*
X93325642Y-109388459D01*
X93215036Y-109462364D01*
X92939664Y-109737736D01*
X92723305Y-110061539D01*
X92574275Y-110421330D01*
X92498300Y-110803282D01*
X92498300Y-111192718D01*
X92574275Y-111574670D01*
X92723305Y-111934461D01*
X92939664Y-112258264D01*
X92949400Y-112268000D01*
X92939664Y-112277736D01*
X92723305Y-112601539D01*
X92574275Y-112961330D01*
X92498300Y-113343282D01*
X92498300Y-113732718D01*
X92574275Y-114114670D01*
X92723305Y-114474461D01*
X92751342Y-114516421D01*
X92683700Y-114598843D01*
X92579050Y-114794629D01*
X92514607Y-115007069D01*
X92492847Y-115228000D01*
X92492847Y-116928000D01*
X92514607Y-117148931D01*
X92579050Y-117361371D01*
X92683700Y-117557157D01*
X92824535Y-117728765D01*
X92996143Y-117869600D01*
X93086880Y-117918100D01*
X92837826Y-117918100D01*
X91898600Y-116978875D01*
X91898600Y-101461125D01*
X91948824Y-101410900D01*
X92652632Y-101410900D01*
X92672135Y-101434665D01*
X92843743Y-101575500D01*
X93039529Y-101680150D01*
X93251969Y-101744593D01*
X93347307Y-101753983D01*
X93215036Y-101842364D01*
X92939664Y-102117736D01*
X92723305Y-102441539D01*
X92574275Y-102801330D01*
X92498300Y-103183282D01*
X92498300Y-103572718D01*
X92574275Y-103954670D01*
X92723305Y-104314461D01*
X92939664Y-104638264D01*
X92949400Y-104648000D01*
X92939664Y-104657736D01*
X92723305Y-104981539D01*
X92574275Y-105341330D01*
X92498300Y-105723282D01*
X92498300Y-106112718D01*
X92574275Y-106494670D01*
X92723305Y-106854461D01*
X92939664Y-107178264D01*
X93215036Y-107453636D01*
X93325642Y-107527541D01*
X93203659Y-107691080D01*
X93078475Y-107953901D01*
X93033824Y-108101110D01*
X93155145Y-108331000D01*
X94348300Y-108331000D01*
X94348300Y-108311000D01*
X94602300Y-108311000D01*
X94602300Y-108331000D01*
X95795455Y-108331000D01*
X95916776Y-108101110D01*
X95872125Y-107953901D01*
X95746941Y-107691080D01*
X95710780Y-107642600D01*
X99547554Y-107642600D01*
X99505753Y-107743515D01*
X99431700Y-108115807D01*
X99431700Y-108495393D01*
X99505753Y-108867685D01*
X99651015Y-109218377D01*
X99861901Y-109533991D01*
X100130309Y-109802399D01*
X100280123Y-109902501D01*
X100127663Y-110108180D01*
X100007454Y-110362513D01*
X99966796Y-110496561D01*
X100088785Y-110718600D01*
X101231700Y-110718600D01*
X101231700Y-110698600D01*
X101485700Y-110698600D01*
X101485700Y-110718600D01*
X102628615Y-110718600D01*
X102750604Y-110496561D01*
X102709946Y-110362513D01*
X102589737Y-110108180D01*
X102437277Y-109902501D01*
X102587091Y-109802399D01*
X102855499Y-109533991D01*
X103066385Y-109218377D01*
X103211647Y-108867685D01*
X103285700Y-108495393D01*
X103285700Y-108115807D01*
X103211647Y-107743515D01*
X103066385Y-107392823D01*
X103066236Y-107392600D01*
X105012586Y-107392600D01*
X105092500Y-107400471D01*
X105172414Y-107392600D01*
X105172425Y-107392600D01*
X105411448Y-107369058D01*
X105718138Y-107276025D01*
X106000786Y-107124946D01*
X106248529Y-106921629D01*
X106299479Y-106859546D01*
X108766393Y-104392633D01*
X108775296Y-104405958D01*
X108813154Y-104476785D01*
X108864102Y-104538865D01*
X108908727Y-104605652D01*
X108965522Y-104662447D01*
X109016471Y-104724529D01*
X109078553Y-104775478D01*
X109135348Y-104832273D01*
X109202135Y-104876898D01*
X109264215Y-104927846D01*
X109335042Y-104965704D01*
X109401827Y-105010328D01*
X109476034Y-105041066D01*
X109546862Y-105078924D01*
X109623711Y-105102236D01*
X109697922Y-105132975D01*
X109776709Y-105148647D01*
X109853553Y-105171957D01*
X109933466Y-105179828D01*
X110012255Y-105195500D01*
X110092586Y-105195500D01*
X110172500Y-105203371D01*
X110252414Y-105195500D01*
X110332745Y-105195500D01*
X110411534Y-105179828D01*
X110491447Y-105171957D01*
X110568291Y-105148647D01*
X110647078Y-105132975D01*
X110721289Y-105102236D01*
X110798138Y-105078924D01*
X110868966Y-105041066D01*
X110943173Y-105010328D01*
X111009958Y-104965704D01*
X111080785Y-104927846D01*
X111142865Y-104876898D01*
X111179230Y-104852600D01*
X115497812Y-104852600D01*
X115367663Y-105028180D01*
X115247454Y-105282513D01*
X115206796Y-105416561D01*
X115328785Y-105638600D01*
X116471700Y-105638600D01*
X116471700Y-105618600D01*
X116725700Y-105618600D01*
X116725700Y-105638600D01*
X117868615Y-105638600D01*
X117990604Y-105416561D01*
X117949946Y-105282513D01*
X117829737Y-105028180D01*
X117677277Y-104822501D01*
X117827091Y-104722399D01*
X118095499Y-104453991D01*
X118306385Y-104138377D01*
X118451647Y-103787685D01*
X118525700Y-103415393D01*
X118525700Y-103035807D01*
X118451647Y-102663515D01*
X118306385Y-102312823D01*
X118297750Y-102299900D01*
X119120184Y-102299900D01*
X119088775Y-102358662D01*
X119065460Y-102435521D01*
X119034725Y-102509722D01*
X119019056Y-102588497D01*
X118995742Y-102665352D01*
X118987870Y-102745277D01*
X118972200Y-102824055D01*
X118972200Y-103039357D01*
X118964329Y-103119271D01*
X118972200Y-103199185D01*
X118972200Y-103199195D01*
X118995742Y-103438218D01*
X119088775Y-103744908D01*
X119239854Y-104027556D01*
X119443171Y-104275300D01*
X119505254Y-104326250D01*
X122365405Y-107186401D01*
X121975264Y-107186401D01*
X121467733Y-107287355D01*
X120989650Y-107485384D01*
X120559386Y-107772877D01*
X120193477Y-108138786D01*
X119905984Y-108569050D01*
X119707955Y-109047133D01*
X119607001Y-109554664D01*
X119607001Y-110072138D01*
X119707955Y-110579669D01*
X119905984Y-111057752D01*
X120193477Y-111488016D01*
X120559386Y-111853925D01*
X120989650Y-112141418D01*
X121467733Y-112339447D01*
X121975264Y-112440401D01*
X122492738Y-112440401D01*
X123000269Y-112339447D01*
X123478352Y-112141418D01*
X123908616Y-111853925D01*
X124274525Y-111488016D01*
X124562018Y-111057752D01*
X124760047Y-110579669D01*
X124861001Y-110072138D01*
X124861001Y-109681997D01*
X129983101Y-114804098D01*
X129983100Y-116605471D01*
X129858105Y-116792539D01*
X129709075Y-117152330D01*
X129633100Y-117534282D01*
X129633100Y-117923718D01*
X129709075Y-118305670D01*
X129858105Y-118665461D01*
X130074464Y-118989264D01*
X130349836Y-119264636D01*
X130673639Y-119480995D01*
X131033430Y-119630025D01*
X131415382Y-119706000D01*
X131804818Y-119706000D01*
X132186770Y-119630025D01*
X132244772Y-119606000D01*
X137332622Y-119606000D01*
X138530150Y-120803529D01*
X138333689Y-120753661D01*
X138041569Y-120738389D01*
X137752081Y-120780401D01*
X137476353Y-120878081D01*
X137338943Y-120951528D01*
X137261308Y-121200603D01*
X138110100Y-122049395D01*
X138124243Y-122035253D01*
X138303848Y-122214858D01*
X138289705Y-122229000D01*
X139138497Y-123077792D01*
X139387572Y-123000157D01*
X139513471Y-122736117D01*
X139585439Y-122452589D01*
X139600711Y-122160469D01*
X139558699Y-121870981D01*
X139461019Y-121595253D01*
X139452883Y-121580031D01*
X139547328Y-121630513D01*
X139793815Y-121705283D01*
X139901143Y-121737841D01*
X139936585Y-121741332D01*
X140176890Y-121765000D01*
X140176897Y-121765000D01*
X140269099Y-121774081D01*
X140361301Y-121765000D01*
X142104966Y-121765000D01*
X142060061Y-121941911D01*
X142044789Y-122234031D01*
X142086801Y-122523519D01*
X142184481Y-122799247D01*
X142257928Y-122936657D01*
X142507003Y-123014292D01*
X143355795Y-122165500D01*
X143341653Y-122151358D01*
X143521258Y-121971753D01*
X143535400Y-121985895D01*
X143549543Y-121971753D01*
X143729148Y-122151358D01*
X143715005Y-122165500D01*
X144563797Y-123014292D01*
X144812872Y-122936657D01*
X144938771Y-122672617D01*
X145010739Y-122389089D01*
X145026011Y-122096969D01*
X144983999Y-121807481D01*
X144968950Y-121765000D01*
X148604966Y-121765000D01*
X148560061Y-121941911D01*
X148544789Y-122234031D01*
X148586801Y-122523519D01*
X148684481Y-122799247D01*
X148757928Y-122936657D01*
X149007003Y-123014292D01*
X149855795Y-122165500D01*
X149841653Y-122151358D01*
X150021258Y-121971753D01*
X150035400Y-121985895D01*
X150049543Y-121971753D01*
X150229148Y-122151358D01*
X150215005Y-122165500D01*
X151063797Y-123014292D01*
X151312872Y-122936657D01*
X151438771Y-122672617D01*
X151510739Y-122389089D01*
X151526011Y-122096969D01*
X151483999Y-121807481D01*
X151468950Y-121765000D01*
X151685498Y-121765000D01*
X151777700Y-121774081D01*
X151869902Y-121765000D01*
X151869910Y-121765000D01*
X152145656Y-121737841D01*
X152499472Y-121630513D01*
X152825551Y-121456220D01*
X153111361Y-121221661D01*
X153170144Y-121150034D01*
X154277400Y-120042778D01*
X154277400Y-120095937D01*
X154378354Y-120603468D01*
X154576383Y-121081551D01*
X154863876Y-121511815D01*
X155229785Y-121877724D01*
X155660049Y-122165217D01*
X156138132Y-122363246D01*
X156645663Y-122464200D01*
X157163137Y-122464200D01*
X157670668Y-122363246D01*
X158148751Y-122165217D01*
X158579015Y-121877724D01*
X158944924Y-121511815D01*
X159067175Y-121328853D01*
X160092352Y-121328853D01*
X160248362Y-121644414D01*
X160623145Y-121835220D01*
X161027951Y-121949244D01*
X161447224Y-121982102D01*
X161864851Y-121932534D01*
X162264783Y-121802443D01*
X162560438Y-121644414D01*
X162716448Y-121328853D01*
X161404400Y-120016805D01*
X160092352Y-121328853D01*
X159067175Y-121328853D01*
X159232417Y-121081551D01*
X159418177Y-120633087D01*
X159439157Y-120697583D01*
X159597186Y-120993238D01*
X159912747Y-121149248D01*
X161224795Y-119837200D01*
X161210653Y-119823058D01*
X161390258Y-119643453D01*
X161404400Y-119657595D01*
X161418543Y-119643453D01*
X161598148Y-119823058D01*
X161584005Y-119837200D01*
X162896053Y-121149248D01*
X163211614Y-120993238D01*
X163271947Y-120874731D01*
X163271947Y-121337200D01*
X163293707Y-121558131D01*
X163358150Y-121770571D01*
X163462800Y-121966357D01*
X163603635Y-122137965D01*
X163775243Y-122278800D01*
X163971029Y-122383450D01*
X164183469Y-122447893D01*
X164404400Y-122469653D01*
X167404400Y-122469653D01*
X167625331Y-122447893D01*
X167837771Y-122383450D01*
X168033557Y-122278800D01*
X168072633Y-122246731D01*
X171127789Y-122246731D01*
X171169801Y-122536219D01*
X171267481Y-122811947D01*
X171340928Y-122949357D01*
X171590003Y-123026992D01*
X172438795Y-122178200D01*
X172798005Y-122178200D01*
X173646797Y-123026992D01*
X173895872Y-122949357D01*
X174021771Y-122685317D01*
X174093739Y-122401789D01*
X174101845Y-122246731D01*
X177627789Y-122246731D01*
X177669801Y-122536219D01*
X177767481Y-122811947D01*
X177840928Y-122949357D01*
X178090003Y-123026992D01*
X178938795Y-122178200D01*
X179298005Y-122178200D01*
X180146797Y-123026992D01*
X180395872Y-122949357D01*
X180521771Y-122685317D01*
X180593739Y-122401789D01*
X180601845Y-122246731D01*
X182684789Y-122246731D01*
X182726801Y-122536219D01*
X182824481Y-122811947D01*
X182897928Y-122949357D01*
X183147003Y-123026992D01*
X183995795Y-122178200D01*
X184355005Y-122178200D01*
X185203797Y-123026992D01*
X185452872Y-122949357D01*
X185578771Y-122685317D01*
X185650739Y-122401789D01*
X185658845Y-122246731D01*
X189184789Y-122246731D01*
X189226801Y-122536219D01*
X189324481Y-122811947D01*
X189397928Y-122949357D01*
X189647003Y-123026992D01*
X190495795Y-122178200D01*
X190855005Y-122178200D01*
X191703797Y-123026992D01*
X191952872Y-122949357D01*
X192078771Y-122685317D01*
X192150739Y-122401789D01*
X192166011Y-122109669D01*
X192123999Y-121820181D01*
X192026319Y-121544453D01*
X191952872Y-121407043D01*
X191703797Y-121329408D01*
X190855005Y-122178200D01*
X190495795Y-122178200D01*
X189647003Y-121329408D01*
X189397928Y-121407043D01*
X189272029Y-121671083D01*
X189200061Y-121954611D01*
X189184789Y-122246731D01*
X185658845Y-122246731D01*
X185666011Y-122109669D01*
X185623999Y-121820181D01*
X185526319Y-121544453D01*
X185452872Y-121407043D01*
X185203797Y-121329408D01*
X184355005Y-122178200D01*
X183995795Y-122178200D01*
X183147003Y-121329408D01*
X182897928Y-121407043D01*
X182772029Y-121671083D01*
X182700061Y-121954611D01*
X182684789Y-122246731D01*
X180601845Y-122246731D01*
X180609011Y-122109669D01*
X180566999Y-121820181D01*
X180469319Y-121544453D01*
X180395872Y-121407043D01*
X180146797Y-121329408D01*
X179298005Y-122178200D01*
X178938795Y-122178200D01*
X178090003Y-121329408D01*
X177840928Y-121407043D01*
X177715029Y-121671083D01*
X177643061Y-121954611D01*
X177627789Y-122246731D01*
X174101845Y-122246731D01*
X174109011Y-122109669D01*
X174066999Y-121820181D01*
X173969319Y-121544453D01*
X173895872Y-121407043D01*
X173646797Y-121329408D01*
X172798005Y-122178200D01*
X172438795Y-122178200D01*
X171590003Y-121329408D01*
X171340928Y-121407043D01*
X171215029Y-121671083D01*
X171143061Y-121954611D01*
X171127789Y-122246731D01*
X168072633Y-122246731D01*
X168205165Y-122137965D01*
X168346000Y-121966357D01*
X168450650Y-121770571D01*
X168515093Y-121558131D01*
X168536853Y-121337200D01*
X168536853Y-121149803D01*
X171769608Y-121149803D01*
X172618400Y-121998595D01*
X173467192Y-121149803D01*
X178269608Y-121149803D01*
X179118400Y-121998595D01*
X179967192Y-121149803D01*
X183326608Y-121149803D01*
X184175400Y-121998595D01*
X185024192Y-121149803D01*
X189826608Y-121149803D01*
X190675400Y-121998595D01*
X191524192Y-121149803D01*
X191446557Y-120900728D01*
X191182517Y-120774829D01*
X190898989Y-120702861D01*
X190606869Y-120687589D01*
X190317381Y-120729601D01*
X190041653Y-120827281D01*
X189904243Y-120900728D01*
X189826608Y-121149803D01*
X185024192Y-121149803D01*
X184946557Y-120900728D01*
X184682517Y-120774829D01*
X184398989Y-120702861D01*
X184106869Y-120687589D01*
X183817381Y-120729601D01*
X183541653Y-120827281D01*
X183404243Y-120900728D01*
X183326608Y-121149803D01*
X179967192Y-121149803D01*
X179889557Y-120900728D01*
X179625517Y-120774829D01*
X179341989Y-120702861D01*
X179049869Y-120687589D01*
X178760381Y-120729601D01*
X178484653Y-120827281D01*
X178347243Y-120900728D01*
X178269608Y-121149803D01*
X173467192Y-121149803D01*
X173389557Y-120900728D01*
X173125517Y-120774829D01*
X172841989Y-120702861D01*
X172549869Y-120687589D01*
X172260381Y-120729601D01*
X171984653Y-120827281D01*
X171847243Y-120900728D01*
X171769608Y-121149803D01*
X168536853Y-121149803D01*
X168536853Y-118337200D01*
X168515093Y-118116269D01*
X168450650Y-117903829D01*
X168346000Y-117708043D01*
X168205165Y-117536435D01*
X168033557Y-117395600D01*
X167837771Y-117290950D01*
X167625331Y-117226507D01*
X167404400Y-117204747D01*
X166493626Y-117204747D01*
X165199000Y-115910122D01*
X165199000Y-110589178D01*
X170741401Y-116131580D01*
X170741400Y-117043528D01*
X170717375Y-117101530D01*
X170641400Y-117483482D01*
X170641400Y-117872918D01*
X170717375Y-118254870D01*
X170866405Y-118614661D01*
X171082764Y-118938464D01*
X171358136Y-119213836D01*
X171681939Y-119430195D01*
X172041730Y-119579225D01*
X172423682Y-119655200D01*
X172813118Y-119655200D01*
X173195070Y-119579225D01*
X173253072Y-119555200D01*
X178483728Y-119555200D01*
X178541730Y-119579225D01*
X178923682Y-119655200D01*
X179313118Y-119655200D01*
X179695070Y-119579225D01*
X180054861Y-119430195D01*
X180378664Y-119213836D01*
X180654036Y-118938464D01*
X180870395Y-118614661D01*
X181019425Y-118254870D01*
X181095400Y-117872918D01*
X181095400Y-117483482D01*
X181019425Y-117101530D01*
X180870395Y-116741739D01*
X180654036Y-116417936D01*
X180378664Y-116142564D01*
X180259139Y-116062700D01*
X181416722Y-116062700D01*
X182298400Y-116944379D01*
X182298400Y-117043528D01*
X182274375Y-117101530D01*
X182198400Y-117483482D01*
X182198400Y-117872918D01*
X182274375Y-118254870D01*
X182423405Y-118614661D01*
X182639764Y-118938464D01*
X182915136Y-119213836D01*
X183238939Y-119430195D01*
X183598730Y-119579225D01*
X183980682Y-119655200D01*
X184370118Y-119655200D01*
X184752070Y-119579225D01*
X184810072Y-119555200D01*
X190040728Y-119555200D01*
X190098730Y-119579225D01*
X190480682Y-119655200D01*
X190870118Y-119655200D01*
X191252070Y-119579225D01*
X191611861Y-119430195D01*
X191935664Y-119213836D01*
X192211036Y-118938464D01*
X192427395Y-118614661D01*
X192576425Y-118254870D01*
X192652400Y-117872918D01*
X192652400Y-117483482D01*
X192576425Y-117101530D01*
X192427395Y-116741739D01*
X192211036Y-116417936D01*
X191935664Y-116142564D01*
X191611861Y-115926205D01*
X191252070Y-115777175D01*
X190870118Y-115701200D01*
X190480682Y-115701200D01*
X190098730Y-115777175D01*
X190040728Y-115801200D01*
X186025463Y-115801200D01*
X186025241Y-115798943D01*
X185988578Y-115678082D01*
X185917913Y-115445128D01*
X185743620Y-115119049D01*
X185600853Y-114945088D01*
X185567841Y-114904862D01*
X185567839Y-114904860D01*
X185509061Y-114833239D01*
X185437439Y-114774461D01*
X183586643Y-112923665D01*
X183527861Y-112852039D01*
X183242051Y-112617480D01*
X182915972Y-112443187D01*
X182562156Y-112335859D01*
X182286410Y-112308700D01*
X182286402Y-112308700D01*
X182194200Y-112299619D01*
X182101998Y-112308700D01*
X176901079Y-112308700D01*
X174147043Y-109554664D01*
X195045001Y-109554664D01*
X195045001Y-110072138D01*
X195145955Y-110579669D01*
X195343984Y-111057752D01*
X195631477Y-111488016D01*
X195997386Y-111853925D01*
X196427650Y-112141418D01*
X196905733Y-112339447D01*
X197413264Y-112440401D01*
X197930738Y-112440401D01*
X198438269Y-112339447D01*
X198916352Y-112141418D01*
X199346616Y-111853925D01*
X199712525Y-111488016D01*
X200000018Y-111057752D01*
X200198047Y-110579669D01*
X200299001Y-110072138D01*
X200299001Y-109554664D01*
X200260929Y-109363258D01*
X203713000Y-109363258D01*
X203713000Y-109762542D01*
X203790896Y-110154154D01*
X203943696Y-110523045D01*
X204165526Y-110855037D01*
X204447863Y-111137374D01*
X204779855Y-111359204D01*
X205148746Y-111512004D01*
X205540358Y-111589900D01*
X205939642Y-111589900D01*
X206331254Y-111512004D01*
X206700145Y-111359204D01*
X206739556Y-111332871D01*
X206830072Y-111305413D01*
X207156151Y-111131120D01*
X207441961Y-110896561D01*
X207500743Y-110824935D01*
X208805440Y-109520238D01*
X208877061Y-109461461D01*
X208937586Y-109387712D01*
X209041240Y-109261409D01*
X209111620Y-109175651D01*
X209155017Y-109094461D01*
X210770526Y-107478953D01*
X211201000Y-107478953D01*
X211421931Y-107457193D01*
X211634371Y-107392750D01*
X211830157Y-107288100D01*
X212001765Y-107147265D01*
X212142600Y-106975657D01*
X212200617Y-106867116D01*
X212415520Y-106937063D01*
X212661500Y-106817094D01*
X212661500Y-105473500D01*
X212641500Y-105473500D01*
X212641500Y-105219500D01*
X212661500Y-105219500D01*
X212661500Y-103875906D01*
X212415520Y-103755937D01*
X212200617Y-103825884D01*
X212142600Y-103717343D01*
X212001765Y-103545735D01*
X211830157Y-103404900D01*
X211634371Y-103300250D01*
X211541300Y-103272017D01*
X211541300Y-99798302D01*
X211574993Y-99687231D01*
X211596753Y-99466300D01*
X211596753Y-97866300D01*
X211574993Y-97645369D01*
X211510550Y-97432929D01*
X211405900Y-97237143D01*
X211265065Y-97065535D01*
X211093457Y-96924700D01*
X210933449Y-96839174D01*
X211021871Y-96652304D01*
X211090600Y-96378116D01*
X211104517Y-96095788D01*
X211063087Y-95816170D01*
X210967903Y-95550008D01*
X210900971Y-95424786D01*
X210657002Y-95353203D01*
X209843905Y-96166300D01*
X209858048Y-96180443D01*
X209678443Y-96360048D01*
X209664300Y-96345905D01*
X209650158Y-96360048D01*
X209470553Y-96180443D01*
X209484695Y-96166300D01*
X208671598Y-95353203D01*
X208427629Y-95424786D01*
X208306729Y-95680296D01*
X208238000Y-95954484D01*
X208224083Y-96236812D01*
X208265513Y-96516430D01*
X208360697Y-96782592D01*
X208391876Y-96840924D01*
X208235143Y-96924700D01*
X208063535Y-97065535D01*
X207922700Y-97237143D01*
X207818050Y-97432929D01*
X207753607Y-97645369D01*
X207731847Y-97866300D01*
X207731847Y-99466300D01*
X207753607Y-99687231D01*
X207787301Y-99798305D01*
X207787300Y-104670097D01*
X207778219Y-104762300D01*
X207787300Y-104854502D01*
X207787300Y-104854509D01*
X207805947Y-105043828D01*
X207814083Y-105126438D01*
X206281364Y-106659158D01*
X206209739Y-106717939D01*
X205975180Y-107003749D01*
X205931784Y-107084937D01*
X205466039Y-107550683D01*
X205148746Y-107613796D01*
X204779855Y-107766596D01*
X204447863Y-107988426D01*
X204165526Y-108270763D01*
X203943696Y-108602755D01*
X203790896Y-108971646D01*
X203713000Y-109363258D01*
X200260929Y-109363258D01*
X200198047Y-109047133D01*
X200000018Y-108569050D01*
X199712525Y-108138786D01*
X199346616Y-107772877D01*
X198916352Y-107485384D01*
X198438269Y-107287355D01*
X197930738Y-107186401D01*
X197413264Y-107186401D01*
X196905733Y-107287355D01*
X196427650Y-107485384D01*
X195997386Y-107772877D01*
X195631477Y-108138786D01*
X195343984Y-108569050D01*
X195145955Y-109047133D01*
X195045001Y-109554664D01*
X174147043Y-109554664D01*
X174076478Y-109484100D01*
X191753998Y-109484100D01*
X191846200Y-109493181D01*
X191938402Y-109484100D01*
X191938410Y-109484100D01*
X192214156Y-109456941D01*
X192567972Y-109349613D01*
X192894051Y-109175320D01*
X193179861Y-108940761D01*
X193238644Y-108869134D01*
X196624179Y-105483600D01*
X201332312Y-105483600D01*
X201506386Y-105555704D01*
X201897998Y-105633600D01*
X202297282Y-105633600D01*
X202688894Y-105555704D01*
X203057785Y-105402904D01*
X203389777Y-105181074D01*
X203481267Y-105089584D01*
X203493460Y-105096102D01*
X203613158Y-105132412D01*
X203737640Y-105144672D01*
X204351890Y-105141600D01*
X204510640Y-104982850D01*
X204510640Y-103733600D01*
X204764640Y-103733600D01*
X204764640Y-104982850D01*
X204923390Y-105141600D01*
X205537640Y-105144672D01*
X205662122Y-105132412D01*
X205781820Y-105096102D01*
X205892134Y-105037137D01*
X205988825Y-104957785D01*
X206068177Y-104861094D01*
X206127142Y-104750780D01*
X206163452Y-104631082D01*
X206175712Y-104506600D01*
X206172640Y-103892350D01*
X206013890Y-103733600D01*
X204764640Y-103733600D01*
X204510640Y-103733600D01*
X204490640Y-103733600D01*
X204490640Y-103479600D01*
X204510640Y-103479600D01*
X204510640Y-102230350D01*
X204764640Y-102230350D01*
X204764640Y-103479600D01*
X206013890Y-103479600D01*
X206172640Y-103320850D01*
X206175712Y-102706600D01*
X206163452Y-102582118D01*
X206127142Y-102462420D01*
X206068177Y-102352106D01*
X205988825Y-102255415D01*
X205892134Y-102176063D01*
X205781820Y-102117098D01*
X205662122Y-102080788D01*
X205537640Y-102068528D01*
X204923390Y-102071600D01*
X204764640Y-102230350D01*
X204510640Y-102230350D01*
X204351890Y-102071600D01*
X203737640Y-102068528D01*
X203613158Y-102080788D01*
X203493460Y-102117098D01*
X203481267Y-102123616D01*
X203389777Y-102032126D01*
X203057785Y-101810296D01*
X202688894Y-101657496D01*
X202297282Y-101579600D01*
X201897998Y-101579600D01*
X201506386Y-101657496D01*
X201332312Y-101729600D01*
X195938901Y-101729600D01*
X195846699Y-101720519D01*
X195754497Y-101729600D01*
X195754490Y-101729600D01*
X195514185Y-101753268D01*
X195478743Y-101756759D01*
X195324681Y-101803493D01*
X195124928Y-101864087D01*
X194798849Y-102038380D01*
X194752992Y-102076014D01*
X194585311Y-102213627D01*
X194513039Y-102272939D01*
X194454261Y-102344560D01*
X191068722Y-105730100D01*
X172957962Y-105730100D01*
X172706593Y-105680100D01*
X172327007Y-105680100D01*
X171954715Y-105754153D01*
X171604023Y-105899415D01*
X171288409Y-106110301D01*
X171030900Y-106367810D01*
X170773391Y-106110301D01*
X170457777Y-105899415D01*
X170107085Y-105754153D01*
X169964646Y-105725820D01*
X166090225Y-101851400D01*
X166106638Y-101851400D01*
X166358007Y-101901400D01*
X166737593Y-101901400D01*
X166988962Y-101851400D01*
X168897311Y-101851400D01*
X169100844Y-101913141D01*
X169468800Y-101949381D01*
X169836756Y-101913141D01*
X169998422Y-101864100D01*
X172075638Y-101864100D01*
X172327007Y-101914100D01*
X172706593Y-101914100D01*
X173078885Y-101840047D01*
X173429577Y-101694785D01*
X173550331Y-101614100D01*
X201024586Y-101614100D01*
X201104500Y-101621971D01*
X201184414Y-101614100D01*
X201184425Y-101614100D01*
X201423448Y-101590558D01*
X201730138Y-101497525D01*
X202012786Y-101346446D01*
X202260529Y-101143129D01*
X202311479Y-101081046D01*
X208218927Y-95173598D01*
X208851203Y-95173598D01*
X209664300Y-95986695D01*
X210477397Y-95173598D01*
X210405814Y-94929629D01*
X210150304Y-94808729D01*
X209876116Y-94740000D01*
X209593788Y-94726083D01*
X209314170Y-94767513D01*
X209048008Y-94862697D01*
X208922786Y-94929629D01*
X208851203Y-95173598D01*
X208218927Y-95173598D01*
X210757326Y-92635200D01*
X213867175Y-92635200D01*
X215894557Y-94662583D01*
G37*
X215894557Y-94662583D02*
X215690108Y-94735697D01*
X215564886Y-94802629D01*
X215493303Y-95046598D01*
X216306400Y-95859695D01*
X216320543Y-95845553D01*
X216500148Y-96025158D01*
X216486005Y-96039300D01*
X216500148Y-96053443D01*
X216320543Y-96233048D01*
X216306400Y-96218905D01*
X216292258Y-96233048D01*
X216112653Y-96053443D01*
X216126795Y-96039300D01*
X215313698Y-95226203D01*
X215069729Y-95297786D01*
X214948829Y-95553296D01*
X214880100Y-95827484D01*
X214866183Y-96109812D01*
X214907613Y-96389430D01*
X215002797Y-96655592D01*
X215033976Y-96713924D01*
X214877243Y-96797700D01*
X214705635Y-96938535D01*
X214564800Y-97110143D01*
X214460150Y-97305929D01*
X214395707Y-97518369D01*
X214373947Y-97739300D01*
X214373947Y-97817275D01*
X214066461Y-98124761D01*
X213994840Y-98183539D01*
X213936062Y-98255160D01*
X213936059Y-98255163D01*
X213895370Y-98304743D01*
X213760281Y-98469349D01*
X213634644Y-98704400D01*
X213585988Y-98795428D01*
X213478659Y-99149244D01*
X213442419Y-99517200D01*
X213451501Y-99609412D01*
X213451500Y-103864365D01*
X213379594Y-103826929D01*
X213161480Y-103755937D01*
X212915500Y-103875906D01*
X212915500Y-105219500D01*
X212935500Y-105219500D01*
X212935500Y-105473500D01*
X212915500Y-105473500D01*
X212915500Y-106817094D01*
X213161480Y-106937063D01*
X213379594Y-106866071D01*
X213655423Y-106722469D01*
X213699549Y-106687051D01*
X213701501Y-106689429D01*
X213701501Y-107526676D01*
X213693629Y-107606600D01*
X213701501Y-107686525D01*
X213725043Y-107925548D01*
X213817166Y-108229239D01*
X213818076Y-108232238D01*
X213969154Y-108514885D01*
X214058330Y-108623547D01*
X211800500Y-108623547D01*
X211579569Y-108645307D01*
X211367129Y-108709750D01*
X211171343Y-108814400D01*
X210999735Y-108955235D01*
X210858900Y-109126843D01*
X210754250Y-109322629D01*
X210689807Y-109535069D01*
X210668047Y-109756000D01*
X210668047Y-112140374D01*
X205117975Y-117690447D01*
X204840000Y-117690447D01*
X204619069Y-117712207D01*
X204406629Y-117776650D01*
X204210843Y-117881300D01*
X204039235Y-118022135D01*
X203898400Y-118193743D01*
X203793750Y-118389529D01*
X203729307Y-118601969D01*
X203707547Y-118822900D01*
X203707547Y-120622900D01*
X203729307Y-120843831D01*
X203793750Y-121056271D01*
X203898400Y-121252057D01*
X204039235Y-121423665D01*
X204210843Y-121564500D01*
X204406629Y-121669150D01*
X204619069Y-121733593D01*
X204840000Y-121755353D01*
X206640000Y-121755353D01*
X206860931Y-121733593D01*
X207073371Y-121669150D01*
X207269157Y-121564500D01*
X207440765Y-121423665D01*
X207581600Y-121252057D01*
X207686250Y-121056271D01*
X207750693Y-120843831D01*
X207772453Y-120622900D01*
X207772453Y-120344925D01*
X209111378Y-119006000D01*
X211162428Y-119006000D01*
X211174688Y-119130482D01*
X211210998Y-119250180D01*
X211269963Y-119360494D01*
X211349315Y-119457185D01*
X211446006Y-119536537D01*
X211556320Y-119595502D01*
X211676018Y-119631812D01*
X211800500Y-119644072D01*
X213264750Y-119641000D01*
X213423500Y-119482250D01*
X213423500Y-117633000D01*
X213677500Y-117633000D01*
X213677500Y-119482250D01*
X213836250Y-119641000D01*
X215300500Y-119644072D01*
X215424982Y-119631812D01*
X215544680Y-119595502D01*
X215654994Y-119536537D01*
X215751685Y-119457185D01*
X215831037Y-119360494D01*
X215890002Y-119250180D01*
X215926312Y-119130482D01*
X215938572Y-119006000D01*
X215935500Y-117791750D01*
X215776750Y-117633000D01*
X213677500Y-117633000D01*
X213423500Y-117633000D01*
X211324250Y-117633000D01*
X211165500Y-117791750D01*
X211162428Y-119006000D01*
X209111378Y-119006000D01*
X211164823Y-116952556D01*
X211165500Y-117220250D01*
X211324250Y-117379000D01*
X213423500Y-117379000D01*
X213423500Y-115529750D01*
X213264750Y-115371000D01*
X212747464Y-115369915D01*
X213728926Y-114388453D01*
X215300500Y-114388453D01*
X215368047Y-114381800D01*
X215368047Y-115374581D01*
X215300500Y-115367928D01*
X213836250Y-115371000D01*
X213677500Y-115529750D01*
X213677500Y-117379000D01*
X215776750Y-117379000D01*
X215935500Y-117220250D01*
X215936622Y-116776852D01*
X215956016Y-116800484D01*
X216260219Y-117050136D01*
X216607281Y-117235645D01*
X216983865Y-117349880D01*
X217375500Y-117388453D01*
X219073511Y-117388453D01*
X219073511Y-120077764D01*
X214895875Y-124255400D01*
X111075025Y-124255400D01*
X110077022Y-123257397D01*
X130761308Y-123257397D01*
X130838943Y-123506472D01*
X131102983Y-123632371D01*
X131386511Y-123704339D01*
X131678631Y-123719611D01*
X131968119Y-123677599D01*
X132243847Y-123579919D01*
X132381257Y-123506472D01*
X132458892Y-123257397D01*
X137261308Y-123257397D01*
X137338943Y-123506472D01*
X137602983Y-123632371D01*
X137886511Y-123704339D01*
X138178631Y-123719611D01*
X138468119Y-123677599D01*
X138743847Y-123579919D01*
X138881257Y-123506472D01*
X138958892Y-123257397D01*
X138895392Y-123193897D01*
X142686608Y-123193897D01*
X142764243Y-123442972D01*
X143028283Y-123568871D01*
X143311811Y-123640839D01*
X143603931Y-123656111D01*
X143893419Y-123614099D01*
X144169147Y-123516419D01*
X144306557Y-123442972D01*
X144384192Y-123193897D01*
X149186608Y-123193897D01*
X149264243Y-123442972D01*
X149528283Y-123568871D01*
X149811811Y-123640839D01*
X150103931Y-123656111D01*
X150393419Y-123614099D01*
X150669147Y-123516419D01*
X150806557Y-123442972D01*
X150880233Y-123206597D01*
X171769608Y-123206597D01*
X171847243Y-123455672D01*
X172111283Y-123581571D01*
X172394811Y-123653539D01*
X172686931Y-123668811D01*
X172976419Y-123626799D01*
X173252147Y-123529119D01*
X173389557Y-123455672D01*
X173467192Y-123206597D01*
X178269608Y-123206597D01*
X178347243Y-123455672D01*
X178611283Y-123581571D01*
X178894811Y-123653539D01*
X179186931Y-123668811D01*
X179476419Y-123626799D01*
X179752147Y-123529119D01*
X179889557Y-123455672D01*
X179967192Y-123206597D01*
X183326608Y-123206597D01*
X183404243Y-123455672D01*
X183668283Y-123581571D01*
X183951811Y-123653539D01*
X184243931Y-123668811D01*
X184533419Y-123626799D01*
X184809147Y-123529119D01*
X184946557Y-123455672D01*
X185024192Y-123206597D01*
X189826608Y-123206597D01*
X189904243Y-123455672D01*
X190168283Y-123581571D01*
X190451811Y-123653539D01*
X190743931Y-123668811D01*
X191033419Y-123626799D01*
X191309147Y-123529119D01*
X191446557Y-123455672D01*
X191524192Y-123206597D01*
X190675400Y-122357805D01*
X189826608Y-123206597D01*
X185024192Y-123206597D01*
X184175400Y-122357805D01*
X183326608Y-123206597D01*
X179967192Y-123206597D01*
X179118400Y-122357805D01*
X178269608Y-123206597D01*
X173467192Y-123206597D01*
X172618400Y-122357805D01*
X171769608Y-123206597D01*
X150880233Y-123206597D01*
X150884192Y-123193897D01*
X150035400Y-122345105D01*
X149186608Y-123193897D01*
X144384192Y-123193897D01*
X143535400Y-122345105D01*
X142686608Y-123193897D01*
X138895392Y-123193897D01*
X138110100Y-122408605D01*
X137261308Y-123257397D01*
X132458892Y-123257397D01*
X131610100Y-122408605D01*
X130761308Y-123257397D01*
X110077022Y-123257397D01*
X109117156Y-122297531D01*
X130119489Y-122297531D01*
X130161501Y-122587019D01*
X130259181Y-122862747D01*
X130332628Y-123000157D01*
X130581703Y-123077792D01*
X131430495Y-122229000D01*
X131789705Y-122229000D01*
X132638497Y-123077792D01*
X132887572Y-123000157D01*
X133013471Y-122736117D01*
X133085439Y-122452589D01*
X133093545Y-122297531D01*
X136619489Y-122297531D01*
X136661501Y-122587019D01*
X136759181Y-122862747D01*
X136832628Y-123000157D01*
X137081703Y-123077792D01*
X137930495Y-122229000D01*
X137081703Y-121380208D01*
X136832628Y-121457843D01*
X136706729Y-121721883D01*
X136634761Y-122005411D01*
X136619489Y-122297531D01*
X133093545Y-122297531D01*
X133100711Y-122160469D01*
X133058699Y-121870981D01*
X132961019Y-121595253D01*
X132887572Y-121457843D01*
X132638497Y-121380208D01*
X131789705Y-122229000D01*
X131430495Y-122229000D01*
X130581703Y-121380208D01*
X130332628Y-121457843D01*
X130206729Y-121721883D01*
X130134761Y-122005411D01*
X130119489Y-122297531D01*
X109117156Y-122297531D01*
X108020228Y-121200603D01*
X130761308Y-121200603D01*
X131610100Y-122049395D01*
X132458892Y-121200603D01*
X132381257Y-120951528D01*
X132117217Y-120825629D01*
X131833689Y-120753661D01*
X131541569Y-120738389D01*
X131252081Y-120780401D01*
X130976353Y-120878081D01*
X130838943Y-120951528D01*
X130761308Y-121200603D01*
X108020228Y-121200603D01*
X107991725Y-121172100D01*
X110307347Y-121172100D01*
X110386125Y-121156430D01*
X110466050Y-121148558D01*
X110542905Y-121125244D01*
X110621680Y-121109575D01*
X110695881Y-121078840D01*
X110772740Y-121055525D01*
X110843575Y-121017663D01*
X110917775Y-120986928D01*
X110984555Y-120942307D01*
X111055388Y-120904446D01*
X111117471Y-120853495D01*
X111184254Y-120808873D01*
X111241049Y-120752078D01*
X111303131Y-120701129D01*
X111354082Y-120639045D01*
X111410875Y-120582252D01*
X111455497Y-120515469D01*
X111506448Y-120453386D01*
X111544309Y-120382553D01*
X111588930Y-120315773D01*
X111619665Y-120241573D01*
X111657527Y-120170738D01*
X111680842Y-120093879D01*
X111711577Y-120019678D01*
X111727246Y-119940903D01*
X111750560Y-119864048D01*
X111758432Y-119784123D01*
X111774102Y-119705345D01*
X111774102Y-119625025D01*
X111781974Y-119545100D01*
X111778359Y-119508400D01*
X113822986Y-119508400D01*
X113902900Y-119516271D01*
X113982814Y-119508400D01*
X113982825Y-119508400D01*
X114221848Y-119484858D01*
X114528538Y-119391825D01*
X114811186Y-119240746D01*
X115058929Y-119037429D01*
X115109879Y-118975346D01*
X117692652Y-116392574D01*
X117754729Y-116341629D01*
X117805675Y-116279551D01*
X117805678Y-116279548D01*
X117958046Y-116093886D01*
X117967675Y-116075872D01*
X118109125Y-115811238D01*
X118202158Y-115504548D01*
X118225700Y-115265525D01*
X118225700Y-115265517D01*
X118233571Y-115185600D01*
X118225700Y-115105683D01*
X118225700Y-114954398D01*
X118340300Y-114814757D01*
X118444950Y-114618971D01*
X118509393Y-114406531D01*
X118531153Y-114185600D01*
X118531153Y-112585600D01*
X118509393Y-112364669D01*
X118444950Y-112152229D01*
X118340300Y-111956443D01*
X118248656Y-111844775D01*
X118306385Y-111758377D01*
X118451647Y-111407685D01*
X118525700Y-111035393D01*
X118525700Y-110655807D01*
X118451647Y-110283515D01*
X118306385Y-109932823D01*
X118095499Y-109617209D01*
X118053890Y-109575600D01*
X118095499Y-109533991D01*
X118306385Y-109218377D01*
X118451647Y-108867685D01*
X118525700Y-108495393D01*
X118525700Y-108115807D01*
X118451647Y-107743515D01*
X118306385Y-107392823D01*
X118095499Y-107077209D01*
X117827091Y-106808801D01*
X117677277Y-106708699D01*
X117829737Y-106503020D01*
X117949946Y-106248687D01*
X117990604Y-106114639D01*
X117868615Y-105892600D01*
X116725700Y-105892600D01*
X116725700Y-105912600D01*
X116471700Y-105912600D01*
X116471700Y-105892600D01*
X115328785Y-105892600D01*
X115206796Y-106114639D01*
X115247454Y-106248687D01*
X115367663Y-106503020D01*
X115520123Y-106708699D01*
X115370309Y-106808801D01*
X115101901Y-107077209D01*
X114891015Y-107392823D01*
X114745753Y-107743515D01*
X114671700Y-108115807D01*
X114671700Y-108495393D01*
X114745753Y-108867685D01*
X114891015Y-109218377D01*
X114891164Y-109218600D01*
X112792414Y-109218600D01*
X112712499Y-109210729D01*
X112632585Y-109218600D01*
X112632575Y-109218600D01*
X112393552Y-109242142D01*
X112086862Y-109335175D01*
X111917293Y-109425812D01*
X111804214Y-109486254D01*
X111618552Y-109638622D01*
X111618549Y-109638625D01*
X111556471Y-109689571D01*
X111505525Y-109751649D01*
X107534595Y-113722579D01*
X107562782Y-113436400D01*
X107526541Y-113068444D01*
X107419213Y-112714628D01*
X107244920Y-112388549D01*
X107010361Y-112102739D01*
X106724551Y-111868180D01*
X106398472Y-111693887D01*
X106044656Y-111586559D01*
X105768910Y-111559400D01*
X102600901Y-111559400D01*
X102709946Y-111328687D01*
X102750604Y-111194639D01*
X102628615Y-110972600D01*
X101485700Y-110972600D01*
X101485700Y-110992600D01*
X101231700Y-110992600D01*
X101231700Y-110972600D01*
X100088785Y-110972600D01*
X99966796Y-111194639D01*
X100007454Y-111328687D01*
X100127663Y-111583020D01*
X100280123Y-111788699D01*
X100130309Y-111888801D01*
X99861901Y-112157209D01*
X99651015Y-112472823D01*
X99601789Y-112591664D01*
X96914179Y-109904054D01*
X96863229Y-109841971D01*
X96615486Y-109638654D01*
X96332838Y-109487575D01*
X96026148Y-109394542D01*
X95787125Y-109371000D01*
X95787114Y-109371000D01*
X95707200Y-109363129D01*
X95638829Y-109369863D01*
X95746941Y-109224920D01*
X95872125Y-108962099D01*
X95916776Y-108814890D01*
X95795455Y-108585000D01*
X94602300Y-108585000D01*
X94602300Y-108605000D01*
X94348300Y-108605000D01*
X94348300Y-108585000D01*
X93155145Y-108585000D01*
X93033824Y-108814890D01*
X93078475Y-108962099D01*
X93203659Y-109224920D01*
X93325642Y-109388459D01*
X93215036Y-109462364D01*
X92939664Y-109737736D01*
X92723305Y-110061539D01*
X92574275Y-110421330D01*
X92498300Y-110803282D01*
X92498300Y-111192718D01*
X92574275Y-111574670D01*
X92723305Y-111934461D01*
X92939664Y-112258264D01*
X92949400Y-112268000D01*
X92939664Y-112277736D01*
X92723305Y-112601539D01*
X92574275Y-112961330D01*
X92498300Y-113343282D01*
X92498300Y-113732718D01*
X92574275Y-114114670D01*
X92723305Y-114474461D01*
X92751342Y-114516421D01*
X92683700Y-114598843D01*
X92579050Y-114794629D01*
X92514607Y-115007069D01*
X92492847Y-115228000D01*
X92492847Y-116928000D01*
X92514607Y-117148931D01*
X92579050Y-117361371D01*
X92683700Y-117557157D01*
X92824535Y-117728765D01*
X92996143Y-117869600D01*
X93086880Y-117918100D01*
X92837826Y-117918100D01*
X91898600Y-116978875D01*
X91898600Y-101461125D01*
X91948824Y-101410900D01*
X92652632Y-101410900D01*
X92672135Y-101434665D01*
X92843743Y-101575500D01*
X93039529Y-101680150D01*
X93251969Y-101744593D01*
X93347307Y-101753983D01*
X93215036Y-101842364D01*
X92939664Y-102117736D01*
X92723305Y-102441539D01*
X92574275Y-102801330D01*
X92498300Y-103183282D01*
X92498300Y-103572718D01*
X92574275Y-103954670D01*
X92723305Y-104314461D01*
X92939664Y-104638264D01*
X92949400Y-104648000D01*
X92939664Y-104657736D01*
X92723305Y-104981539D01*
X92574275Y-105341330D01*
X92498300Y-105723282D01*
X92498300Y-106112718D01*
X92574275Y-106494670D01*
X92723305Y-106854461D01*
X92939664Y-107178264D01*
X93215036Y-107453636D01*
X93325642Y-107527541D01*
X93203659Y-107691080D01*
X93078475Y-107953901D01*
X93033824Y-108101110D01*
X93155145Y-108331000D01*
X94348300Y-108331000D01*
X94348300Y-108311000D01*
X94602300Y-108311000D01*
X94602300Y-108331000D01*
X95795455Y-108331000D01*
X95916776Y-108101110D01*
X95872125Y-107953901D01*
X95746941Y-107691080D01*
X95710780Y-107642600D01*
X99547554Y-107642600D01*
X99505753Y-107743515D01*
X99431700Y-108115807D01*
X99431700Y-108495393D01*
X99505753Y-108867685D01*
X99651015Y-109218377D01*
X99861901Y-109533991D01*
X100130309Y-109802399D01*
X100280123Y-109902501D01*
X100127663Y-110108180D01*
X100007454Y-110362513D01*
X99966796Y-110496561D01*
X100088785Y-110718600D01*
X101231700Y-110718600D01*
X101231700Y-110698600D01*
X101485700Y-110698600D01*
X101485700Y-110718600D01*
X102628615Y-110718600D01*
X102750604Y-110496561D01*
X102709946Y-110362513D01*
X102589737Y-110108180D01*
X102437277Y-109902501D01*
X102587091Y-109802399D01*
X102855499Y-109533991D01*
X103066385Y-109218377D01*
X103211647Y-108867685D01*
X103285700Y-108495393D01*
X103285700Y-108115807D01*
X103211647Y-107743515D01*
X103066385Y-107392823D01*
X103066236Y-107392600D01*
X105012586Y-107392600D01*
X105092500Y-107400471D01*
X105172414Y-107392600D01*
X105172425Y-107392600D01*
X105411448Y-107369058D01*
X105718138Y-107276025D01*
X106000786Y-107124946D01*
X106248529Y-106921629D01*
X106299479Y-106859546D01*
X108766393Y-104392633D01*
X108775296Y-104405958D01*
X108813154Y-104476785D01*
X108864102Y-104538865D01*
X108908727Y-104605652D01*
X108965522Y-104662447D01*
X109016471Y-104724529D01*
X109078553Y-104775478D01*
X109135348Y-104832273D01*
X109202135Y-104876898D01*
X109264215Y-104927846D01*
X109335042Y-104965704D01*
X109401827Y-105010328D01*
X109476034Y-105041066D01*
X109546862Y-105078924D01*
X109623711Y-105102236D01*
X109697922Y-105132975D01*
X109776709Y-105148647D01*
X109853553Y-105171957D01*
X109933466Y-105179828D01*
X110012255Y-105195500D01*
X110092586Y-105195500D01*
X110172500Y-105203371D01*
X110252414Y-105195500D01*
X110332745Y-105195500D01*
X110411534Y-105179828D01*
X110491447Y-105171957D01*
X110568291Y-105148647D01*
X110647078Y-105132975D01*
X110721289Y-105102236D01*
X110798138Y-105078924D01*
X110868966Y-105041066D01*
X110943173Y-105010328D01*
X111009958Y-104965704D01*
X111080785Y-104927846D01*
X111142865Y-104876898D01*
X111179230Y-104852600D01*
X115497812Y-104852600D01*
X115367663Y-105028180D01*
X115247454Y-105282513D01*
X115206796Y-105416561D01*
X115328785Y-105638600D01*
X116471700Y-105638600D01*
X116471700Y-105618600D01*
X116725700Y-105618600D01*
X116725700Y-105638600D01*
X117868615Y-105638600D01*
X117990604Y-105416561D01*
X117949946Y-105282513D01*
X117829737Y-105028180D01*
X117677277Y-104822501D01*
X117827091Y-104722399D01*
X118095499Y-104453991D01*
X118306385Y-104138377D01*
X118451647Y-103787685D01*
X118525700Y-103415393D01*
X118525700Y-103035807D01*
X118451647Y-102663515D01*
X118306385Y-102312823D01*
X118297750Y-102299900D01*
X119120184Y-102299900D01*
X119088775Y-102358662D01*
X119065460Y-102435521D01*
X119034725Y-102509722D01*
X119019056Y-102588497D01*
X118995742Y-102665352D01*
X118987870Y-102745277D01*
X118972200Y-102824055D01*
X118972200Y-103039357D01*
X118964329Y-103119271D01*
X118972200Y-103199185D01*
X118972200Y-103199195D01*
X118995742Y-103438218D01*
X119088775Y-103744908D01*
X119239854Y-104027556D01*
X119443171Y-104275300D01*
X119505254Y-104326250D01*
X122365405Y-107186401D01*
X121975264Y-107186401D01*
X121467733Y-107287355D01*
X120989650Y-107485384D01*
X120559386Y-107772877D01*
X120193477Y-108138786D01*
X119905984Y-108569050D01*
X119707955Y-109047133D01*
X119607001Y-109554664D01*
X119607001Y-110072138D01*
X119707955Y-110579669D01*
X119905984Y-111057752D01*
X120193477Y-111488016D01*
X120559386Y-111853925D01*
X120989650Y-112141418D01*
X121467733Y-112339447D01*
X121975264Y-112440401D01*
X122492738Y-112440401D01*
X123000269Y-112339447D01*
X123478352Y-112141418D01*
X123908616Y-111853925D01*
X124274525Y-111488016D01*
X124562018Y-111057752D01*
X124760047Y-110579669D01*
X124861001Y-110072138D01*
X124861001Y-109681997D01*
X129983101Y-114804098D01*
X129983100Y-116605471D01*
X129858105Y-116792539D01*
X129709075Y-117152330D01*
X129633100Y-117534282D01*
X129633100Y-117923718D01*
X129709075Y-118305670D01*
X129858105Y-118665461D01*
X130074464Y-118989264D01*
X130349836Y-119264636D01*
X130673639Y-119480995D01*
X131033430Y-119630025D01*
X131415382Y-119706000D01*
X131804818Y-119706000D01*
X132186770Y-119630025D01*
X132244772Y-119606000D01*
X137332622Y-119606000D01*
X138530150Y-120803529D01*
X138333689Y-120753661D01*
X138041569Y-120738389D01*
X137752081Y-120780401D01*
X137476353Y-120878081D01*
X137338943Y-120951528D01*
X137261308Y-121200603D01*
X138110100Y-122049395D01*
X138124243Y-122035253D01*
X138303848Y-122214858D01*
X138289705Y-122229000D01*
X139138497Y-123077792D01*
X139387572Y-123000157D01*
X139513471Y-122736117D01*
X139585439Y-122452589D01*
X139600711Y-122160469D01*
X139558699Y-121870981D01*
X139461019Y-121595253D01*
X139452883Y-121580031D01*
X139547328Y-121630513D01*
X139793815Y-121705283D01*
X139901143Y-121737841D01*
X139936585Y-121741332D01*
X140176890Y-121765000D01*
X140176897Y-121765000D01*
X140269099Y-121774081D01*
X140361301Y-121765000D01*
X142104966Y-121765000D01*
X142060061Y-121941911D01*
X142044789Y-122234031D01*
X142086801Y-122523519D01*
X142184481Y-122799247D01*
X142257928Y-122936657D01*
X142507003Y-123014292D01*
X143355795Y-122165500D01*
X143341653Y-122151358D01*
X143521258Y-121971753D01*
X143535400Y-121985895D01*
X143549543Y-121971753D01*
X143729148Y-122151358D01*
X143715005Y-122165500D01*
X144563797Y-123014292D01*
X144812872Y-122936657D01*
X144938771Y-122672617D01*
X145010739Y-122389089D01*
X145026011Y-122096969D01*
X144983999Y-121807481D01*
X144968950Y-121765000D01*
X148604966Y-121765000D01*
X148560061Y-121941911D01*
X148544789Y-122234031D01*
X148586801Y-122523519D01*
X148684481Y-122799247D01*
X148757928Y-122936657D01*
X149007003Y-123014292D01*
X149855795Y-122165500D01*
X149841653Y-122151358D01*
X150021258Y-121971753D01*
X150035400Y-121985895D01*
X150049543Y-121971753D01*
X150229148Y-122151358D01*
X150215005Y-122165500D01*
X151063797Y-123014292D01*
X151312872Y-122936657D01*
X151438771Y-122672617D01*
X151510739Y-122389089D01*
X151526011Y-122096969D01*
X151483999Y-121807481D01*
X151468950Y-121765000D01*
X151685498Y-121765000D01*
X151777700Y-121774081D01*
X151869902Y-121765000D01*
X151869910Y-121765000D01*
X152145656Y-121737841D01*
X152499472Y-121630513D01*
X152825551Y-121456220D01*
X153111361Y-121221661D01*
X153170144Y-121150034D01*
X154277400Y-120042778D01*
X154277400Y-120095937D01*
X154378354Y-120603468D01*
X154576383Y-121081551D01*
X154863876Y-121511815D01*
X155229785Y-121877724D01*
X155660049Y-122165217D01*
X156138132Y-122363246D01*
X156645663Y-122464200D01*
X157163137Y-122464200D01*
X157670668Y-122363246D01*
X158148751Y-122165217D01*
X158579015Y-121877724D01*
X158944924Y-121511815D01*
X159067175Y-121328853D01*
X160092352Y-121328853D01*
X160248362Y-121644414D01*
X160623145Y-121835220D01*
X161027951Y-121949244D01*
X161447224Y-121982102D01*
X161864851Y-121932534D01*
X162264783Y-121802443D01*
X162560438Y-121644414D01*
X162716448Y-121328853D01*
X161404400Y-120016805D01*
X160092352Y-121328853D01*
X159067175Y-121328853D01*
X159232417Y-121081551D01*
X159418177Y-120633087D01*
X159439157Y-120697583D01*
X159597186Y-120993238D01*
X159912747Y-121149248D01*
X161224795Y-119837200D01*
X161210653Y-119823058D01*
X161390258Y-119643453D01*
X161404400Y-119657595D01*
X161418543Y-119643453D01*
X161598148Y-119823058D01*
X161584005Y-119837200D01*
X162896053Y-121149248D01*
X163211614Y-120993238D01*
X163271947Y-120874731D01*
X163271947Y-121337200D01*
X163293707Y-121558131D01*
X163358150Y-121770571D01*
X163462800Y-121966357D01*
X163603635Y-122137965D01*
X163775243Y-122278800D01*
X163971029Y-122383450D01*
X164183469Y-122447893D01*
X164404400Y-122469653D01*
X167404400Y-122469653D01*
X167625331Y-122447893D01*
X167837771Y-122383450D01*
X168033557Y-122278800D01*
X168072633Y-122246731D01*
X171127789Y-122246731D01*
X171169801Y-122536219D01*
X171267481Y-122811947D01*
X171340928Y-122949357D01*
X171590003Y-123026992D01*
X172438795Y-122178200D01*
X172798005Y-122178200D01*
X173646797Y-123026992D01*
X173895872Y-122949357D01*
X174021771Y-122685317D01*
X174093739Y-122401789D01*
X174101845Y-122246731D01*
X177627789Y-122246731D01*
X177669801Y-122536219D01*
X177767481Y-122811947D01*
X177840928Y-122949357D01*
X178090003Y-123026992D01*
X178938795Y-122178200D01*
X179298005Y-122178200D01*
X180146797Y-123026992D01*
X180395872Y-122949357D01*
X180521771Y-122685317D01*
X180593739Y-122401789D01*
X180601845Y-122246731D01*
X182684789Y-122246731D01*
X182726801Y-122536219D01*
X182824481Y-122811947D01*
X182897928Y-122949357D01*
X183147003Y-123026992D01*
X183995795Y-122178200D01*
X184355005Y-122178200D01*
X185203797Y-123026992D01*
X185452872Y-122949357D01*
X185578771Y-122685317D01*
X185650739Y-122401789D01*
X185658845Y-122246731D01*
X189184789Y-122246731D01*
X189226801Y-122536219D01*
X189324481Y-122811947D01*
X189397928Y-122949357D01*
X189647003Y-123026992D01*
X190495795Y-122178200D01*
X190855005Y-122178200D01*
X191703797Y-123026992D01*
X191952872Y-122949357D01*
X192078771Y-122685317D01*
X192150739Y-122401789D01*
X192166011Y-122109669D01*
X192123999Y-121820181D01*
X192026319Y-121544453D01*
X191952872Y-121407043D01*
X191703797Y-121329408D01*
X190855005Y-122178200D01*
X190495795Y-122178200D01*
X189647003Y-121329408D01*
X189397928Y-121407043D01*
X189272029Y-121671083D01*
X189200061Y-121954611D01*
X189184789Y-122246731D01*
X185658845Y-122246731D01*
X185666011Y-122109669D01*
X185623999Y-121820181D01*
X185526319Y-121544453D01*
X185452872Y-121407043D01*
X185203797Y-121329408D01*
X184355005Y-122178200D01*
X183995795Y-122178200D01*
X183147003Y-121329408D01*
X182897928Y-121407043D01*
X182772029Y-121671083D01*
X182700061Y-121954611D01*
X182684789Y-122246731D01*
X180601845Y-122246731D01*
X180609011Y-122109669D01*
X180566999Y-121820181D01*
X180469319Y-121544453D01*
X180395872Y-121407043D01*
X180146797Y-121329408D01*
X179298005Y-122178200D01*
X178938795Y-122178200D01*
X178090003Y-121329408D01*
X177840928Y-121407043D01*
X177715029Y-121671083D01*
X177643061Y-121954611D01*
X177627789Y-122246731D01*
X174101845Y-122246731D01*
X174109011Y-122109669D01*
X174066999Y-121820181D01*
X173969319Y-121544453D01*
X173895872Y-121407043D01*
X173646797Y-121329408D01*
X172798005Y-122178200D01*
X172438795Y-122178200D01*
X171590003Y-121329408D01*
X171340928Y-121407043D01*
X171215029Y-121671083D01*
X171143061Y-121954611D01*
X171127789Y-122246731D01*
X168072633Y-122246731D01*
X168205165Y-122137965D01*
X168346000Y-121966357D01*
X168450650Y-121770571D01*
X168515093Y-121558131D01*
X168536853Y-121337200D01*
X168536853Y-121149803D01*
X171769608Y-121149803D01*
X172618400Y-121998595D01*
X173467192Y-121149803D01*
X178269608Y-121149803D01*
X179118400Y-121998595D01*
X179967192Y-121149803D01*
X183326608Y-121149803D01*
X184175400Y-121998595D01*
X185024192Y-121149803D01*
X189826608Y-121149803D01*
X190675400Y-121998595D01*
X191524192Y-121149803D01*
X191446557Y-120900728D01*
X191182517Y-120774829D01*
X190898989Y-120702861D01*
X190606869Y-120687589D01*
X190317381Y-120729601D01*
X190041653Y-120827281D01*
X189904243Y-120900728D01*
X189826608Y-121149803D01*
X185024192Y-121149803D01*
X184946557Y-120900728D01*
X184682517Y-120774829D01*
X184398989Y-120702861D01*
X184106869Y-120687589D01*
X183817381Y-120729601D01*
X183541653Y-120827281D01*
X183404243Y-120900728D01*
X183326608Y-121149803D01*
X179967192Y-121149803D01*
X179889557Y-120900728D01*
X179625517Y-120774829D01*
X179341989Y-120702861D01*
X179049869Y-120687589D01*
X178760381Y-120729601D01*
X178484653Y-120827281D01*
X178347243Y-120900728D01*
X178269608Y-121149803D01*
X173467192Y-121149803D01*
X173389557Y-120900728D01*
X173125517Y-120774829D01*
X172841989Y-120702861D01*
X172549869Y-120687589D01*
X172260381Y-120729601D01*
X171984653Y-120827281D01*
X171847243Y-120900728D01*
X171769608Y-121149803D01*
X168536853Y-121149803D01*
X168536853Y-118337200D01*
X168515093Y-118116269D01*
X168450650Y-117903829D01*
X168346000Y-117708043D01*
X168205165Y-117536435D01*
X168033557Y-117395600D01*
X167837771Y-117290950D01*
X167625331Y-117226507D01*
X167404400Y-117204747D01*
X166493626Y-117204747D01*
X165199000Y-115910122D01*
X165199000Y-110589178D01*
X170741401Y-116131580D01*
X170741400Y-117043528D01*
X170717375Y-117101530D01*
X170641400Y-117483482D01*
X170641400Y-117872918D01*
X170717375Y-118254870D01*
X170866405Y-118614661D01*
X171082764Y-118938464D01*
X171358136Y-119213836D01*
X171681939Y-119430195D01*
X172041730Y-119579225D01*
X172423682Y-119655200D01*
X172813118Y-119655200D01*
X173195070Y-119579225D01*
X173253072Y-119555200D01*
X178483728Y-119555200D01*
X178541730Y-119579225D01*
X178923682Y-119655200D01*
X179313118Y-119655200D01*
X179695070Y-119579225D01*
X180054861Y-119430195D01*
X180378664Y-119213836D01*
X180654036Y-118938464D01*
X180870395Y-118614661D01*
X181019425Y-118254870D01*
X181095400Y-117872918D01*
X181095400Y-117483482D01*
X181019425Y-117101530D01*
X180870395Y-116741739D01*
X180654036Y-116417936D01*
X180378664Y-116142564D01*
X180259139Y-116062700D01*
X181416722Y-116062700D01*
X182298400Y-116944379D01*
X182298400Y-117043528D01*
X182274375Y-117101530D01*
X182198400Y-117483482D01*
X182198400Y-117872918D01*
X182274375Y-118254870D01*
X182423405Y-118614661D01*
X182639764Y-118938464D01*
X182915136Y-119213836D01*
X183238939Y-119430195D01*
X183598730Y-119579225D01*
X183980682Y-119655200D01*
X184370118Y-119655200D01*
X184752070Y-119579225D01*
X184810072Y-119555200D01*
X190040728Y-119555200D01*
X190098730Y-119579225D01*
X190480682Y-119655200D01*
X190870118Y-119655200D01*
X191252070Y-119579225D01*
X191611861Y-119430195D01*
X191935664Y-119213836D01*
X192211036Y-118938464D01*
X192427395Y-118614661D01*
X192576425Y-118254870D01*
X192652400Y-117872918D01*
X192652400Y-117483482D01*
X192576425Y-117101530D01*
X192427395Y-116741739D01*
X192211036Y-116417936D01*
X191935664Y-116142564D01*
X191611861Y-115926205D01*
X191252070Y-115777175D01*
X190870118Y-115701200D01*
X190480682Y-115701200D01*
X190098730Y-115777175D01*
X190040728Y-115801200D01*
X186025463Y-115801200D01*
X186025241Y-115798943D01*
X185988578Y-115678082D01*
X185917913Y-115445128D01*
X185743620Y-115119049D01*
X185600853Y-114945088D01*
X185567841Y-114904862D01*
X185567839Y-114904860D01*
X185509061Y-114833239D01*
X185437439Y-114774461D01*
X183586643Y-112923665D01*
X183527861Y-112852039D01*
X183242051Y-112617480D01*
X182915972Y-112443187D01*
X182562156Y-112335859D01*
X182286410Y-112308700D01*
X182286402Y-112308700D01*
X182194200Y-112299619D01*
X182101998Y-112308700D01*
X176901079Y-112308700D01*
X174147043Y-109554664D01*
X195045001Y-109554664D01*
X195045001Y-110072138D01*
X195145955Y-110579669D01*
X195343984Y-111057752D01*
X195631477Y-111488016D01*
X195997386Y-111853925D01*
X196427650Y-112141418D01*
X196905733Y-112339447D01*
X197413264Y-112440401D01*
X197930738Y-112440401D01*
X198438269Y-112339447D01*
X198916352Y-112141418D01*
X199346616Y-111853925D01*
X199712525Y-111488016D01*
X200000018Y-111057752D01*
X200198047Y-110579669D01*
X200299001Y-110072138D01*
X200299001Y-109554664D01*
X200260929Y-109363258D01*
X203713000Y-109363258D01*
X203713000Y-109762542D01*
X203790896Y-110154154D01*
X203943696Y-110523045D01*
X204165526Y-110855037D01*
X204447863Y-111137374D01*
X204779855Y-111359204D01*
X205148746Y-111512004D01*
X205540358Y-111589900D01*
X205939642Y-111589900D01*
X206331254Y-111512004D01*
X206700145Y-111359204D01*
X206739556Y-111332871D01*
X206830072Y-111305413D01*
X207156151Y-111131120D01*
X207441961Y-110896561D01*
X207500743Y-110824935D01*
X208805440Y-109520238D01*
X208877061Y-109461461D01*
X208937586Y-109387712D01*
X209041240Y-109261409D01*
X209111620Y-109175651D01*
X209155017Y-109094461D01*
X210770526Y-107478953D01*
X211201000Y-107478953D01*
X211421931Y-107457193D01*
X211634371Y-107392750D01*
X211830157Y-107288100D01*
X212001765Y-107147265D01*
X212142600Y-106975657D01*
X212200617Y-106867116D01*
X212415520Y-106937063D01*
X212661500Y-106817094D01*
X212661500Y-105473500D01*
X212641500Y-105473500D01*
X212641500Y-105219500D01*
X212661500Y-105219500D01*
X212661500Y-103875906D01*
X212415520Y-103755937D01*
X212200617Y-103825884D01*
X212142600Y-103717343D01*
X212001765Y-103545735D01*
X211830157Y-103404900D01*
X211634371Y-103300250D01*
X211541300Y-103272017D01*
X211541300Y-99798302D01*
X211574993Y-99687231D01*
X211596753Y-99466300D01*
X211596753Y-97866300D01*
X211574993Y-97645369D01*
X211510550Y-97432929D01*
X211405900Y-97237143D01*
X211265065Y-97065535D01*
X211093457Y-96924700D01*
X210933449Y-96839174D01*
X211021871Y-96652304D01*
X211090600Y-96378116D01*
X211104517Y-96095788D01*
X211063087Y-95816170D01*
X210967903Y-95550008D01*
X210900971Y-95424786D01*
X210657002Y-95353203D01*
X209843905Y-96166300D01*
X209858048Y-96180443D01*
X209678443Y-96360048D01*
X209664300Y-96345905D01*
X209650158Y-96360048D01*
X209470553Y-96180443D01*
X209484695Y-96166300D01*
X208671598Y-95353203D01*
X208427629Y-95424786D01*
X208306729Y-95680296D01*
X208238000Y-95954484D01*
X208224083Y-96236812D01*
X208265513Y-96516430D01*
X208360697Y-96782592D01*
X208391876Y-96840924D01*
X208235143Y-96924700D01*
X208063535Y-97065535D01*
X207922700Y-97237143D01*
X207818050Y-97432929D01*
X207753607Y-97645369D01*
X207731847Y-97866300D01*
X207731847Y-99466300D01*
X207753607Y-99687231D01*
X207787301Y-99798305D01*
X207787300Y-104670097D01*
X207778219Y-104762300D01*
X207787300Y-104854502D01*
X207787300Y-104854509D01*
X207805947Y-105043828D01*
X207814083Y-105126438D01*
X206281364Y-106659158D01*
X206209739Y-106717939D01*
X205975180Y-107003749D01*
X205931784Y-107084937D01*
X205466039Y-107550683D01*
X205148746Y-107613796D01*
X204779855Y-107766596D01*
X204447863Y-107988426D01*
X204165526Y-108270763D01*
X203943696Y-108602755D01*
X203790896Y-108971646D01*
X203713000Y-109363258D01*
X200260929Y-109363258D01*
X200198047Y-109047133D01*
X200000018Y-108569050D01*
X199712525Y-108138786D01*
X199346616Y-107772877D01*
X198916352Y-107485384D01*
X198438269Y-107287355D01*
X197930738Y-107186401D01*
X197413264Y-107186401D01*
X196905733Y-107287355D01*
X196427650Y-107485384D01*
X195997386Y-107772877D01*
X195631477Y-108138786D01*
X195343984Y-108569050D01*
X195145955Y-109047133D01*
X195045001Y-109554664D01*
X174147043Y-109554664D01*
X174076478Y-109484100D01*
X191753998Y-109484100D01*
X191846200Y-109493181D01*
X191938402Y-109484100D01*
X191938410Y-109484100D01*
X192214156Y-109456941D01*
X192567972Y-109349613D01*
X192894051Y-109175320D01*
X193179861Y-108940761D01*
X193238644Y-108869134D01*
X196624179Y-105483600D01*
X201332312Y-105483600D01*
X201506386Y-105555704D01*
X201897998Y-105633600D01*
X202297282Y-105633600D01*
X202688894Y-105555704D01*
X203057785Y-105402904D01*
X203389777Y-105181074D01*
X203481267Y-105089584D01*
X203493460Y-105096102D01*
X203613158Y-105132412D01*
X203737640Y-105144672D01*
X204351890Y-105141600D01*
X204510640Y-104982850D01*
X204510640Y-103733600D01*
X204764640Y-103733600D01*
X204764640Y-104982850D01*
X204923390Y-105141600D01*
X205537640Y-105144672D01*
X205662122Y-105132412D01*
X205781820Y-105096102D01*
X205892134Y-105037137D01*
X205988825Y-104957785D01*
X206068177Y-104861094D01*
X206127142Y-104750780D01*
X206163452Y-104631082D01*
X206175712Y-104506600D01*
X206172640Y-103892350D01*
X206013890Y-103733600D01*
X204764640Y-103733600D01*
X204510640Y-103733600D01*
X204490640Y-103733600D01*
X204490640Y-103479600D01*
X204510640Y-103479600D01*
X204510640Y-102230350D01*
X204764640Y-102230350D01*
X204764640Y-103479600D01*
X206013890Y-103479600D01*
X206172640Y-103320850D01*
X206175712Y-102706600D01*
X206163452Y-102582118D01*
X206127142Y-102462420D01*
X206068177Y-102352106D01*
X205988825Y-102255415D01*
X205892134Y-102176063D01*
X205781820Y-102117098D01*
X205662122Y-102080788D01*
X205537640Y-102068528D01*
X204923390Y-102071600D01*
X204764640Y-102230350D01*
X204510640Y-102230350D01*
X204351890Y-102071600D01*
X203737640Y-102068528D01*
X203613158Y-102080788D01*
X203493460Y-102117098D01*
X203481267Y-102123616D01*
X203389777Y-102032126D01*
X203057785Y-101810296D01*
X202688894Y-101657496D01*
X202297282Y-101579600D01*
X201897998Y-101579600D01*
X201506386Y-101657496D01*
X201332312Y-101729600D01*
X195938901Y-101729600D01*
X195846699Y-101720519D01*
X195754497Y-101729600D01*
X195754490Y-101729600D01*
X195514185Y-101753268D01*
X195478743Y-101756759D01*
X195324681Y-101803493D01*
X195124928Y-101864087D01*
X194798849Y-102038380D01*
X194752992Y-102076014D01*
X194585311Y-102213627D01*
X194513039Y-102272939D01*
X194454261Y-102344560D01*
X191068722Y-105730100D01*
X172957962Y-105730100D01*
X172706593Y-105680100D01*
X172327007Y-105680100D01*
X171954715Y-105754153D01*
X171604023Y-105899415D01*
X171288409Y-106110301D01*
X171030900Y-106367810D01*
X170773391Y-106110301D01*
X170457777Y-105899415D01*
X170107085Y-105754153D01*
X169964646Y-105725820D01*
X166090225Y-101851400D01*
X166106638Y-101851400D01*
X166358007Y-101901400D01*
X166737593Y-101901400D01*
X166988962Y-101851400D01*
X168897311Y-101851400D01*
X169100844Y-101913141D01*
X169468800Y-101949381D01*
X169836756Y-101913141D01*
X169998422Y-101864100D01*
X172075638Y-101864100D01*
X172327007Y-101914100D01*
X172706593Y-101914100D01*
X173078885Y-101840047D01*
X173429577Y-101694785D01*
X173550331Y-101614100D01*
X201024586Y-101614100D01*
X201104500Y-101621971D01*
X201184414Y-101614100D01*
X201184425Y-101614100D01*
X201423448Y-101590558D01*
X201730138Y-101497525D01*
X202012786Y-101346446D01*
X202260529Y-101143129D01*
X202311479Y-101081046D01*
X208218927Y-95173598D01*
X208851203Y-95173598D01*
X209664300Y-95986695D01*
X210477397Y-95173598D01*
X210405814Y-94929629D01*
X210150304Y-94808729D01*
X209876116Y-94740000D01*
X209593788Y-94726083D01*
X209314170Y-94767513D01*
X209048008Y-94862697D01*
X208922786Y-94929629D01*
X208851203Y-95173598D01*
X208218927Y-95173598D01*
X210757326Y-92635200D01*
X213867175Y-92635200D01*
X215894557Y-94662583D01*
G36*
X171800861Y-57992761D02*
G01*
X171729240Y-58051539D01*
X171718793Y-58064268D01*
X171717179Y-58062654D01*
X171666229Y-58000571D01*
X171418486Y-57797254D01*
X171135838Y-57646175D01*
X170829148Y-57553142D01*
X170590125Y-57529600D01*
X170590114Y-57529600D01*
X170510200Y-57521729D01*
X170430286Y-57529600D01*
X117170525Y-57529600D01*
X117090600Y-57521728D01*
X117010675Y-57529600D01*
X116771652Y-57553142D01*
X116464962Y-57646175D01*
X116182314Y-57797254D01*
X115996652Y-57949622D01*
X115996649Y-57949625D01*
X115934571Y-58000571D01*
X115883625Y-58062649D01*
X111593128Y-62353147D01*
X111520171Y-62314150D01*
X111307731Y-62249707D01*
X111086800Y-62227947D01*
X109486800Y-62227947D01*
X109265869Y-62249707D01*
X109053429Y-62314150D01*
X108857643Y-62418800D01*
X108686035Y-62559635D01*
X108545200Y-62731243D01*
X108440550Y-62927029D01*
X108376107Y-63139469D01*
X108354347Y-63360400D01*
X108354347Y-64960400D01*
X108376107Y-65181331D01*
X108440550Y-65393771D01*
X108545200Y-65589557D01*
X108686035Y-65761165D01*
X108857643Y-65902000D01*
X109053429Y-66006650D01*
X109265869Y-66071093D01*
X109486800Y-66092853D01*
X111086800Y-66092853D01*
X111307731Y-66071093D01*
X111520171Y-66006650D01*
X111715957Y-65902000D01*
X111855598Y-65787400D01*
X112006886Y-65787400D01*
X112086800Y-65795271D01*
X112166714Y-65787400D01*
X112166725Y-65787400D01*
X112405748Y-65763858D01*
X112712438Y-65670825D01*
X112995086Y-65519746D01*
X113242829Y-65316429D01*
X113293779Y-65254346D01*
X117764526Y-60783600D01*
X169836275Y-60783600D01*
X171203953Y-62151279D01*
X171203959Y-62151284D01*
X171226167Y-62173492D01*
X171243608Y-62261176D01*
X171386231Y-62605498D01*
X171593287Y-62915380D01*
X171856820Y-63178913D01*
X172166702Y-63385969D01*
X172511024Y-63528592D01*
X172876554Y-63601300D01*
X173249246Y-63601300D01*
X173614776Y-63528592D01*
X173959098Y-63385969D01*
X174268980Y-63178913D01*
X174532513Y-62915380D01*
X174647812Y-62742822D01*
X174698399Y-62793409D01*
X174814799Y-62677009D01*
X174882140Y-62917406D01*
X175131680Y-63034806D01*
X175399327Y-63101267D01*
X175674799Y-63114236D01*
X175947507Y-63073214D01*
X176206972Y-62979778D01*
X176323660Y-62917406D01*
X176391001Y-62677009D01*
X176507401Y-62793409D01*
X176557988Y-62742822D01*
X176673287Y-62915380D01*
X176936820Y-63178913D01*
X177246702Y-63385969D01*
X177591024Y-63528592D01*
X177678708Y-63546033D01*
X180806275Y-66673600D01*
X173650817Y-66673600D01*
X173570900Y-66665729D01*
X173490983Y-66673600D01*
X173490975Y-66673600D01*
X173251952Y-66697142D01*
X172945262Y-66790175D01*
X172779745Y-66878646D01*
X172662614Y-66941254D01*
X172476952Y-67093622D01*
X172476949Y-67093625D01*
X172414871Y-67144571D01*
X172363925Y-67206649D01*
X169353675Y-70216900D01*
X168779275Y-70216900D01*
X168540252Y-70240442D01*
X168288203Y-70316900D01*
X126617804Y-70316900D01*
X126542800Y-70309513D01*
X126467796Y-70316900D01*
X126467789Y-70316900D01*
X126270755Y-70336306D01*
X126243455Y-70338995D01*
X126024167Y-70405515D01*
X125955615Y-70426310D01*
X125690340Y-70568103D01*
X125690338Y-70568104D01*
X125690339Y-70568104D01*
X125516088Y-70711107D01*
X125516083Y-70711112D01*
X125457824Y-70758924D01*
X125410012Y-70817183D01*
X124206896Y-72020300D01*
X113871925Y-72020300D01*
X113792000Y-72012428D01*
X113712075Y-72020300D01*
X113473052Y-72043842D01*
X113166362Y-72136875D01*
X112883714Y-72287954D01*
X112635971Y-72491271D01*
X112585022Y-72553353D01*
X111834455Y-73303920D01*
X111772371Y-73354871D01*
X111635984Y-73521059D01*
X103268027Y-65153102D01*
X105973703Y-65153102D01*
X106045286Y-65397071D01*
X106300796Y-65517971D01*
X106574984Y-65586700D01*
X106857312Y-65600617D01*
X107136930Y-65559187D01*
X107403092Y-65464003D01*
X107528314Y-65397071D01*
X107599897Y-65153102D01*
X106786800Y-64340005D01*
X105973703Y-65153102D01*
X103268027Y-65153102D01*
X102345837Y-64230912D01*
X105346583Y-64230912D01*
X105388013Y-64510530D01*
X105483197Y-64776692D01*
X105550129Y-64901914D01*
X105794098Y-64973497D01*
X106607195Y-64160400D01*
X106966405Y-64160400D01*
X107779502Y-64973497D01*
X108023471Y-64901914D01*
X108144371Y-64646404D01*
X108213100Y-64372216D01*
X108227017Y-64089888D01*
X108185587Y-63810270D01*
X108090403Y-63544108D01*
X108023471Y-63418886D01*
X107779502Y-63347303D01*
X106966405Y-64160400D01*
X106607195Y-64160400D01*
X105794098Y-63347303D01*
X105550129Y-63418886D01*
X105429229Y-63674396D01*
X105360500Y-63948584D01*
X105346583Y-64230912D01*
X102345837Y-64230912D01*
X101282623Y-63167698D01*
X105973703Y-63167698D01*
X106786800Y-63980795D01*
X107599897Y-63167698D01*
X107528314Y-62923729D01*
X107272804Y-62802829D01*
X106998616Y-62734100D01*
X106716288Y-62720183D01*
X106436670Y-62761613D01*
X106170508Y-62856797D01*
X106045286Y-62923729D01*
X105973703Y-63167698D01*
X101282623Y-63167698D01*
X97968280Y-59853355D01*
X97917329Y-59791271D01*
X97669586Y-59587954D01*
X97386938Y-59436875D01*
X97080248Y-59343842D01*
X96841225Y-59320300D01*
X96841214Y-59320300D01*
X96761300Y-59312429D01*
X96681386Y-59320300D01*
X96269977Y-59320300D01*
X96120750Y-59197832D01*
X95881742Y-59070080D01*
X95622403Y-58991410D01*
X95352700Y-58964847D01*
X93902700Y-58964847D01*
X93632997Y-58991410D01*
X93373658Y-59070080D01*
X93134650Y-59197832D01*
X92925158Y-59369758D01*
X92753232Y-59579250D01*
X92625480Y-59818258D01*
X92546810Y-60077597D01*
X92520247Y-60347300D01*
X92520247Y-61547300D01*
X92546810Y-61817003D01*
X92625480Y-62076342D01*
X92753232Y-62315350D01*
X92821549Y-62398595D01*
X92667353Y-62687074D01*
X92554306Y-63059740D01*
X92516135Y-63447300D01*
X92554306Y-63834860D01*
X92667353Y-64207526D01*
X92850932Y-64550976D01*
X92971016Y-64697300D01*
X92850932Y-64843624D01*
X92667353Y-65187074D01*
X92554306Y-65559740D01*
X92516135Y-65947300D01*
X92554306Y-66334860D01*
X92667353Y-66707526D01*
X92850932Y-67050976D01*
X93097986Y-67352014D01*
X93330033Y-67542449D01*
X93300204Y-67576107D01*
X93153348Y-67827442D01*
X93061224Y-68090410D01*
X93182545Y-68320300D01*
X94500700Y-68320300D01*
X94500700Y-68300300D01*
X94754700Y-68300300D01*
X94754700Y-68320300D01*
X96072855Y-68320300D01*
X96194176Y-68090410D01*
X96102052Y-67827442D01*
X95989794Y-67635319D01*
X104989500Y-76635026D01*
X104989501Y-94486423D01*
X104846644Y-94343566D01*
X104787861Y-94271939D01*
X104502051Y-94037380D01*
X104175972Y-93863087D01*
X103822156Y-93755759D01*
X103546410Y-93728600D01*
X103546402Y-93728600D01*
X103454200Y-93719519D01*
X103361998Y-93728600D01*
X103169846Y-93728600D01*
X103211647Y-93627685D01*
X103285700Y-93255393D01*
X103285700Y-92875807D01*
X103211647Y-92503515D01*
X103066385Y-92152823D01*
X102855499Y-91837209D01*
X102813890Y-91795600D01*
X102855499Y-91753991D01*
X103066385Y-91438377D01*
X103211647Y-91087685D01*
X103285700Y-90715393D01*
X103285700Y-90335807D01*
X103211647Y-89963515D01*
X103066385Y-89612823D01*
X102855499Y-89297209D01*
X102813890Y-89255600D01*
X102855499Y-89213991D01*
X103066385Y-88898377D01*
X103211647Y-88547685D01*
X103285700Y-88175393D01*
X103285700Y-87795807D01*
X103211647Y-87423515D01*
X103066385Y-87072823D01*
X102855499Y-86757209D01*
X102813890Y-86715600D01*
X102855499Y-86673991D01*
X103066385Y-86358377D01*
X103211647Y-86007685D01*
X103285700Y-85635393D01*
X103285700Y-85255807D01*
X103211647Y-84883515D01*
X103066385Y-84532823D01*
X102855499Y-84217209D01*
X102813890Y-84175600D01*
X102855499Y-84133991D01*
X103066385Y-83818377D01*
X103211647Y-83467685D01*
X103285700Y-83095393D01*
X103285700Y-82715807D01*
X103211647Y-82343515D01*
X103066385Y-81992823D01*
X102855499Y-81677209D01*
X102813890Y-81635600D01*
X102855499Y-81593991D01*
X103066385Y-81278377D01*
X103211647Y-80927685D01*
X103285700Y-80555393D01*
X103285700Y-80175807D01*
X103211647Y-79803515D01*
X103066385Y-79452823D01*
X102855499Y-79137209D01*
X102813890Y-79095600D01*
X102855499Y-79053991D01*
X103066385Y-78738377D01*
X103211647Y-78387685D01*
X103285700Y-78015393D01*
X103285700Y-77635807D01*
X103211647Y-77263515D01*
X103066385Y-76912823D01*
X102985700Y-76792069D01*
X102985700Y-75392055D01*
X102970030Y-75313277D01*
X102962158Y-75233352D01*
X102938844Y-75156497D01*
X102923175Y-75077722D01*
X102892440Y-75003521D01*
X102869125Y-74926662D01*
X102831263Y-74855827D01*
X102800528Y-74781627D01*
X102755907Y-74714847D01*
X102718046Y-74644014D01*
X102667095Y-74581931D01*
X102622473Y-74515148D01*
X102565680Y-74458355D01*
X102514729Y-74396271D01*
X102452647Y-74345322D01*
X102395852Y-74288527D01*
X102329065Y-74243902D01*
X102266985Y-74192954D01*
X102196157Y-74155096D01*
X102129373Y-74110472D01*
X102055169Y-74079735D01*
X101984337Y-74041875D01*
X101907482Y-74018561D01*
X101833278Y-73987825D01*
X101754500Y-73972155D01*
X101677647Y-73948842D01*
X101597724Y-73940970D01*
X101518945Y-73925300D01*
X101438625Y-73925300D01*
X101358700Y-73917428D01*
X101278775Y-73925300D01*
X101198455Y-73925300D01*
X101119677Y-73940970D01*
X101039752Y-73948842D01*
X100962897Y-73972156D01*
X100884122Y-73987825D01*
X100809921Y-74018560D01*
X100733062Y-74041875D01*
X100662227Y-74079737D01*
X100588027Y-74110472D01*
X100521247Y-74155093D01*
X100450414Y-74192954D01*
X100388331Y-74243905D01*
X100321548Y-74288527D01*
X100264755Y-74345320D01*
X100202671Y-74396271D01*
X100151722Y-74458353D01*
X100094927Y-74515148D01*
X100050302Y-74581935D01*
X99999354Y-74644015D01*
X99961496Y-74714843D01*
X99916872Y-74781627D01*
X99886135Y-74855831D01*
X99848275Y-74926663D01*
X99824961Y-75003518D01*
X99794225Y-75077722D01*
X99778555Y-75156500D01*
X99755242Y-75233353D01*
X99747370Y-75313276D01*
X99731700Y-75392055D01*
X99731700Y-75472376D01*
X99731701Y-76792068D01*
X99651015Y-76912823D01*
X99505753Y-77263515D01*
X99431700Y-77635807D01*
X99431700Y-78015393D01*
X99505753Y-78387685D01*
X99651015Y-78738377D01*
X99861901Y-79053991D01*
X99903510Y-79095600D01*
X99861901Y-79137209D01*
X99651015Y-79452823D01*
X99505753Y-79803515D01*
X99431700Y-80175807D01*
X99431700Y-80555393D01*
X99505753Y-80927685D01*
X99651015Y-81278377D01*
X99861901Y-81593991D01*
X99903510Y-81635600D01*
X99861901Y-81677209D01*
X99651015Y-81992823D01*
X99505753Y-82343515D01*
X99431700Y-82715807D01*
X99431700Y-83095393D01*
X99505753Y-83467685D01*
X99547554Y-83568600D01*
X95026332Y-83568600D01*
X94937670Y-83531875D01*
X94555718Y-83455900D01*
X94166282Y-83455900D01*
X93784330Y-83531875D01*
X93424539Y-83680905D01*
X93100736Y-83897264D01*
X92825364Y-84172636D01*
X92609005Y-84496439D01*
X92459975Y-84856230D01*
X92384000Y-85238182D01*
X92384000Y-85627618D01*
X92459975Y-86009570D01*
X92609005Y-86369361D01*
X92825364Y-86693164D01*
X92835100Y-86702900D01*
X92825364Y-86712636D01*
X92609005Y-87036439D01*
X92459975Y-87396230D01*
X92384000Y-87778182D01*
X92384000Y-88167618D01*
X92459975Y-88549570D01*
X92609005Y-88909361D01*
X92825364Y-89233164D01*
X92835100Y-89242900D01*
X92825364Y-89252636D01*
X92609005Y-89576439D01*
X92459975Y-89936230D01*
X92384000Y-90318182D01*
X92384000Y-90707618D01*
X92459975Y-91089570D01*
X92609005Y-91449361D01*
X92637042Y-91491321D01*
X92569400Y-91573743D01*
X92464750Y-91769529D01*
X92400307Y-91981969D01*
X92378547Y-92202900D01*
X92378547Y-93902900D01*
X92400307Y-94123831D01*
X92464750Y-94336271D01*
X92569400Y-94532057D01*
X92710235Y-94703665D01*
X92881843Y-94844500D01*
X93077629Y-94949150D01*
X93290069Y-95013593D01*
X93511000Y-95035353D01*
X95211000Y-95035353D01*
X95431931Y-95013593D01*
X95644371Y-94949150D01*
X95656625Y-94942600D01*
X99547554Y-94942600D01*
X99505753Y-95043515D01*
X99431700Y-95415807D01*
X99431700Y-95795393D01*
X99505753Y-96167685D01*
X99651015Y-96518377D01*
X99861901Y-96833991D01*
X99903510Y-96875600D01*
X99861901Y-96917209D01*
X99651015Y-97232823D01*
X99505753Y-97583515D01*
X99431700Y-97955807D01*
X99431700Y-98335393D01*
X99505753Y-98707685D01*
X99651015Y-99058377D01*
X99861901Y-99373991D01*
X99903510Y-99415600D01*
X99861901Y-99457209D01*
X99651015Y-99772823D01*
X99505753Y-100123515D01*
X99431700Y-100495807D01*
X99431700Y-100875393D01*
X99505753Y-101247685D01*
X99651015Y-101598377D01*
X99861901Y-101913991D01*
X99903510Y-101955600D01*
X99861901Y-101997209D01*
X99651015Y-102312823D01*
X99505753Y-102663515D01*
X99431700Y-103035807D01*
X99431700Y-103415393D01*
X99505753Y-103787685D01*
X99547554Y-103888600D01*
X96389467Y-103888600D01*
X96452300Y-103572718D01*
X96452300Y-103183282D01*
X96376325Y-102801330D01*
X96227295Y-102441539D01*
X96010936Y-102117736D01*
X95735564Y-101842364D01*
X95528226Y-101703825D01*
X95606271Y-101680150D01*
X95802057Y-101575500D01*
X95973665Y-101434665D01*
X96114500Y-101263057D01*
X96219150Y-101067271D01*
X96283593Y-100854831D01*
X96305353Y-100633900D01*
X96305353Y-98933900D01*
X96283593Y-98712969D01*
X96219150Y-98500529D01*
X96114500Y-98304743D01*
X95973665Y-98133135D01*
X95802057Y-97992300D01*
X95643683Y-97907647D01*
X95719725Y-97747999D01*
X95764376Y-97600790D01*
X95643055Y-97370900D01*
X94449900Y-97370900D01*
X94449900Y-97390900D01*
X94195900Y-97390900D01*
X94195900Y-97370900D01*
X93002745Y-97370900D01*
X92881424Y-97600790D01*
X92926075Y-97747999D01*
X93002117Y-97907647D01*
X92843743Y-97992300D01*
X92672135Y-98133135D01*
X92652632Y-98156900D01*
X91354814Y-98156900D01*
X91274899Y-98149029D01*
X91194985Y-98156900D01*
X91194975Y-98156900D01*
X90955952Y-98180442D01*
X90649262Y-98273475D01*
X90366614Y-98424554D01*
X90118871Y-98627871D01*
X90067916Y-98689960D01*
X89499510Y-99258365D01*
X89499510Y-96887010D01*
X92881424Y-96887010D01*
X93002745Y-97116900D01*
X94195900Y-97116900D01*
X94195900Y-95923086D01*
X94449900Y-95923086D01*
X94449900Y-97116900D01*
X95643055Y-97116900D01*
X95764376Y-96887010D01*
X95719725Y-96739801D01*
X95594541Y-96476980D01*
X95420488Y-96243631D01*
X95204255Y-96048722D01*
X94954152Y-95899743D01*
X94679791Y-95802419D01*
X94449900Y-95923086D01*
X94195900Y-95923086D01*
X93966009Y-95802419D01*
X93691648Y-95899743D01*
X93441545Y-96048722D01*
X93225312Y-96243631D01*
X93051259Y-96476980D01*
X92926075Y-96739801D01*
X92881424Y-96887010D01*
X89499510Y-96887010D01*
X89499510Y-68804190D01*
X93061224Y-68804190D01*
X93153348Y-69067158D01*
X93300204Y-69318493D01*
X93493271Y-69536349D01*
X93725130Y-69712353D01*
X93986870Y-69839742D01*
X94268433Y-69913620D01*
X94500700Y-69773465D01*
X94500700Y-68574300D01*
X94754700Y-68574300D01*
X94754700Y-69773465D01*
X94986967Y-69913620D01*
X95268530Y-69839742D01*
X95530270Y-69712353D01*
X95762129Y-69536349D01*
X95955196Y-69318493D01*
X96102052Y-69067158D01*
X96194176Y-68804190D01*
X96072855Y-68574300D01*
X94754700Y-68574300D01*
X94500700Y-68574300D01*
X93182545Y-68574300D01*
X93061224Y-68804190D01*
X89499510Y-68804190D01*
X89499510Y-56454110D01*
X173339511Y-56454110D01*
X171800861Y-57992761D01*
G37*
X171800861Y-57992761D02*
X171729240Y-58051539D01*
X171718793Y-58064268D01*
X171717179Y-58062654D01*
X171666229Y-58000571D01*
X171418486Y-57797254D01*
X171135838Y-57646175D01*
X170829148Y-57553142D01*
X170590125Y-57529600D01*
X170590114Y-57529600D01*
X170510200Y-57521729D01*
X170430286Y-57529600D01*
X117170525Y-57529600D01*
X117090600Y-57521728D01*
X117010675Y-57529600D01*
X116771652Y-57553142D01*
X116464962Y-57646175D01*
X116182314Y-57797254D01*
X115996652Y-57949622D01*
X115996649Y-57949625D01*
X115934571Y-58000571D01*
X115883625Y-58062649D01*
X111593128Y-62353147D01*
X111520171Y-62314150D01*
X111307731Y-62249707D01*
X111086800Y-62227947D01*
X109486800Y-62227947D01*
X109265869Y-62249707D01*
X109053429Y-62314150D01*
X108857643Y-62418800D01*
X108686035Y-62559635D01*
X108545200Y-62731243D01*
X108440550Y-62927029D01*
X108376107Y-63139469D01*
X108354347Y-63360400D01*
X108354347Y-64960400D01*
X108376107Y-65181331D01*
X108440550Y-65393771D01*
X108545200Y-65589557D01*
X108686035Y-65761165D01*
X108857643Y-65902000D01*
X109053429Y-66006650D01*
X109265869Y-66071093D01*
X109486800Y-66092853D01*
X111086800Y-66092853D01*
X111307731Y-66071093D01*
X111520171Y-66006650D01*
X111715957Y-65902000D01*
X111855598Y-65787400D01*
X112006886Y-65787400D01*
X112086800Y-65795271D01*
X112166714Y-65787400D01*
X112166725Y-65787400D01*
X112405748Y-65763858D01*
X112712438Y-65670825D01*
X112995086Y-65519746D01*
X113242829Y-65316429D01*
X113293779Y-65254346D01*
X117764526Y-60783600D01*
X169836275Y-60783600D01*
X171203953Y-62151279D01*
X171203959Y-62151284D01*
X171226167Y-62173492D01*
X171243608Y-62261176D01*
X171386231Y-62605498D01*
X171593287Y-62915380D01*
X171856820Y-63178913D01*
X172166702Y-63385969D01*
X172511024Y-63528592D01*
X172876554Y-63601300D01*
X173249246Y-63601300D01*
X173614776Y-63528592D01*
X173959098Y-63385969D01*
X174268980Y-63178913D01*
X174532513Y-62915380D01*
X174647812Y-62742822D01*
X174698399Y-62793409D01*
X174814799Y-62677009D01*
X174882140Y-62917406D01*
X175131680Y-63034806D01*
X175399327Y-63101267D01*
X175674799Y-63114236D01*
X175947507Y-63073214D01*
X176206972Y-62979778D01*
X176323660Y-62917406D01*
X176391001Y-62677009D01*
X176507401Y-62793409D01*
X176557988Y-62742822D01*
X176673287Y-62915380D01*
X176936820Y-63178913D01*
X177246702Y-63385969D01*
X177591024Y-63528592D01*
X177678708Y-63546033D01*
X180806275Y-66673600D01*
X173650817Y-66673600D01*
X173570900Y-66665729D01*
X173490983Y-66673600D01*
X173490975Y-66673600D01*
X173251952Y-66697142D01*
X172945262Y-66790175D01*
X172779745Y-66878646D01*
X172662614Y-66941254D01*
X172476952Y-67093622D01*
X172476949Y-67093625D01*
X172414871Y-67144571D01*
X172363925Y-67206649D01*
X169353675Y-70216900D01*
X168779275Y-70216900D01*
X168540252Y-70240442D01*
X168288203Y-70316900D01*
X126617804Y-70316900D01*
X126542800Y-70309513D01*
X126467796Y-70316900D01*
X126467789Y-70316900D01*
X126270755Y-70336306D01*
X126243455Y-70338995D01*
X126024167Y-70405515D01*
X125955615Y-70426310D01*
X125690340Y-70568103D01*
X125690338Y-70568104D01*
X125690339Y-70568104D01*
X125516088Y-70711107D01*
X125516083Y-70711112D01*
X125457824Y-70758924D01*
X125410012Y-70817183D01*
X124206896Y-72020300D01*
X113871925Y-72020300D01*
X113792000Y-72012428D01*
X113712075Y-72020300D01*
X113473052Y-72043842D01*
X113166362Y-72136875D01*
X112883714Y-72287954D01*
X112635971Y-72491271D01*
X112585022Y-72553353D01*
X111834455Y-73303920D01*
X111772371Y-73354871D01*
X111635984Y-73521059D01*
X103268027Y-65153102D01*
X105973703Y-65153102D01*
X106045286Y-65397071D01*
X106300796Y-65517971D01*
X106574984Y-65586700D01*
X106857312Y-65600617D01*
X107136930Y-65559187D01*
X107403092Y-65464003D01*
X107528314Y-65397071D01*
X107599897Y-65153102D01*
X106786800Y-64340005D01*
X105973703Y-65153102D01*
X103268027Y-65153102D01*
X102345837Y-64230912D01*
X105346583Y-64230912D01*
X105388013Y-64510530D01*
X105483197Y-64776692D01*
X105550129Y-64901914D01*
X105794098Y-64973497D01*
X106607195Y-64160400D01*
X106966405Y-64160400D01*
X107779502Y-64973497D01*
X108023471Y-64901914D01*
X108144371Y-64646404D01*
X108213100Y-64372216D01*
X108227017Y-64089888D01*
X108185587Y-63810270D01*
X108090403Y-63544108D01*
X108023471Y-63418886D01*
X107779502Y-63347303D01*
X106966405Y-64160400D01*
X106607195Y-64160400D01*
X105794098Y-63347303D01*
X105550129Y-63418886D01*
X105429229Y-63674396D01*
X105360500Y-63948584D01*
X105346583Y-64230912D01*
X102345837Y-64230912D01*
X101282623Y-63167698D01*
X105973703Y-63167698D01*
X106786800Y-63980795D01*
X107599897Y-63167698D01*
X107528314Y-62923729D01*
X107272804Y-62802829D01*
X106998616Y-62734100D01*
X106716288Y-62720183D01*
X106436670Y-62761613D01*
X106170508Y-62856797D01*
X106045286Y-62923729D01*
X105973703Y-63167698D01*
X101282623Y-63167698D01*
X97968280Y-59853355D01*
X97917329Y-59791271D01*
X97669586Y-59587954D01*
X97386938Y-59436875D01*
X97080248Y-59343842D01*
X96841225Y-59320300D01*
X96841214Y-59320300D01*
X96761300Y-59312429D01*
X96681386Y-59320300D01*
X96269977Y-59320300D01*
X96120750Y-59197832D01*
X95881742Y-59070080D01*
X95622403Y-58991410D01*
X95352700Y-58964847D01*
X93902700Y-58964847D01*
X93632997Y-58991410D01*
X93373658Y-59070080D01*
X93134650Y-59197832D01*
X92925158Y-59369758D01*
X92753232Y-59579250D01*
X92625480Y-59818258D01*
X92546810Y-60077597D01*
X92520247Y-60347300D01*
X92520247Y-61547300D01*
X92546810Y-61817003D01*
X92625480Y-62076342D01*
X92753232Y-62315350D01*
X92821549Y-62398595D01*
X92667353Y-62687074D01*
X92554306Y-63059740D01*
X92516135Y-63447300D01*
X92554306Y-63834860D01*
X92667353Y-64207526D01*
X92850932Y-64550976D01*
X92971016Y-64697300D01*
X92850932Y-64843624D01*
X92667353Y-65187074D01*
X92554306Y-65559740D01*
X92516135Y-65947300D01*
X92554306Y-66334860D01*
X92667353Y-66707526D01*
X92850932Y-67050976D01*
X93097986Y-67352014D01*
X93330033Y-67542449D01*
X93300204Y-67576107D01*
X93153348Y-67827442D01*
X93061224Y-68090410D01*
X93182545Y-68320300D01*
X94500700Y-68320300D01*
X94500700Y-68300300D01*
X94754700Y-68300300D01*
X94754700Y-68320300D01*
X96072855Y-68320300D01*
X96194176Y-68090410D01*
X96102052Y-67827442D01*
X95989794Y-67635319D01*
X104989500Y-76635026D01*
X104989501Y-94486423D01*
X104846644Y-94343566D01*
X104787861Y-94271939D01*
X104502051Y-94037380D01*
X104175972Y-93863087D01*
X103822156Y-93755759D01*
X103546410Y-93728600D01*
X103546402Y-93728600D01*
X103454200Y-93719519D01*
X103361998Y-93728600D01*
X103169846Y-93728600D01*
X103211647Y-93627685D01*
X103285700Y-93255393D01*
X103285700Y-92875807D01*
X103211647Y-92503515D01*
X103066385Y-92152823D01*
X102855499Y-91837209D01*
X102813890Y-91795600D01*
X102855499Y-91753991D01*
X103066385Y-91438377D01*
X103211647Y-91087685D01*
X103285700Y-90715393D01*
X103285700Y-90335807D01*
X103211647Y-89963515D01*
X103066385Y-89612823D01*
X102855499Y-89297209D01*
X102813890Y-89255600D01*
X102855499Y-89213991D01*
X103066385Y-88898377D01*
X103211647Y-88547685D01*
X103285700Y-88175393D01*
X103285700Y-87795807D01*
X103211647Y-87423515D01*
X103066385Y-87072823D01*
X102855499Y-86757209D01*
X102813890Y-86715600D01*
X102855499Y-86673991D01*
X103066385Y-86358377D01*
X103211647Y-86007685D01*
X103285700Y-85635393D01*
X103285700Y-85255807D01*
X103211647Y-84883515D01*
X103066385Y-84532823D01*
X102855499Y-84217209D01*
X102813890Y-84175600D01*
X102855499Y-84133991D01*
X103066385Y-83818377D01*
X103211647Y-83467685D01*
X103285700Y-83095393D01*
X103285700Y-82715807D01*
X103211647Y-82343515D01*
X103066385Y-81992823D01*
X102855499Y-81677209D01*
X102813890Y-81635600D01*
X102855499Y-81593991D01*
X103066385Y-81278377D01*
X103211647Y-80927685D01*
X103285700Y-80555393D01*
X103285700Y-80175807D01*
X103211647Y-79803515D01*
X103066385Y-79452823D01*
X102855499Y-79137209D01*
X102813890Y-79095600D01*
X102855499Y-79053991D01*
X103066385Y-78738377D01*
X103211647Y-78387685D01*
X103285700Y-78015393D01*
X103285700Y-77635807D01*
X103211647Y-77263515D01*
X103066385Y-76912823D01*
X102985700Y-76792069D01*
X102985700Y-75392055D01*
X102970030Y-75313277D01*
X102962158Y-75233352D01*
X102938844Y-75156497D01*
X102923175Y-75077722D01*
X102892440Y-75003521D01*
X102869125Y-74926662D01*
X102831263Y-74855827D01*
X102800528Y-74781627D01*
X102755907Y-74714847D01*
X102718046Y-74644014D01*
X102667095Y-74581931D01*
X102622473Y-74515148D01*
X102565680Y-74458355D01*
X102514729Y-74396271D01*
X102452647Y-74345322D01*
X102395852Y-74288527D01*
X102329065Y-74243902D01*
X102266985Y-74192954D01*
X102196157Y-74155096D01*
X102129373Y-74110472D01*
X102055169Y-74079735D01*
X101984337Y-74041875D01*
X101907482Y-74018561D01*
X101833278Y-73987825D01*
X101754500Y-73972155D01*
X101677647Y-73948842D01*
X101597724Y-73940970D01*
X101518945Y-73925300D01*
X101438625Y-73925300D01*
X101358700Y-73917428D01*
X101278775Y-73925300D01*
X101198455Y-73925300D01*
X101119677Y-73940970D01*
X101039752Y-73948842D01*
X100962897Y-73972156D01*
X100884122Y-73987825D01*
X100809921Y-74018560D01*
X100733062Y-74041875D01*
X100662227Y-74079737D01*
X100588027Y-74110472D01*
X100521247Y-74155093D01*
X100450414Y-74192954D01*
X100388331Y-74243905D01*
X100321548Y-74288527D01*
X100264755Y-74345320D01*
X100202671Y-74396271D01*
X100151722Y-74458353D01*
X100094927Y-74515148D01*
X100050302Y-74581935D01*
X99999354Y-74644015D01*
X99961496Y-74714843D01*
X99916872Y-74781627D01*
X99886135Y-74855831D01*
X99848275Y-74926663D01*
X99824961Y-75003518D01*
X99794225Y-75077722D01*
X99778555Y-75156500D01*
X99755242Y-75233353D01*
X99747370Y-75313276D01*
X99731700Y-75392055D01*
X99731700Y-75472376D01*
X99731701Y-76792068D01*
X99651015Y-76912823D01*
X99505753Y-77263515D01*
X99431700Y-77635807D01*
X99431700Y-78015393D01*
X99505753Y-78387685D01*
X99651015Y-78738377D01*
X99861901Y-79053991D01*
X99903510Y-79095600D01*
X99861901Y-79137209D01*
X99651015Y-79452823D01*
X99505753Y-79803515D01*
X99431700Y-80175807D01*
X99431700Y-80555393D01*
X99505753Y-80927685D01*
X99651015Y-81278377D01*
X99861901Y-81593991D01*
X99903510Y-81635600D01*
X99861901Y-81677209D01*
X99651015Y-81992823D01*
X99505753Y-82343515D01*
X99431700Y-82715807D01*
X99431700Y-83095393D01*
X99505753Y-83467685D01*
X99547554Y-83568600D01*
X95026332Y-83568600D01*
X94937670Y-83531875D01*
X94555718Y-83455900D01*
X94166282Y-83455900D01*
X93784330Y-83531875D01*
X93424539Y-83680905D01*
X93100736Y-83897264D01*
X92825364Y-84172636D01*
X92609005Y-84496439D01*
X92459975Y-84856230D01*
X92384000Y-85238182D01*
X92384000Y-85627618D01*
X92459975Y-86009570D01*
X92609005Y-86369361D01*
X92825364Y-86693164D01*
X92835100Y-86702900D01*
X92825364Y-86712636D01*
X92609005Y-87036439D01*
X92459975Y-87396230D01*
X92384000Y-87778182D01*
X92384000Y-88167618D01*
X92459975Y-88549570D01*
X92609005Y-88909361D01*
X92825364Y-89233164D01*
X92835100Y-89242900D01*
X92825364Y-89252636D01*
X92609005Y-89576439D01*
X92459975Y-89936230D01*
X92384000Y-90318182D01*
X92384000Y-90707618D01*
X92459975Y-91089570D01*
X92609005Y-91449361D01*
X92637042Y-91491321D01*
X92569400Y-91573743D01*
X92464750Y-91769529D01*
X92400307Y-91981969D01*
X92378547Y-92202900D01*
X92378547Y-93902900D01*
X92400307Y-94123831D01*
X92464750Y-94336271D01*
X92569400Y-94532057D01*
X92710235Y-94703665D01*
X92881843Y-94844500D01*
X93077629Y-94949150D01*
X93290069Y-95013593D01*
X93511000Y-95035353D01*
X95211000Y-95035353D01*
X95431931Y-95013593D01*
X95644371Y-94949150D01*
X95656625Y-94942600D01*
X99547554Y-94942600D01*
X99505753Y-95043515D01*
X99431700Y-95415807D01*
X99431700Y-95795393D01*
X99505753Y-96167685D01*
X99651015Y-96518377D01*
X99861901Y-96833991D01*
X99903510Y-96875600D01*
X99861901Y-96917209D01*
X99651015Y-97232823D01*
X99505753Y-97583515D01*
X99431700Y-97955807D01*
X99431700Y-98335393D01*
X99505753Y-98707685D01*
X99651015Y-99058377D01*
X99861901Y-99373991D01*
X99903510Y-99415600D01*
X99861901Y-99457209D01*
X99651015Y-99772823D01*
X99505753Y-100123515D01*
X99431700Y-100495807D01*
X99431700Y-100875393D01*
X99505753Y-101247685D01*
X99651015Y-101598377D01*
X99861901Y-101913991D01*
X99903510Y-101955600D01*
X99861901Y-101997209D01*
X99651015Y-102312823D01*
X99505753Y-102663515D01*
X99431700Y-103035807D01*
X99431700Y-103415393D01*
X99505753Y-103787685D01*
X99547554Y-103888600D01*
X96389467Y-103888600D01*
X96452300Y-103572718D01*
X96452300Y-103183282D01*
X96376325Y-102801330D01*
X96227295Y-102441539D01*
X96010936Y-102117736D01*
X95735564Y-101842364D01*
X95528226Y-101703825D01*
X95606271Y-101680150D01*
X95802057Y-101575500D01*
X95973665Y-101434665D01*
X96114500Y-101263057D01*
X96219150Y-101067271D01*
X96283593Y-100854831D01*
X96305353Y-100633900D01*
X96305353Y-98933900D01*
X96283593Y-98712969D01*
X96219150Y-98500529D01*
X96114500Y-98304743D01*
X95973665Y-98133135D01*
X95802057Y-97992300D01*
X95643683Y-97907647D01*
X95719725Y-97747999D01*
X95764376Y-97600790D01*
X95643055Y-97370900D01*
X94449900Y-97370900D01*
X94449900Y-97390900D01*
X94195900Y-97390900D01*
X94195900Y-97370900D01*
X93002745Y-97370900D01*
X92881424Y-97600790D01*
X92926075Y-97747999D01*
X93002117Y-97907647D01*
X92843743Y-97992300D01*
X92672135Y-98133135D01*
X92652632Y-98156900D01*
X91354814Y-98156900D01*
X91274899Y-98149029D01*
X91194985Y-98156900D01*
X91194975Y-98156900D01*
X90955952Y-98180442D01*
X90649262Y-98273475D01*
X90366614Y-98424554D01*
X90118871Y-98627871D01*
X90067916Y-98689960D01*
X89499510Y-99258365D01*
X89499510Y-96887010D01*
X92881424Y-96887010D01*
X93002745Y-97116900D01*
X94195900Y-97116900D01*
X94195900Y-95923086D01*
X94449900Y-95923086D01*
X94449900Y-97116900D01*
X95643055Y-97116900D01*
X95764376Y-96887010D01*
X95719725Y-96739801D01*
X95594541Y-96476980D01*
X95420488Y-96243631D01*
X95204255Y-96048722D01*
X94954152Y-95899743D01*
X94679791Y-95802419D01*
X94449900Y-95923086D01*
X94195900Y-95923086D01*
X93966009Y-95802419D01*
X93691648Y-95899743D01*
X93441545Y-96048722D01*
X93225312Y-96243631D01*
X93051259Y-96476980D01*
X92926075Y-96739801D01*
X92881424Y-96887010D01*
X89499510Y-96887010D01*
X89499510Y-68804190D01*
X93061224Y-68804190D01*
X93153348Y-69067158D01*
X93300204Y-69318493D01*
X93493271Y-69536349D01*
X93725130Y-69712353D01*
X93986870Y-69839742D01*
X94268433Y-69913620D01*
X94500700Y-69773465D01*
X94500700Y-68574300D01*
X94754700Y-68574300D01*
X94754700Y-69773465D01*
X94986967Y-69913620D01*
X95268530Y-69839742D01*
X95530270Y-69712353D01*
X95762129Y-69536349D01*
X95955196Y-69318493D01*
X96102052Y-69067158D01*
X96194176Y-68804190D01*
X96072855Y-68574300D01*
X94754700Y-68574300D01*
X94500700Y-68574300D01*
X93182545Y-68574300D01*
X93061224Y-68804190D01*
X89499510Y-68804190D01*
X89499510Y-56454110D01*
X173339511Y-56454110D01*
X171800861Y-57992761D01*
G36*
X218283799Y-79307878D02*
G01*
X218283799Y-92449974D01*
X215748079Y-89914254D01*
X215697129Y-89852171D01*
X215449386Y-89648854D01*
X215166738Y-89497775D01*
X214860048Y-89404742D01*
X214621025Y-89381200D01*
X214621014Y-89381200D01*
X214541100Y-89373329D01*
X214461186Y-89381200D01*
X210163314Y-89381200D01*
X210083399Y-89373329D01*
X210003485Y-89381200D01*
X210003475Y-89381200D01*
X209764452Y-89404742D01*
X209457762Y-89497775D01*
X209242940Y-89612600D01*
X209175114Y-89648854D01*
X208989452Y-89801222D01*
X208989449Y-89801225D01*
X208927371Y-89852171D01*
X208876425Y-89914249D01*
X200430575Y-98360100D01*
X173550331Y-98360100D01*
X173429577Y-98279415D01*
X173078885Y-98134153D01*
X172706593Y-98060100D01*
X172327007Y-98060100D01*
X172075638Y-98110100D01*
X171422000Y-98110100D01*
X171422000Y-94377002D01*
X171431081Y-94284800D01*
X171422000Y-94192598D01*
X171422000Y-94192590D01*
X171397447Y-93943300D01*
X177224786Y-93943300D01*
X177304700Y-93951171D01*
X177384614Y-93943300D01*
X177384625Y-93943300D01*
X177623648Y-93919758D01*
X177930338Y-93826725D01*
X178212986Y-93675646D01*
X178460729Y-93472329D01*
X178511679Y-93410246D01*
X191171853Y-80750073D01*
X191233930Y-80699128D01*
X191284876Y-80637050D01*
X191284879Y-80637047D01*
X191437247Y-80451385D01*
X191437248Y-80451384D01*
X191588326Y-80168737D01*
X191681359Y-79862047D01*
X191704901Y-79623024D01*
X191704901Y-79623014D01*
X191712772Y-79543100D01*
X191704901Y-79463185D01*
X191704901Y-76100134D01*
X191739098Y-76085969D01*
X192048980Y-75878913D01*
X192312513Y-75615380D01*
X192519569Y-75305498D01*
X192606501Y-75095626D01*
X193484025Y-75973151D01*
X193534971Y-76035229D01*
X193597049Y-76086175D01*
X193597052Y-76086178D01*
X193701883Y-76172210D01*
X193782714Y-76238546D01*
X194065362Y-76389625D01*
X194313462Y-76464885D01*
X194372052Y-76482658D01*
X194691000Y-76514072D01*
X194770925Y-76506200D01*
X195768063Y-76506200D01*
X195631477Y-76642786D01*
X195343984Y-77073050D01*
X195145955Y-77551133D01*
X195045001Y-78058664D01*
X195045001Y-78576138D01*
X195145955Y-79083669D01*
X195343984Y-79561752D01*
X195631477Y-79992016D01*
X195997386Y-80357925D01*
X196427650Y-80645418D01*
X196905733Y-80843447D01*
X197413264Y-80944401D01*
X197930738Y-80944401D01*
X198438269Y-80843447D01*
X198916352Y-80645418D01*
X199346616Y-80357925D01*
X199712525Y-79992016D01*
X200000018Y-79561752D01*
X200198047Y-79083669D01*
X200299001Y-78576138D01*
X200299001Y-78058664D01*
X200198047Y-77551133D01*
X200000018Y-77073050D01*
X199712525Y-76642786D01*
X199346616Y-76276877D01*
X199159404Y-76151786D01*
X199301429Y-76035229D01*
X199352379Y-75973146D01*
X200496651Y-74828875D01*
X200558729Y-74777929D01*
X200609675Y-74715851D01*
X200609678Y-74715848D01*
X200762046Y-74530186D01*
X200815075Y-74430976D01*
X200913125Y-74247538D01*
X201006158Y-73940848D01*
X201029700Y-73701825D01*
X201037572Y-73621900D01*
X201029700Y-73541975D01*
X201029700Y-64405414D01*
X201037571Y-64325499D01*
X201029700Y-64245585D01*
X201029700Y-64245575D01*
X201006158Y-64006552D01*
X200913125Y-63699862D01*
X200762046Y-63417214D01*
X200558729Y-63169471D01*
X200496647Y-63118522D01*
X199784178Y-62406053D01*
X199733229Y-62343971D01*
X199485486Y-62140654D01*
X199202838Y-61989575D01*
X198896148Y-61896542D01*
X198657125Y-61873000D01*
X198657114Y-61873000D01*
X198577200Y-61865129D01*
X198497286Y-61873000D01*
X192236744Y-61873000D01*
X192247836Y-61637401D01*
X192206814Y-61364693D01*
X192113378Y-61105228D01*
X192051006Y-60988540D01*
X191810607Y-60921198D01*
X191022505Y-61709300D01*
X191036648Y-61723443D01*
X190887090Y-61873000D01*
X190798710Y-61873000D01*
X190649153Y-61723443D01*
X190663295Y-61709300D01*
X190649153Y-61695158D01*
X190828758Y-61515553D01*
X190842900Y-61529695D01*
X191631002Y-60741593D01*
X191563660Y-60501194D01*
X191314120Y-60383794D01*
X191046473Y-60317333D01*
X190771001Y-60304364D01*
X190498293Y-60345386D01*
X190238828Y-60438822D01*
X190122140Y-60501194D01*
X190054799Y-60741591D01*
X189938399Y-60625191D01*
X189887812Y-60675778D01*
X189772513Y-60503220D01*
X189508980Y-60239687D01*
X189199098Y-60032631D01*
X188854776Y-59890008D01*
X188489246Y-59817300D01*
X188116554Y-59817300D01*
X187751024Y-59890008D01*
X187406702Y-60032631D01*
X187096820Y-60239687D01*
X187032900Y-60303607D01*
X186968980Y-60239687D01*
X186659098Y-60032631D01*
X186314776Y-59890008D01*
X185949246Y-59817300D01*
X185576554Y-59817300D01*
X185211024Y-59890008D01*
X184866702Y-60032631D01*
X184556820Y-60239687D01*
X184492900Y-60303607D01*
X184428980Y-60239687D01*
X184119098Y-60032631D01*
X183774776Y-59890008D01*
X183409246Y-59817300D01*
X183036554Y-59817300D01*
X182671024Y-59890008D01*
X182326702Y-60032631D01*
X182016820Y-60239687D01*
X181952900Y-60303607D01*
X181888980Y-60239687D01*
X181579098Y-60032631D01*
X181234776Y-59890008D01*
X180869246Y-59817300D01*
X180496554Y-59817300D01*
X180131024Y-59890008D01*
X179786702Y-60032631D01*
X179476820Y-60239687D01*
X179412900Y-60303607D01*
X179348980Y-60239687D01*
X179039098Y-60032631D01*
X178694776Y-59890008D01*
X178329246Y-59817300D01*
X177956554Y-59817300D01*
X177591024Y-59890008D01*
X177246702Y-60032631D01*
X176936820Y-60239687D01*
X176673287Y-60503220D01*
X176557988Y-60675778D01*
X176507401Y-60625191D01*
X176391001Y-60741591D01*
X176323660Y-60501194D01*
X176074120Y-60383794D01*
X175806473Y-60317333D01*
X175531001Y-60304364D01*
X175258293Y-60345386D01*
X174998828Y-60438822D01*
X174939900Y-60470320D01*
X174939900Y-60162678D01*
X175973979Y-59128600D01*
X198104522Y-59128600D01*
X218283799Y-79307878D01*
G37*
X218283799Y-79307878D02*
X218283799Y-92449974D01*
X215748079Y-89914254D01*
X215697129Y-89852171D01*
X215449386Y-89648854D01*
X215166738Y-89497775D01*
X214860048Y-89404742D01*
X214621025Y-89381200D01*
X214621014Y-89381200D01*
X214541100Y-89373329D01*
X214461186Y-89381200D01*
X210163314Y-89381200D01*
X210083399Y-89373329D01*
X210003485Y-89381200D01*
X210003475Y-89381200D01*
X209764452Y-89404742D01*
X209457762Y-89497775D01*
X209242940Y-89612600D01*
X209175114Y-89648854D01*
X208989452Y-89801222D01*
X208989449Y-89801225D01*
X208927371Y-89852171D01*
X208876425Y-89914249D01*
X200430575Y-98360100D01*
X173550331Y-98360100D01*
X173429577Y-98279415D01*
X173078885Y-98134153D01*
X172706593Y-98060100D01*
X172327007Y-98060100D01*
X172075638Y-98110100D01*
X171422000Y-98110100D01*
X171422000Y-94377002D01*
X171431081Y-94284800D01*
X171422000Y-94192598D01*
X171422000Y-94192590D01*
X171397447Y-93943300D01*
X177224786Y-93943300D01*
X177304700Y-93951171D01*
X177384614Y-93943300D01*
X177384625Y-93943300D01*
X177623648Y-93919758D01*
X177930338Y-93826725D01*
X178212986Y-93675646D01*
X178460729Y-93472329D01*
X178511679Y-93410246D01*
X191171853Y-80750073D01*
X191233930Y-80699128D01*
X191284876Y-80637050D01*
X191284879Y-80637047D01*
X191437247Y-80451385D01*
X191437248Y-80451384D01*
X191588326Y-80168737D01*
X191681359Y-79862047D01*
X191704901Y-79623024D01*
X191704901Y-79623014D01*
X191712772Y-79543100D01*
X191704901Y-79463185D01*
X191704901Y-76100134D01*
X191739098Y-76085969D01*
X192048980Y-75878913D01*
X192312513Y-75615380D01*
X192519569Y-75305498D01*
X192606501Y-75095626D01*
X193484025Y-75973151D01*
X193534971Y-76035229D01*
X193597049Y-76086175D01*
X193597052Y-76086178D01*
X193701883Y-76172210D01*
X193782714Y-76238546D01*
X194065362Y-76389625D01*
X194313462Y-76464885D01*
X194372052Y-76482658D01*
X194691000Y-76514072D01*
X194770925Y-76506200D01*
X195768063Y-76506200D01*
X195631477Y-76642786D01*
X195343984Y-77073050D01*
X195145955Y-77551133D01*
X195045001Y-78058664D01*
X195045001Y-78576138D01*
X195145955Y-79083669D01*
X195343984Y-79561752D01*
X195631477Y-79992016D01*
X195997386Y-80357925D01*
X196427650Y-80645418D01*
X196905733Y-80843447D01*
X197413264Y-80944401D01*
X197930738Y-80944401D01*
X198438269Y-80843447D01*
X198916352Y-80645418D01*
X199346616Y-80357925D01*
X199712525Y-79992016D01*
X200000018Y-79561752D01*
X200198047Y-79083669D01*
X200299001Y-78576138D01*
X200299001Y-78058664D01*
X200198047Y-77551133D01*
X200000018Y-77073050D01*
X199712525Y-76642786D01*
X199346616Y-76276877D01*
X199159404Y-76151786D01*
X199301429Y-76035229D01*
X199352379Y-75973146D01*
X200496651Y-74828875D01*
X200558729Y-74777929D01*
X200609675Y-74715851D01*
X200609678Y-74715848D01*
X200762046Y-74530186D01*
X200815075Y-74430976D01*
X200913125Y-74247538D01*
X201006158Y-73940848D01*
X201029700Y-73701825D01*
X201037572Y-73621900D01*
X201029700Y-73541975D01*
X201029700Y-64405414D01*
X201037571Y-64325499D01*
X201029700Y-64245585D01*
X201029700Y-64245575D01*
X201006158Y-64006552D01*
X200913125Y-63699862D01*
X200762046Y-63417214D01*
X200558729Y-63169471D01*
X200496647Y-63118522D01*
X199784178Y-62406053D01*
X199733229Y-62343971D01*
X199485486Y-62140654D01*
X199202838Y-61989575D01*
X198896148Y-61896542D01*
X198657125Y-61873000D01*
X198657114Y-61873000D01*
X198577200Y-61865129D01*
X198497286Y-61873000D01*
X192236744Y-61873000D01*
X192247836Y-61637401D01*
X192206814Y-61364693D01*
X192113378Y-61105228D01*
X192051006Y-60988540D01*
X191810607Y-60921198D01*
X191022505Y-61709300D01*
X191036648Y-61723443D01*
X190887090Y-61873000D01*
X190798710Y-61873000D01*
X190649153Y-61723443D01*
X190663295Y-61709300D01*
X190649153Y-61695158D01*
X190828758Y-61515553D01*
X190842900Y-61529695D01*
X191631002Y-60741593D01*
X191563660Y-60501194D01*
X191314120Y-60383794D01*
X191046473Y-60317333D01*
X190771001Y-60304364D01*
X190498293Y-60345386D01*
X190238828Y-60438822D01*
X190122140Y-60501194D01*
X190054799Y-60741591D01*
X189938399Y-60625191D01*
X189887812Y-60675778D01*
X189772513Y-60503220D01*
X189508980Y-60239687D01*
X189199098Y-60032631D01*
X188854776Y-59890008D01*
X188489246Y-59817300D01*
X188116554Y-59817300D01*
X187751024Y-59890008D01*
X187406702Y-60032631D01*
X187096820Y-60239687D01*
X187032900Y-60303607D01*
X186968980Y-60239687D01*
X186659098Y-60032631D01*
X186314776Y-59890008D01*
X185949246Y-59817300D01*
X185576554Y-59817300D01*
X185211024Y-59890008D01*
X184866702Y-60032631D01*
X184556820Y-60239687D01*
X184492900Y-60303607D01*
X184428980Y-60239687D01*
X184119098Y-60032631D01*
X183774776Y-59890008D01*
X183409246Y-59817300D01*
X183036554Y-59817300D01*
X182671024Y-59890008D01*
X182326702Y-60032631D01*
X182016820Y-60239687D01*
X181952900Y-60303607D01*
X181888980Y-60239687D01*
X181579098Y-60032631D01*
X181234776Y-59890008D01*
X180869246Y-59817300D01*
X180496554Y-59817300D01*
X180131024Y-59890008D01*
X179786702Y-60032631D01*
X179476820Y-60239687D01*
X179412900Y-60303607D01*
X179348980Y-60239687D01*
X179039098Y-60032631D01*
X178694776Y-59890008D01*
X178329246Y-59817300D01*
X177956554Y-59817300D01*
X177591024Y-59890008D01*
X177246702Y-60032631D01*
X176936820Y-60239687D01*
X176673287Y-60503220D01*
X176557988Y-60675778D01*
X176507401Y-60625191D01*
X176391001Y-60741591D01*
X176323660Y-60501194D01*
X176074120Y-60383794D01*
X175806473Y-60317333D01*
X175531001Y-60304364D01*
X175258293Y-60345386D01*
X174998828Y-60438822D01*
X174939900Y-60470320D01*
X174939900Y-60162678D01*
X175973979Y-59128600D01*
X198104522Y-59128600D01*
X218283799Y-79307878D01*
G36*
X175796648Y-61695158D02*
G01*
X175782505Y-61709300D01*
X175796648Y-61723443D01*
X175617043Y-61903048D01*
X175602900Y-61888905D01*
X175588758Y-61903048D01*
X175409153Y-61723443D01*
X175423295Y-61709300D01*
X175409153Y-61695158D01*
X175588758Y-61515553D01*
X175602900Y-61529695D01*
X175617043Y-61515553D01*
X175796648Y-61695158D01*
G37*
X175796648Y-61695158D02*
X175782505Y-61709300D01*
X175796648Y-61723443D01*
X175617043Y-61903048D01*
X175602900Y-61888905D01*
X175588758Y-61903048D01*
X175409153Y-61723443D01*
X175423295Y-61709300D01*
X175409153Y-61695158D01*
X175588758Y-61515553D01*
X175602900Y-61529695D01*
X175617043Y-61515553D01*
X175796648Y-61695158D01*
M02*
